<svg width="375" height="240" viewBox="0 0 375 240" fill="none" xmlns="http://www.w3.org/2000/svg">
<path d="M174.772 29.7863C167.587 29.8089 147.45 33.114 147.45 20.885C147.45 10.4964 157.29 11.2626 157.29 11.2626C157.29 11.2626 157.005 2.26362 165.772 1.06175C174.765 -0.162651 176.122 9.55744 176.122 9.55744C176.122 9.55744 191.737 3.36783 189.36 18.9095C189.36 18.9095 198.015 17.1818 198.015 24.1751C198.022 31.9948 181.732 29.7638 174.772 29.7863Z" fill="#F0F0F0"/>
<path d="M337.425 221.056H312.585V221.243H337.425V221.056Z" fill="#EBEBEB"/>
<path d="M248.415 223.1H241.897V223.287H248.415V223.1Z" fill="#EBEBEB"/>
<path d="M311.835 214.085H297.442V214.273H311.835V214.085Z" fill="#EBEBEB"/>
<path d="M71.7377 215.347H39.3452V215.534H71.7377V215.347Z" fill="#EBEBEB"/>
<path d="M83.1674 215.347H78.4199V215.534H83.1674V215.347Z" fill="#EBEBEB"/>
<path d="M168.863 218.517H98.6025V218.704H168.863V218.517Z" fill="#EBEBEB"/>
<path d="M375 208.97H0V209.158H375V208.97Z" fill="#EBEBEB"/>
<path d="M73.8599 208.909L207.292 30.6572L340.725 208.909H73.8599Z" fill="#EBEBEB"/>
<path d="M210.03 29.8087C208.14 27.8332 204.277 27.9383 202.575 30.0115C193.62 40.9035 170.985 69.0496 174.72 71.1078C179.362 73.6618 189.952 64.7455 195.202 65.6394C200.452 66.5332 197.775 76.9744 206.767 76.7641C215.76 76.5538 215.445 65.8572 219.645 65.6394C223.852 65.414 233.445 73.6618 239.625 69.8759C244.597 66.8187 219.892 40.1373 210.03 29.8087Z" fill="#FAFAFA"/>
<path d="M32.4751 208.909L144.698 10.1953L256.928 208.909H32.4751Z" fill="#E6E6E6"/>
<path d="M147 9.24182C145.41 7.0409 142.163 7.15358 140.73 9.46717C133.193 21.606 114.158 52.9897 117.3 55.2808C121.2 58.1277 130.11 48.1898 134.528 49.1813C138.945 50.1729 136.688 61.8234 144.255 61.5831C151.823 61.3502 151.553 49.4292 155.085 49.1813C158.618 48.9334 166.688 58.1202 171.893 53.8986C176.078 50.5034 155.295 20.7572 147 9.24182Z" fill="#FAFAFA"/>
<path d="M71.6927 67.4796C62.1827 67.5096 35.5127 71.8814 35.5127 55.6938C35.5127 41.9399 48.5477 42.954 48.5477 42.954C48.5477 42.954 48.1727 31.033 59.7827 29.4481C71.6927 27.8255 73.4927 40.7005 73.4927 40.7005C73.4927 40.7005 94.1627 32.4978 91.0202 53.0797C91.0202 53.0797 102.48 50.7887 102.48 60.0581C102.48 70.4016 80.9102 67.4495 71.6927 67.4796Z" fill="#F5F5F5"/>
<path d="M276.63 35.7955C271.59 35.8105 257.475 38.1241 257.475 29.5533C257.475 22.267 264.375 22.8078 264.375 22.8078C264.375 22.8078 264.173 16.498 270.323 15.6567C276.63 14.7929 277.583 21.6134 277.583 21.6134C277.583 21.6134 288.533 17.2717 286.868 28.1711C286.868 28.1711 292.935 26.9617 292.935 31.8669C292.935 37.3429 281.513 35.7804 276.63 35.7955Z" fill="#F5F5F5"/>
<path d="M244.612 46.8676C236.415 46.8902 213.427 50.661 213.427 36.7044C213.427 24.851 224.662 25.7223 224.662 25.7223C224.662 25.7223 224.34 15.4464 234.345 14.0867C244.612 12.6821 246.157 23.7843 246.157 23.7843C246.157 23.7843 263.977 16.7158 261.262 34.4509C261.262 34.4509 271.14 32.4828 271.14 40.4677C271.147 49.3915 252.555 46.8451 244.612 46.8676Z" fill="#F0F0F0"/>
<path d="M310.665 75.2695C304.035 75.292 285.458 78.3342 285.458 67.0592C285.458 57.4744 294.54 58.1805 294.54 58.1805C294.54 58.1805 294.278 49.8801 302.37 48.7759C310.665 47.6416 311.918 56.618 311.918 56.618C311.918 56.618 326.318 50.9017 324.128 65.2414C324.128 65.2414 332.115 63.6489 332.115 70.1015C332.115 77.3051 317.085 75.247 310.665 75.2695Z" fill="#F5F5F5"/>
<path d="M183.885 240.001C264.197 240.001 329.302 236.194 329.302 231.497C329.302 226.801 264.197 222.994 183.885 222.994C103.573 222.994 38.4673 226.801 38.4673 231.497C38.4673 236.194 103.573 240.001 183.885 240.001Z" fill="#F5F5F5"/>
<path d="M281.077 163.028C277.305 162.337 270.082 169.331 266.535 167.873C263.805 166.754 263.302 159.393 261.157 157.372C258.217 154.608 247.582 154.788 246.367 150.934C243.862 142.995 255.66 124.546 263.722 122.525C269.512 121.076 278.692 132.576 284.28 134.649C289.47 136.58 302.392 134.439 306.06 138.585C310.305 143.385 309.495 158.822 306.06 164.23C303.847 167.716 295.177 172.05 291.135 171.231C287.962 170.6 284.272 163.614 281.077 163.028Z" fill="#2A5F73"/>
<path opacity="0.2" d="M281.077 163.028C277.305 162.337 270.082 169.331 266.535 167.873C263.805 166.754 263.302 159.393 261.157 157.372C258.217 154.608 247.582 154.788 246.367 150.934C243.862 142.995 255.66 124.546 263.722 122.525C269.512 121.076 278.692 132.576 284.28 134.649C289.47 136.58 302.392 134.439 306.06 138.585C310.305 143.385 309.495 158.822 306.06 164.23C303.847 167.716 295.177 172.05 291.135 171.231C287.962 170.6 284.272 163.614 281.077 163.028Z" fill="white"/>
<path d="M266.745 152.752C265.26 151.16 260.31 147.456 260.31 147.456L260.49 146.87L267.532 151.633L270.39 143.197L270.862 143.588C270.862 143.588 268.567 149.83 268.927 152.038C269.7 156.801 279.637 167.415 279.637 167.415C279.637 167.415 286.762 159.257 288.09 155.952C289.185 153.218 289.605 144.271 289.605 144.271L290.077 144.347L289.462 154.825L299.977 146.164L300.157 146.75C300.157 146.75 291.645 153.518 289.342 156.29C287.565 158.431 284.22 164.41 282.532 167.513C281.857 168.752 281.527 170.149 281.565 171.561L282.412 230.31H277.462L278.287 172.696C278.347 170.84 277.417 169.007 276.472 167.415C274.11 163.381 269.37 155.561 266.745 152.752Z" fill="#2A5F73"/>
<path d="M135.743 145.646C132.353 146.006 127.538 141.537 124.208 142.288C117.443 143.805 100.77 144.481 96.6977 138.87C91.3727 131.539 96.7127 109.244 103.5 103.25C109.17 98.2471 133.673 101.357 133.673 101.357C133.673 101.357 143.243 88.3092 148.17 87.8435C155.918 87.1149 172.013 97.0678 174.503 104.452C176.873 111.475 166.028 125.071 164.145 132.245C163.538 134.559 164.655 140.365 162.668 141.687C156.885 145.526 142.643 144.91 135.743 145.646Z" fill="#2A5F73"/>
<path opacity="0.3" d="M135.743 145.646C132.353 146.006 127.538 141.537 124.208 142.288C117.443 143.805 100.77 144.481 96.6977 138.87C91.3727 131.539 96.7127 109.244 103.5 103.25C109.17 98.2471 133.673 101.357 133.673 101.357C133.673 101.357 143.243 88.3092 148.17 87.8435C155.918 87.1149 172.013 97.0678 174.503 104.452C176.873 111.475 166.028 125.071 164.145 132.245C163.538 134.559 164.655 140.365 162.668 141.687C156.885 145.526 142.643 144.91 135.743 145.646Z" fill="white"/>
<path d="M150.885 126.364C152.775 124.335 159.09 119.611 159.09 119.611L158.858 118.867L149.873 124.944L146.228 114.18L145.628 114.675C145.628 114.675 148.553 122.645 148.103 125.455C147.12 131.532 134.438 145.075 134.438 145.075C134.438 145.075 125.348 134.671 123.653 130.45C122.25 126.965 121.718 115.539 121.718 115.539L121.118 115.637L121.905 129L108.488 117.951L108.255 118.694C108.255 118.694 119.115 127.325 122.055 130.863C124.32 133.597 128.595 141.229 130.748 145.18C131.61 146.765 132.03 148.546 131.978 150.341L130.898 230.295H137.205L136.155 151.798C136.08 149.432 137.273 147.096 138.473 145.06C141.495 139.93 147.54 129.954 150.885 126.364Z" fill="#2A5F73"/>
<path d="M271.657 229.709C271.657 218.704 271.657 180.958 271.657 169.954C271.657 152.459 271.657 134.972 271.657 117.477C271.657 114.66 271.657 111.843 271.657 109.026C271.657 108.087 271.913 106.735 271.605 105.819C271.29 104.88 269.805 105.286 270.12 106.232C270.158 106.345 270.112 108.08 270.112 108.658C270.112 110.987 270.112 113.316 270.112 115.644C270.112 123.389 270.112 131.126 270.112 138.87C270.112 156.207 270.112 173.552 270.112 190.889C270.112 194.915 270.112 225.683 270.112 229.709C270.12 230.7 271.657 230.7 271.657 229.709Z" fill="#2A5F73"/>
<g opacity="0.4">
<path d="M271.657 229.709C271.657 218.704 271.657 180.958 271.657 169.954C271.657 152.459 271.657 134.972 271.657 117.477C271.657 114.66 271.657 111.843 271.657 109.026C271.657 108.087 271.913 106.735 271.605 105.819C271.29 104.88 269.805 105.286 270.12 106.232C270.158 106.345 270.112 108.08 270.112 108.658C270.112 110.987 270.112 113.316 270.112 115.644C270.112 123.389 270.112 131.126 270.112 138.87C270.112 156.207 270.112 173.552 270.112 190.889C270.112 194.915 270.112 225.683 270.112 229.709C270.12 230.7 271.657 230.7 271.657 229.709Z" fill="black"/>
</g>
<path d="M303.225 105.286H270.863V106.954H303.225V105.286Z" fill="#2A5F73"/>
<path opacity="0.4" d="M303.225 105.286H270.863V106.954H303.225V105.286Z" fill="black"/>
<path d="M275.842 99.4646L285.097 87.0778L279.435 85.583L274.065 98.4355C274.71 98.7059 275.302 99.0514 275.842 99.4646Z" fill="#2A5F73"/>
<path d="M267.592 98.465L261.517 84.2529L257.4 88.4144L265.83 99.5016C266.37 99.0885 266.962 98.7354 267.592 98.465Z" fill="#2A5F73"/>
<path d="M262.545 106.12C262.545 105.782 262.567 105.459 262.612 105.128L247.282 103.288L248.82 108.944L262.62 107.172C262.575 106.834 262.545 106.481 262.545 106.12Z" fill="#2A5F73"/>
<path d="M279.18 106.119C279.18 106.457 279.157 106.78 279.112 107.111L294.442 108.951L292.905 103.295L279.105 105.068C279.15 105.413 279.18 105.766 279.18 106.119Z" fill="#2A5F73"/>
<path d="M265.882 112.782L256.627 125.169L262.29 126.664L267.66 113.811C267.022 113.541 266.43 113.188 265.882 112.782Z" fill="#2A5F73"/>
<path d="M270.862 97.7892C271.2 97.7892 271.522 97.8117 271.852 97.8568L273.69 82.5029L268.042 84.0428L269.812 97.8643C270.157 97.8192 270.51 97.7892 270.862 97.7892Z" fill="#2A5F73"/>
<path opacity="0.5" d="M270.862 97.7892C271.2 97.7892 271.522 97.8117 271.852 97.8568L273.69 82.5029L268.042 84.0428L269.812 97.8643C270.157 97.8192 270.51 97.7892 270.862 97.7892Z" fill="white"/>
<path d="M277.515 111.107L289.882 120.377L291.375 114.706L278.542 109.327C278.272 109.973 277.92 110.567 277.515 111.107Z" fill="#2A5F73"/>
<path opacity="0.5" d="M277.515 111.107L289.882 120.377L291.375 114.706L278.542 109.327C278.272 109.973 277.92 110.567 277.515 111.107Z" fill="white"/>
<path d="M270.862 114.45C270.525 114.45 270.202 114.428 269.872 114.383L268.035 129.736L273.682 128.196L271.912 114.375C271.575 114.42 271.222 114.45 270.862 114.45Z" fill="#2A5F73"/>
<path opacity="0.5" d="M270.862 114.45C270.525 114.45 270.202 114.428 269.872 114.383L268.035 129.736L273.682 128.196L271.912 114.375C271.575 114.42 271.222 114.45 270.862 114.45Z" fill="white"/>
<path d="M263.22 109.402L249.03 115.487L253.185 119.611L264.255 111.168C263.843 110.619 263.49 110.033 263.22 109.402Z" fill="#2A5F73"/>
<path opacity="0.5" d="M263.22 109.402L249.03 115.487L253.185 119.611L264.255 111.168C263.843 110.619 263.49 110.033 263.22 109.402Z" fill="white"/>
<path d="M278.513 102.844L292.703 96.7596L288.548 92.6357L277.478 101.079C277.89 101.62 278.243 102.213 278.513 102.844Z" fill="#2A5F73"/>
<path opacity="0.5" d="M278.513 102.844L292.703 96.7596L288.548 92.6357L277.478 101.079C277.89 101.62 278.243 102.213 278.513 102.844Z" fill="white"/>
<path d="M264.217 101.132L251.85 91.8623L250.357 97.5336L263.19 102.912C263.46 102.273 263.805 101.68 264.217 101.132Z" fill="#2A5F73"/>
<path opacity="0.5" d="M264.217 101.132L251.85 91.8623L250.357 97.5336L263.19 102.912C263.46 102.273 263.805 101.68 264.217 101.132Z" fill="white"/>
<path d="M275.902 112.745C275.362 113.158 274.777 113.511 274.14 113.782L280.215 127.994L284.332 123.832L275.902 112.745Z" fill="#2A5F73"/>
<path d="M270.863 111.107C273.613 111.107 275.843 108.874 275.843 106.12C275.843 103.365 273.613 101.132 270.863 101.132C268.112 101.132 265.883 103.365 265.883 106.12C265.883 108.874 268.112 111.107 270.863 111.107Z" fill="#2A5F73"/>
<path opacity="0.2" d="M270.863 111.107C273.613 111.107 275.843 108.874 275.843 106.12C275.843 103.365 273.613 101.132 270.863 101.132C268.112 101.132 265.883 103.365 265.883 106.12C265.883 108.874 268.112 111.107 270.863 111.107Z" fill="black"/>
<path d="M321.023 114.398L296.55 106.12L321.023 97.8496L318.773 106.12L321.023 114.398Z" fill="#2A5F73"/>
<path opacity="0.2" d="M296.61 106.098L296.55 106.12L321.023 114.398L318.773 106.098H296.61Z" fill="black"/>
<path d="M277.095 196.86C275.617 179.501 274.14 162.141 272.655 144.782C272.31 140.778 271.972 136.767 271.627 132.763C271.545 131.772 270.172 131.772 270.09 132.763C269.16 143.715 268.222 154.667 267.292 165.619C265.815 182.979 264.337 200.338 262.852 217.698C262.507 221.701 262.17 225.712 261.825 229.716C261.742 230.708 263.28 230.7 263.362 229.716C264.292 218.764 265.23 207.812 266.16 196.86C267.637 179.501 269.115 162.141 270.6 144.782C270.682 143.79 270.772 142.791 270.855 141.8C271.53 149.74 272.205 157.679 272.887 165.619C274.365 182.979 275.842 200.338 277.327 217.698C277.672 221.701 278.01 225.712 278.355 229.716C278.437 230.7 279.982 230.708 279.892 229.716C278.962 218.764 278.032 207.812 277.095 196.86Z" fill="#2A5F73"/>
<g opacity="0.2">
<path d="M268.155 155.517C268.11 156.027 268.065 156.546 268.02 157.056C268.53 157.056 269.048 157.056 269.558 157.056C269.603 156.546 269.648 156.027 269.693 155.517C269.183 155.517 268.673 155.517 268.155 155.517Z" fill="black"/>
<path d="M273.578 155.517C273.068 155.517 272.55 155.517 272.04 155.517C272.085 156.027 272.13 156.546 272.175 157.056C272.685 157.056 273.203 157.056 273.713 157.056C273.66 156.538 273.615 156.027 273.578 155.517Z" fill="black"/>
</g>
<g opacity="0.2">
<path d="M276.945 195.096C276.435 195.096 275.917 195.096 275.407 195.096C275.452 195.606 275.497 196.125 275.542 196.636C276.052 196.636 276.57 196.636 277.08 196.636C277.035 196.125 276.99 195.614 276.945 195.096Z" fill="black"/>
<path d="M264.652 196.636C265.162 196.636 265.68 196.636 266.19 196.636C266.235 196.125 266.28 195.606 266.325 195.096C265.815 195.096 265.297 195.096 264.787 195.096C264.742 195.614 264.697 196.125 264.652 196.636Z" fill="black"/>
</g>
<path d="M263.925 156.027C268.567 156.027 273.202 156.027 277.845 156.027C278.835 156.027 278.835 154.487 277.845 154.487C273.202 154.487 268.567 154.487 263.925 154.487C262.935 154.487 262.935 156.027 263.925 156.027Z" fill="#2A5F73"/>
<path d="M262.388 195.613C268.05 195.613 273.72 195.613 279.383 195.613C280.373 195.613 280.373 194.073 279.383 194.073C273.72 194.073 268.05 194.073 262.388 194.073C261.398 194.066 261.398 195.613 262.388 195.613Z" fill="#2A5F73"/>
<path d="M318.893 179.523H313.275V181.739H314.19V191.707H317.97V181.739H318.893V179.523Z" fill="#2A5F73"/>
<g opacity="0.2">
<path d="M318.893 179.523H313.275V181.739H314.19V191.707H317.97V181.739H318.893V179.523Z" fill="black"/>
</g>
<path d="M285.69 172.417L265.755 203.14V230.715H312.96V203.14L285.69 172.417Z" fill="#2A5F73"/>
<path opacity="0.5" d="M285.69 172.417L265.755 203.14V230.715H312.96V203.14L285.69 172.417Z" fill="white"/>
<path d="M307.59 173.672L304.553 169.007H285.69L263.475 203.14H282.338H307.59V173.672Z" fill="#2A5F73"/>
<path opacity="0.2" d="M307.59 173.672L304.553 169.007H285.69L263.475 203.14H282.338H307.59V173.672Z" fill="black"/>
<path d="M282.338 203.14L304.553 169.007L326.775 203.14H282.338Z" fill="#2A5F73"/>
<path d="M304.553 172.417L284.618 203.14V230.715H324.488V203.14L304.553 172.417Z" fill="#2A5F73"/>
<path opacity="0.8" d="M304.553 172.417L284.618 203.14V230.715H324.488V203.14L304.553 172.417Z" fill="white"/>
<path d="M311.61 211.215H297.758V230.565H311.61V211.215Z" fill="#2A5F73"/>
<path opacity="0.4" d="M311.61 211.215H297.758V230.565H311.61V211.215Z" fill="white"/>
<path d="M310.755 207.158H298.62L295.665 211.898H313.703L310.755 207.158Z" fill="#2A5F73"/>
<path d="M304.425 214.505H300.18V219.515H304.425V214.505Z" fill="#2A5F73"/>
<path d="M309.195 214.505H304.95V219.515H309.195V214.505Z" fill="#2A5F73"/>
<path d="M304.425 220.026H300.18V225.044H304.425V220.026Z" fill="#2A5F73"/>
<path d="M309.195 220.026H304.95V225.044H309.195V220.026Z" fill="#2A5F73"/>
<path d="M304.425 225.555H300.18V230.565H304.425V225.555Z" fill="#2A5F73"/>
<path d="M309.195 225.555H304.95V230.565H309.195V225.555Z" fill="#2A5F73"/>
<path d="M299.648 190.1H295.613V200.804H299.648V190.1Z" fill="#2A5F73"/>
<path d="M313.763 190.1H309.728V200.804H313.763V190.1Z" fill="#2A5F73"/>
<path d="M309.727 189.597H299.647V201.307H309.727V189.597Z" fill="#2A5F73"/>
<path opacity="0.4" d="M309.727 189.597H299.647V201.307H309.727V189.597Z" fill="white"/>
<path d="M304.44 190.858H300.907V195.2H304.44V190.858Z" fill="#2A5F73"/>
<path d="M308.468 190.858H304.935V195.2H308.468V190.858Z" fill="#2A5F73"/>
<path d="M304.44 195.704H300.907V200.046H304.44V195.704Z" fill="#2A5F73"/>
<path d="M308.468 195.704H304.935V200.046H308.468V195.704Z" fill="#2A5F73"/>
<path d="M206.047 126.115H180.585V230.625H206.047V126.115Z" fill="#2A5F73"/>
<path opacity="0.5" d="M206.047 126.115H180.585V230.625H206.047V126.115Z" fill="white"/>
<path d="M187.425 115.606L180.585 126.115H206.047L199.215 115.606H187.425Z" fill="#2A5F73"/>
<path opacity="0.2" d="M187.425 115.606L180.585 126.115H206.047L199.215 115.606H187.425Z" fill="black"/>
<path d="M199.215 115.606L192.375 126.115H217.838L211.005 115.606H199.215Z" fill="#2A5F73"/>
<path d="M211.005 98.833H199.215V115.607H211.005V98.833Z" fill="#2A5F73"/>
<path opacity="0.8" d="M211.005 98.833H199.215V115.607H211.005V98.833Z" fill="white"/>
<path d="M208.275 103.851C208.275 102.213 206.947 100.884 205.312 100.884C203.677 100.884 202.35 102.213 202.35 103.851V113.466H208.275V103.851Z" fill="#2A5F73"/>
<path d="M205.305 100.884C205.042 100.884 204.795 100.929 204.555 100.989C205.83 101.319 206.767 102.469 206.767 103.851V113.466H208.267V103.851C208.275 102.213 206.947 100.884 205.305 100.884Z" fill="#2A5F73"/>
<path opacity="0.5" d="M205.305 100.884C205.042 100.884 204.795 100.929 204.555 100.989C205.83 101.319 206.767 102.469 206.767 103.851V113.466H208.267V103.851C208.275 102.213 206.947 100.884 205.305 100.884Z" fill="white"/>
<path d="M199.215 98.833H187.425V115.607H199.215V98.833Z" fill="#2A5F73"/>
<path opacity="0.5" d="M199.215 98.833H187.425V115.607H199.215V98.833Z" fill="white"/>
<path d="M190.155 103.851C190.155 102.213 191.483 100.884 193.118 100.884C194.753 100.884 196.08 102.213 196.08 103.851V113.466H190.155V103.851Z" fill="#2A5F73"/>
<path d="M193.118 100.884C193.38 100.884 193.628 100.929 193.868 100.989C192.593 101.319 191.655 102.469 191.655 103.851V113.466H190.155V103.851C190.155 102.213 191.483 100.884 193.118 100.884Z" fill="#2A5F73"/>
<path opacity="0.5" d="M193.118 100.884C193.38 100.884 193.628 100.929 193.868 100.989C192.593 101.319 191.655 102.469 191.655 103.851V113.466H190.155V103.851C190.155 102.213 191.483 100.884 193.118 100.884Z" fill="white"/>
<path d="M187.11 98.9833L199.185 63.1602L211.252 98.9833H187.11Z" fill="#2A5F73"/>
<path opacity="0.2" d="M199.215 63.2503L199.185 63.1602L187.11 98.9833H199.215V63.2503Z" fill="black"/>
<path d="M217.838 126.115H192.375V230.625H217.838V126.115Z" fill="#2A5F73"/>
<path opacity="0.8" d="M217.838 126.115H192.375V230.625H217.838V126.115Z" fill="white"/>
<path d="M200.46 133.198H196.575V143.504H200.46V133.198Z" fill="#2A5F73"/>
<path d="M214.042 133.198H210.157V143.504H214.042V133.198Z" fill="#2A5F73"/>
<path d="M210.157 132.718H200.452V143.993H210.157V132.718Z" fill="#2A5F73"/>
<path opacity="0.3" d="M210.157 132.718H200.452V143.993H210.157V132.718Z" fill="white"/>
<path d="M205.065 133.927H201.667V138.103H205.065V133.927Z" fill="#2A5F73"/>
<path d="M208.95 133.927H205.552V138.103H208.95V133.927Z" fill="#2A5F73"/>
<path d="M205.065 138.6H201.667V142.776H205.065V138.6Z" fill="#2A5F73"/>
<path d="M208.95 138.6H205.552V142.776H208.95V138.6Z" fill="#2A5F73"/>
<path d="M200.46 182.167H196.575V192.473H200.46V182.167Z" fill="#2A5F73"/>
<path d="M214.042 182.167H210.157V192.473H214.042V182.167Z" fill="#2A5F73"/>
<path d="M210.157 181.679H200.452V192.954H210.157V181.679Z" fill="#2A5F73"/>
<path opacity="0.3" d="M210.157 181.679H200.452V192.954H210.157V181.679Z" fill="white"/>
<path d="M205.065 182.896H201.667V187.072H205.065V182.896Z" fill="#2A5F73"/>
<path d="M208.95 182.896H205.552V187.072H208.95V182.896Z" fill="#2A5F73"/>
<path d="M205.065 187.561H201.667V191.737H205.065V187.561Z" fill="#2A5F73"/>
<path d="M208.95 187.561H205.552V191.737H208.95V187.561Z" fill="#2A5F73"/>
<path d="M189.577 157.198H182.077V168.473H189.577V157.198Z" fill="#2A5F73"/>
<path opacity="0.8" d="M189.577 157.198H182.077V168.473H189.577V157.198Z" fill="white"/>
<path d="M185.64 158.415H183.015V162.592H185.64V158.415Z" fill="#2A5F73"/>
<path d="M188.64 158.415H186.015V162.592H188.64V158.415Z" fill="#2A5F73"/>
<path d="M185.64 163.08H183.015V167.257H185.64V163.08Z" fill="#2A5F73"/>
<path d="M188.64 163.08H186.015V167.257H188.64V163.08Z" fill="#2A5F73"/>
<path d="M189.577 206.167H182.077V217.442H189.577V206.167Z" fill="#2A5F73"/>
<path opacity="0.8" d="M189.577 206.167H182.077V217.442H189.577V206.167Z" fill="white"/>
<path d="M185.64 207.376H183.015V211.552H185.64V207.376Z" fill="#2A5F73"/>
<path d="M188.64 207.376H186.015V211.552H188.64V207.376Z" fill="#2A5F73"/>
<path d="M185.64 212.041H183.015V216.217H185.64V212.041Z" fill="#2A5F73"/>
<path d="M188.64 212.041H186.015V216.217H188.64V212.041Z" fill="#2A5F73"/>
<path d="M55.7627 134.799H61.7027V137.15H60.7352V145.871H56.7302V137.15H55.7627V134.799Z" fill="#2A5F73"/>
<g opacity="0.2">
<path d="M55.7627 134.799H61.7027V137.15H60.7352V145.871H56.7302V137.15H55.7627V134.799Z" fill="black"/>
</g>
<path d="M83.145 127.039L104.258 159.565V230.715H62.04V159.565L83.145 127.039Z" fill="#2A5F73"/>
<path opacity="0.8" d="M83.145 127.039L104.258 159.565V230.715H62.04V159.565L83.145 127.039Z" fill="white"/>
<path d="M67.7251 128.361L70.9426 123.426H83.1451L106.673 159.564H94.4626H67.7251V128.361Z" fill="#2A5F73"/>
<path opacity="0.2" d="M67.7251 128.361L70.9426 123.426H83.1451L106.673 159.564H94.4626H67.7251V128.361Z" fill="black"/>
<path d="M94.4625 159.564L70.9425 123.426L47.415 159.564H94.4625Z" fill="#2A5F73"/>
<path d="M70.9426 127.039L92.0476 159.565V230.715H49.8301V159.565L70.9426 127.039Z" fill="#2A5F73"/>
<path opacity="0.5" d="M70.9426 127.039L92.0476 159.565V230.715H49.8301V159.565L70.9426 127.039Z" fill="white"/>
<path d="M75.9152 141.807H65.9702V153.082H75.9152V141.807Z" fill="#2A5F73"/>
<path opacity="0.7" d="M75.9152 141.807H65.9702V153.082H75.9152V141.807Z" fill="white"/>
<path d="M74.5801 143.023H71.1826V147.2H74.5801V143.023Z" fill="#2A5F73"/>
<path d="M70.6954 143.023H67.2979V147.2H70.6954V143.023Z" fill="#2A5F73"/>
<path d="M74.5801 147.688H71.1826V151.865H74.5801V147.688Z" fill="#2A5F73"/>
<path d="M70.6954 147.688H67.2979V151.865H70.6954V147.688Z" fill="#2A5F73"/>
<path d="M83.1454 161.788H58.7329V177.773H83.1454V161.788Z" fill="#2A5F73"/>
<path opacity="0.7" d="M83.1454 161.788H58.7329V177.773H83.1454V161.788Z" fill="white"/>
<path d="M81.5479 163.508H77.0479V169.435H81.5479V163.508Z" fill="#2A5F73"/>
<path d="M76.4028 163.508H71.9028V169.435H76.4028V163.508Z" fill="#2A5F73"/>
<path d="M81.5479 170.126H77.0479V176.053H81.5479V170.126Z" fill="#2A5F73"/>
<path d="M76.4028 170.126H71.9028V176.053H76.4028V170.126Z" fill="#2A5F73"/>
<path d="M88.2825 162.479H83.145V177.082H88.2825V162.479Z" fill="#2A5F73"/>
<path d="M58.7327 162.479H53.5952V177.082H58.7327V162.479Z" fill="#2A5F73"/>
<path d="M69.9829 163.508H65.4829V169.435H69.9829V163.508Z" fill="#2A5F73"/>
<path d="M64.8379 163.508H60.3379V169.435H64.8379V163.508Z" fill="#2A5F73"/>
<path d="M69.9829 170.126H65.4829V176.053H69.9829V170.126Z" fill="#2A5F73"/>
<path d="M64.8379 170.126H60.3379V176.053H64.8379V170.126Z" fill="#2A5F73"/>
<path d="M83.1454 185.848H58.7329V201.832H83.1454V185.848Z" fill="#2A5F73"/>
<path opacity="0.7" d="M83.1454 185.848H58.7329V201.832H83.1454V185.848Z" fill="white"/>
<path d="M81.5479 187.567H77.0479V193.494H81.5479V187.567Z" fill="#2A5F73"/>
<path d="M76.4028 187.567H71.9028V193.494H76.4028V187.567Z" fill="#2A5F73"/>
<path d="M81.5479 194.178H77.0479V200.104H81.5479V194.178Z" fill="#2A5F73"/>
<path d="M76.4028 194.178H71.9028V200.104H76.4028V194.178Z" fill="#2A5F73"/>
<path d="M88.2825 186.531H83.145V201.134H88.2825V186.531Z" fill="#2A5F73"/>
<path d="M58.7327 186.531H53.5952V201.134H58.7327V186.531Z" fill="#2A5F73"/>
<path d="M69.9829 187.567H65.4829V193.494H69.9829V187.567Z" fill="#2A5F73"/>
<path d="M64.8379 187.567H60.3379V193.494H64.8379V187.567Z" fill="#2A5F73"/>
<path d="M69.9829 194.178H65.4829V200.104H69.9829V194.178Z" fill="#2A5F73"/>
<path d="M64.8379 194.178H60.3379V200.104H64.8379V194.178Z" fill="#2A5F73"/>
<path d="M63.6034 230.71H78.2734V210.218H63.6034V230.71Z" fill="#2A5F73"/>
<path opacity="0.7" d="M63.6034 230.71H78.2734V210.218H63.6034V230.71Z" fill="white"/>
<path d="M64.515 205.927H77.3625L80.49 210.945H61.395L64.515 205.927Z" fill="#2A5F73"/>
<path d="M75.7127 213.701H71.2202V219.012H75.7127V213.701Z" fill="#2A5F73"/>
<path d="M70.6575 213.701H66.165V219.012H70.6575V213.701Z" fill="#2A5F73"/>
<path d="M75.7127 219.553H71.2202V224.863H75.7127V219.553Z" fill="#2A5F73"/>
<path d="M70.6575 219.553H66.165V224.863H70.6575V219.553Z" fill="#2A5F73"/>
<path d="M75.7127 225.404H71.2202V230.715H75.7127V225.404Z" fill="#2A5F73"/>
<path d="M70.6575 225.404H66.165V230.715H70.6575V225.404Z" fill="#2A5F73"/>
<path d="M263.828 159.114H203.52V230.715H263.828V159.114Z" fill="#2A5F73"/>
<path opacity="0.6" d="M263.828 159.114H203.52V230.715H263.828V159.114Z" fill="white"/>
<path d="M277.913 159.114H248.13V230.715H277.913V159.114Z" fill="#2A5F73"/>
<path opacity="0.8" d="M277.913 159.114H248.13V230.715H277.913V159.114Z" fill="white"/>
<path d="M270.548 161.758L258.765 139.854H208.59L196.808 161.758H270.548Z" fill="#2A5F73"/>
<path opacity="0.3" d="M270.548 161.758L258.765 139.854H208.59L196.808 161.758H270.548Z" fill="black"/>
<path d="M284.633 161.758L272.85 139.854H253.2L241.418 161.758H284.633Z" fill="#2A5F73"/>
<path opacity="0.2" d="M284.633 161.758L272.85 139.854H253.2L241.418 161.758H284.633Z" fill="black"/>
<path d="M220.733 167.692H209.948V180.222H220.733V167.692Z" fill="#2A5F73"/>
<path opacity="0.3" d="M220.733 167.692H209.948V180.222H220.733V167.692Z" fill="white"/>
<path d="M215.063 169.037H211.29V173.679H215.063V169.037Z" fill="#2A5F73"/>
<path d="M219.375 169.037H215.603V173.679H219.375V169.037Z" fill="#2A5F73"/>
<path d="M215.063 174.228H211.29V178.87H215.063V174.228Z" fill="#2A5F73"/>
<path d="M219.375 174.228H215.603V178.87H219.375V174.228Z" fill="#2A5F73"/>
<path d="M241.98 167.692H231.195V180.222H241.98V167.692Z" fill="#2A5F73"/>
<path opacity="0.3" d="M241.98 167.692H231.195V180.222H241.98V167.692Z" fill="white"/>
<path d="M236.318 169.037H232.545V173.679H236.318V169.037Z" fill="#2A5F73"/>
<path d="M240.63 169.037H236.858V173.679H240.63V169.037Z" fill="#2A5F73"/>
<path d="M236.318 174.228H232.545V178.87H236.318V174.228Z" fill="#2A5F73"/>
<path d="M240.63 174.228H236.858V178.87H240.63V174.228Z" fill="#2A5F73"/>
<path d="M257.498 168.226H253.185V179.673H257.498V168.226Z" fill="#2A5F73"/>
<path d="M272.595 168.226H268.282V179.673H272.595V168.226Z" fill="#2A5F73"/>
<path d="M268.283 167.692H257.498V180.222H268.283V167.692Z" fill="#2A5F73"/>
<path opacity="0.3" d="M268.283 167.692H257.498V180.222H268.283V167.692Z" fill="white"/>
<path d="M262.62 169.037H258.848V173.679H262.62V169.037Z" fill="#2A5F73"/>
<path d="M266.933 169.037H263.16V173.679H266.933V169.037Z" fill="#2A5F73"/>
<path d="M262.62 174.228H258.848V178.87H262.62V174.228Z" fill="#2A5F73"/>
<path d="M266.933 174.228H263.16V178.87H266.933V174.228Z" fill="#2A5F73"/>
<path d="M220.733 185.3H209.948V197.829H220.733V185.3Z" fill="#2A5F73"/>
<path opacity="0.3" d="M220.733 185.3H209.948V197.829H220.733V185.3Z" fill="white"/>
<path d="M215.063 186.652H211.29V191.295H215.063V186.652Z" fill="#2A5F73"/>
<path d="M219.375 186.652H215.603V191.295H219.375V186.652Z" fill="#2A5F73"/>
<path d="M215.063 191.835H211.29V196.477H215.063V191.835Z" fill="#2A5F73"/>
<path d="M219.375 191.835H215.603V196.477H219.375V191.835Z" fill="#2A5F73"/>
<path d="M241.98 185.3H231.195V197.829H241.98V185.3Z" fill="#2A5F73"/>
<path opacity="0.3" d="M241.98 185.3H231.195V197.829H241.98V185.3Z" fill="white"/>
<path d="M236.318 186.652H232.545V191.295H236.318V186.652Z" fill="#2A5F73"/>
<path d="M240.63 186.652H236.858V191.295H240.63V186.652Z" fill="#2A5F73"/>
<path d="M236.318 191.835H232.545V196.477H236.318V191.835Z" fill="#2A5F73"/>
<path d="M240.63 191.835H236.858V196.477H240.63V191.835Z" fill="#2A5F73"/>
<path d="M257.498 185.841H253.185V197.289H257.498V185.841Z" fill="#2A5F73"/>
<path d="M272.595 185.841H268.282V197.289H272.595V185.841Z" fill="#2A5F73"/>
<path d="M268.283 185.3H257.498V197.829H268.283V185.3Z" fill="#2A5F73"/>
<path opacity="0.3" d="M268.283 185.3H257.498V197.829H268.283V185.3Z" fill="white"/>
<path d="M262.62 186.652H258.848V191.295H262.62V186.652Z" fill="#2A5F73"/>
<path d="M266.933 186.652H263.16V191.295H266.933V186.652Z" fill="#2A5F73"/>
<path d="M262.62 191.835H258.848V196.477H262.62V191.835Z" fill="#2A5F73"/>
<path d="M266.933 191.835H263.16V196.477H266.933V191.835Z" fill="#2A5F73"/>
<path d="M277.913 211.809H203.52V230.708H277.913V211.809Z" fill="#2A5F73"/>
<path opacity="0.1" d="M248.13 211.809H203.52V230.708H248.13V211.809Z" fill="black"/>
<path d="M231.548 207.939H217.463V230.707H231.548V207.939Z" fill="#2A5F73"/>
<path opacity="0.3" d="M231.548 207.939H217.463V230.707H231.548V207.939Z" fill="white"/>
<path d="M230.678 203.17H218.333L215.34 208.751H233.678L230.678 203.17Z" fill="#2A5F73"/>
<path d="M224.235 211.809H219.923V217.705H224.235V211.809Z" fill="#2A5F73"/>
<path d="M229.088 211.809H224.775V217.705H229.088V211.809Z" fill="#2A5F73"/>
<path d="M224.235 218.313H219.923V224.21H224.235V218.313Z" fill="#2A5F73"/>
<path d="M229.088 218.313H224.775V224.21H229.088V218.313Z" fill="#2A5F73"/>
<path d="M224.235 224.812H219.923V230.708H224.235V224.812Z" fill="#2A5F73"/>
<path d="M229.088 224.812H224.775V230.708H229.088V224.812Z" fill="#2A5F73"/>
<path d="M219.833 158.01V139.854H243.023L233.258 158.01H219.833Z" fill="#2A5F73"/>
<path opacity="0.8" d="M219.833 158.01V139.854H243.023L233.258 158.01H219.833Z" fill="white"/>
<path d="M219.15 158.013H233.235V143.906H219.15V158.013Z" fill="#2A5F73"/>
<path opacity="0.6" d="M219.15 158.013H233.235V143.906H219.15V158.013Z" fill="white"/>
<path d="M223.222 156.305H229.162C229.702 156.305 230.137 155.87 230.137 155.329V154.615H222.255V155.329C222.247 155.87 222.682 156.305 223.222 156.305Z" fill="#2A5F73"/>
<path d="M228.69 149.222H226.395V151.52H228.69V149.222Z" fill="#2A5F73"/>
<path d="M225.997 149.222H223.702V151.52H225.997V149.222Z" fill="#2A5F73"/>
<path d="M228.69 151.918H226.395V154.217H228.69V151.918Z" fill="#2A5F73"/>
<path d="M225.997 151.918H223.702V154.217H225.997V151.918Z" fill="#2A5F73"/>
<path d="M228.69 148.831C228.69 147.449 227.572 146.337 226.2 146.337C224.827 146.337 223.702 147.456 223.702 148.831H228.69Z" fill="#2A5F73"/>
<path d="M228.69 144.707L231.3 139.854H243.022L240.412 144.707H228.69Z" fill="#2A5F73"/>
<path opacity="0.2" d="M228.69 144.707L231.3 139.854H243.022L240.412 144.707H228.69Z" fill="black"/>
<path d="M232.748 139.854L235.365 144.707H217.02L219.638 139.854H232.748Z" fill="#2A5F73"/>
<path d="M169.418 169.916H98.2427V230.715H169.418V169.916Z" fill="#2A5F73"/>
<path opacity="0.5" d="M169.418 169.916H98.2427V230.715H169.418V169.916Z" fill="white"/>
<path d="M176.13 172.553L164.348 150.656H103.313L91.5303 172.553H176.13Z" fill="#2A5F73"/>
<path opacity="0.3" d="M176.13 172.553L164.348 150.656H103.313L91.5303 172.553H176.13Z" fill="black"/>
<path d="M183.503 169.916H112.328V230.715H183.503V169.916Z" fill="#2A5F73"/>
<path opacity="0.8" d="M183.503 169.916H112.328V230.715H183.503V169.916Z" fill="white"/>
<path d="M169.035 142.296H162.428V144.91H163.508V151.483H167.955V144.91H169.035V142.296Z" fill="#2A5F73"/>
<path d="M190.215 172.553L178.433 150.656H117.398L105.615 172.553H190.215Z" fill="#2A5F73"/>
<path opacity="0.2" d="M190.215 172.553L178.433 150.656H117.398L105.615 172.553H190.215Z" fill="black"/>
<path d="M154.958 207.939H140.873V230.707H154.958V207.939Z" fill="#2A5F73"/>
<path opacity="0.4" d="M154.958 207.939H140.873V230.707H154.958V207.939Z" fill="white"/>
<path d="M154.08 203.17H141.743L138.743 208.751H157.08L154.08 203.17Z" fill="#2A5F73"/>
<path d="M147.645 211.809H143.333V217.705H147.645V211.809Z" fill="#2A5F73"/>
<path d="M152.498 211.809H148.185V217.705H152.498V211.809Z" fill="#2A5F73"/>
<path d="M147.645 218.313H143.333V224.21H147.645V218.313Z" fill="#2A5F73"/>
<path d="M152.498 218.313H148.185V224.21H152.498V218.313Z" fill="#2A5F73"/>
<path d="M147.645 224.812H143.333V230.708H147.645V224.812Z" fill="#2A5F73"/>
<path d="M152.498 224.812H148.185V230.708H152.498V224.812Z" fill="#2A5F73"/>
<path d="M140.34 177.563H119.85V190.093H140.34V177.563Z" fill="#2A5F73"/>
<path opacity="0.4" d="M140.34 177.563H119.85V190.093H140.34V177.563Z" fill="white"/>
<path d="M124.973 178.916H121.2V183.558H124.973V178.916Z" fill="#2A5F73"/>
<path d="M129.285 178.916H125.513V183.558H129.285V178.916Z" fill="#2A5F73"/>
<path d="M124.973 184.099H121.2V188.741H124.973V184.099Z" fill="#2A5F73"/>
<path d="M129.285 184.099H125.513V188.741H129.285V184.099Z" fill="#2A5F73"/>
<path d="M119.85 178.104H115.538V189.552H119.85V178.104Z" fill="#2A5F73"/>
<path d="M144.653 178.104H140.34V189.552H144.653V178.104Z" fill="#2A5F73"/>
<path d="M134.678 178.916H130.905V183.558H134.678V178.916Z" fill="#2A5F73"/>
<path d="M138.99 178.916H135.218V183.558H138.99V178.916Z" fill="#2A5F73"/>
<path d="M134.678 184.099H130.905V188.741H134.678V184.099Z" fill="#2A5F73"/>
<path d="M138.99 184.099H135.218V188.741H138.99V184.099Z" fill="#2A5F73"/>
<path d="M175.973 177.563H155.483V190.093H175.973V177.563Z" fill="#2A5F73"/>
<path opacity="0.4" d="M175.973 177.563H155.483V190.093H175.973V177.563Z" fill="white"/>
<path d="M160.605 178.916H156.833V183.558H160.605V178.916Z" fill="#2A5F73"/>
<path d="M164.918 178.916H161.145V183.558H164.918V178.916Z" fill="#2A5F73"/>
<path d="M160.605 184.099H156.833V188.741H160.605V184.099Z" fill="#2A5F73"/>
<path d="M164.918 184.099H161.145V188.741H164.918V184.099Z" fill="#2A5F73"/>
<path d="M155.483 178.104H151.17V189.552H155.483V178.104Z" fill="#2A5F73"/>
<path d="M180.285 178.104H175.973V189.552H180.285V178.104Z" fill="#2A5F73"/>
<path d="M170.31 178.916H166.538V183.558H170.31V178.916Z" fill="#2A5F73"/>
<path d="M174.623 178.916H170.85V183.558H174.623V178.916Z" fill="#2A5F73"/>
<path d="M170.31 184.099H166.538V188.741H170.31V184.099Z" fill="#2A5F73"/>
<path d="M174.623 184.099H170.85V188.741H174.623V184.099Z" fill="#2A5F73"/>
<path d="M119.85 204.298H115.538V215.746H119.85V204.298Z" fill="#2A5F73"/>
<path d="M134.948 204.298H130.635V215.746H134.948V204.298Z" fill="#2A5F73"/>
<path d="M130.635 203.757H119.85V216.286H130.635V203.757Z" fill="#2A5F73"/>
<path opacity="0.4" d="M130.635 203.757H119.85V216.286H130.635V203.757Z" fill="white"/>
<path d="M124.973 205.109H121.2V209.752H124.973V205.109Z" fill="#2A5F73"/>
<path d="M129.285 205.109H125.513V209.752H129.285V205.109Z" fill="#2A5F73"/>
<path d="M124.973 210.292H121.2V214.934H124.973V210.292Z" fill="#2A5F73"/>
<path d="M129.285 210.292H125.513V214.934H129.285V210.292Z" fill="#2A5F73"/>
<path d="M165.188 204.298H160.875V215.746H165.188V204.298Z" fill="#2A5F73"/>
<path d="M180.285 204.298H175.972V215.746H180.285V204.298Z" fill="#2A5F73"/>
<path d="M175.973 203.757H165.188V216.286H175.973V203.757Z" fill="#2A5F73"/>
<path opacity="0.4" d="M175.973 203.757H165.188V216.286H175.973V203.757Z" fill="white"/>
<path d="M170.31 205.109H166.538V209.752H170.31V205.109Z" fill="#2A5F73"/>
<path d="M174.623 205.109H170.85V209.752H174.623V205.109Z" fill="#2A5F73"/>
<path d="M170.31 210.292H166.538V214.934H170.31V210.292Z" fill="#2A5F73"/>
<path d="M174.623 210.292H170.85V214.934H174.623V210.292Z" fill="#2A5F73"/>
<path d="M154.275 168.812V150.656H131.085L140.85 168.812H154.275Z" fill="#2A5F73"/>
<path opacity="0.5" d="M154.275 168.812V150.656H131.085L140.85 168.812H154.275Z" fill="white"/>
<path d="M154.958 154.705H140.873V168.812H154.958V154.705Z" fill="#2A5F73"/>
<path opacity="0.8" d="M154.958 154.705H140.873V168.812H154.958V154.705Z" fill="white"/>
<path d="M150.885 167.107H144.945C144.405 167.107 143.97 166.671 143.97 166.131V165.417H151.853V166.131C151.853 166.671 151.418 167.107 150.885 167.107Z" fill="#2A5F73"/>
<path d="M147.713 160.023H145.418V162.322H147.713V160.023Z" fill="#2A5F73"/>
<path d="M150.413 160.023H148.118V162.322H150.413V160.023Z" fill="#2A5F73"/>
<path d="M147.713 162.721H145.418V165.019H147.713V162.721Z" fill="#2A5F73"/>
<path d="M150.413 162.721H148.118V165.019H150.413V162.721Z" fill="#2A5F73"/>
<path d="M145.418 159.626C145.418 158.244 146.535 157.132 147.908 157.132C149.288 157.132 150.398 158.251 150.398 159.626H145.418Z" fill="#2A5F73"/>
<path d="M145.418 155.509L142.808 150.656H131.085L133.695 155.509H145.418Z" fill="#2A5F73"/>
<path opacity="0.3" d="M145.418 155.509L142.808 150.656H131.085L133.695 155.509H145.418Z" fill="black"/>
<path d="M141.353 150.656L138.743 155.509H157.08L154.47 150.656H141.353Z" fill="#2A5F73"/>
<path d="M101.872 218.419C101.872 218.419 88.695 216.887 87.3375 213.274C86.235 210.344 92.7075 205.394 93.45 202.359C94.0275 200.008 92.4675 194.998 93.1875 192.684C93.825 190.641 97.755 187.847 98.2425 185.759C98.4675 184.767 97.29 182.747 97.53 181.763C98.085 179.524 100.927 174.116 103.2 174.484C106.792 175.062 108.322 184.429 108.45 188.065C108.495 189.432 106.702 191.941 106.837 193.3C107.085 195.742 111.622 199.46 111.532 201.909C111.495 202.938 109.35 204.343 109.32 205.372C109.267 207.227 113.437 210.059 112.95 211.854C112.117 214.964 101.872 218.419 101.872 218.419Z" fill="#2A5F73"/>
<path d="M105.608 199.024L107.258 197.439L107.183 197.259L105.735 198.641C105.525 198.837 105.24 198.927 104.955 198.867L102.405 198.363L102.03 183.588L101.498 183.618L100.875 207.7C100.875 207.7 96.3975 209.067 94.86 209.27C94.05 209.375 91.5825 209.27 91.5825 209.27V209.563C91.5825 209.563 94.1775 209.751 95.04 209.683C95.4675 209.653 96.7275 209.36 96.7275 209.36L95.1 210.93L95.2875 211.141L97.395 209.255L100.868 208.399L100.29 230.716H103.238L102.428 198.799C102.428 198.799 104.738 199.25 105.525 199.272C106.238 199.295 108.368 198.994 108.368 198.994L108.473 198.844L105.608 199.024Z" fill="#2A5F73"/>
</svg>
