<svg width="305" height="301" viewBox="0 0 305 301" fill="none" xmlns="http://www.w3.org/2000/svg">
<path d="M299.982 228.431H155.157C154.022 228.429 152.934 227.944 152.132 227.083C151.329 226.222 150.877 225.055 150.875 223.837V5.47336C150.887 4.26269 151.343 3.1058 152.145 2.25345C152.946 1.4011 154.029 0.921972 155.157 0.919922H299.982C301.109 0.924109 302.189 1.40443 302.988 2.25677C303.787 3.10912 304.24 4.26481 304.25 5.47336V223.837C304.25 225.053 303.801 226.219 303.001 227.08C302.201 227.941 301.116 228.427 299.982 228.431ZM155.157 1.08082C154.072 1.08295 153.032 1.54641 152.264 2.36972C151.497 3.19302 151.064 4.30904 151.062 5.47336V223.837C151.064 225.002 151.497 226.118 152.264 226.941C153.032 227.764 154.072 228.228 155.157 228.23H299.982C301.068 228.228 302.108 227.764 302.876 226.941C303.643 226.118 304.076 225.002 304.077 223.837V5.47336C304.076 4.30904 303.643 3.19302 302.876 2.36972C302.108 1.54641 301.068 1.08295 299.982 1.08082H155.157Z" fill="#EBEBEB"/>
<path d="M106.97 194.538H57.1701L54.1476 157.129H103.948L106.97 194.538Z" fill="#E6E6E6"/>
<path d="M109.55 194.538H59.7499L56.7274 157.129H106.527L109.55 194.538Z" fill="#F0F0F0"/>
<path d="M66.5601 186.5L64.8951 165.157H99.7176L101.383 186.5H66.5601Z" fill="white"/>
<path d="M118.167 194.538H112.325V264.312H118.167V194.538Z" fill="#E6E6E6"/>
<path d="M120.012 194.538H115.955V264.312H120.012V194.538Z" fill="#F0F0F0"/>
<path d="M63.4551 202.237H120.013V194.538H63.4551V202.237Z" fill="#F0F0F0"/>
<path d="M65.4502 202.237H59.6077V264.312H65.4502V202.237Z" fill="#E6E6E6"/>
<path d="M67.2949 202.237H63.2374V264.312H67.2949V202.237Z" fill="#F0F0F0"/>
<path d="M23.8626 202.237H18.0201V264.312H23.8626V202.237Z" fill="#E6E6E6"/>
<path d="M25.7075 202.237H21.65V264.312H25.7075V202.237Z" fill="#F0F0F0"/>
<path d="M81.1926 202.237H75.3501V264.312H81.1926V202.237Z" fill="#E6E6E6"/>
<path d="M83.03 202.237H78.9725V264.312H83.03V202.237Z" fill="#F0F0F0"/>
<path d="M63.4551 194.538H18.0201V202.237H63.4551V194.538Z" fill="#E6E6E6"/>
<path d="M232.88 20.5576H57.1323V125.512H232.88V20.5576Z" fill="#E0E0E0"/>
<path d="M242.532 20.5576H58.0172V125.512H242.532V20.5576Z" fill="#F5F5F5"/>
<path d="M239.518 122.278V23.792L61.0326 23.792V122.278L239.518 122.278Z" fill="white"/>
<path d="M133.303 122.278L167 23.792H111.388L77.6901 122.278H133.303Z" fill="#F5F5F5"/>
<path d="M186.83 122.278L220.527 23.792H178.572L144.875 122.278H186.83Z" fill="#F5F5F5"/>
<path d="M288.583 164.071H273.643V264.311H288.583V164.071Z" fill="#E6E6E6"/>
<path d="M284.652 264.312H288.582V256.597H280.535L284.652 264.312Z" fill="#FAFAFA"/>
<path d="M150.837 164.071H135.897V264.311H150.837V164.071Z" fill="#E6E6E6"/>
<path d="M288.582 164.071H147.41V262.228H288.582V164.071Z" fill="#FAFAFA"/>
<path d="M285.912 195.744H150.087V168.021H285.912V195.744ZM150.837 194.94H285.162V168.826H150.837V194.94Z" fill="#E6E6E6"/>
<path d="M262.003 181.481H176.63C172.67 181.481 168.853 178.054 166.13 172.068L165.875 171.497H272.75L272.495 172.068C269.75 178.054 266 181.481 262.003 181.481ZM167.105 172.277C169.64 177.611 173.105 180.652 176.63 180.652H262.003C265.543 180.652 268.993 177.611 271.528 172.277H167.105Z" fill="#E6E6E6"/>
<path d="M151.34 264.312H147.41V256.597H155.457L151.34 264.312Z" fill="#FAFAFA"/>
<path d="M285.912 226.983H150.087V199.292H285.912V226.983ZM150.837 226.178H285.162V200.096H150.837V226.178Z" fill="#E6E6E6"/>
<path d="M262.003 212.752H176.63C172.67 212.752 168.853 209.316 166.13 203.339L165.875 202.76H272.75L272.495 203.339C269.75 209.284 266 212.752 262.003 212.752ZM167.105 203.564C169.64 208.898 173.105 211.947 176.63 211.947H262.003C265.543 211.947 268.993 208.898 271.528 203.564H167.105Z" fill="#E6E6E6"/>
<path d="M285.912 258.278H150.087V230.555H285.912V258.278ZM150.837 257.473H285.162V231.359H150.837V257.473Z" fill="#E6E6E6"/>
<path d="M262.003 244.014H176.63C172.67 244.014 168.853 240.587 166.13 234.61L165.875 234.03H272.75L272.495 234.61C269.75 240.587 266 244.014 262.003 244.014ZM167.105 234.835C169.64 240.169 173.105 243.21 176.63 243.21H262.003C265.543 243.21 268.993 240.169 271.528 234.835H167.105Z" fill="#E6E6E6"/>
<path d="M50.7351 177.33V179.277H49.5801L48.6201 194.538H34.4901L33.5376 179.277H32.3751V177.33H50.7351Z" fill="#E6E6E6"/>
<path d="M46.0853 139.463C44.9303 130.372 33.4928 127.781 18.9803 127.444C5.1728 127.13 0.747803 121.893 0.747803 121.893C0.747803 121.893 0.792799 143.107 20.6903 150.798C39.5828 158.087 47.2478 148.57 46.0853 139.463Z" fill="#E6E6E6"/>
<path d="M39.0349 160.065C39.2749 156.332 44.8399 149.462 58.2274 152.583C67.9024 154.844 71.5024 149.462 71.5024 149.462C71.5024 149.462 70.6025 164.651 56.0525 169.212C42.23 173.548 38.6074 166.646 39.0349 160.065Z" fill="#E6E6E6"/>
<path d="M42.0878 183.058C42.1631 183.059 42.2378 183.042 42.3064 183.008C42.3751 182.975 42.4361 182.926 42.4853 182.865C43.4528 181.634 42.6578 178.689 41.5628 174.611C40.1528 169.381 38.3978 162.865 39.8828 158.143C40.7059 155.648 41.6676 153.209 42.7628 150.838C44.8628 146.075 46.6778 141.988 45.1628 137.66C45.1391 137.591 45.103 137.528 45.0565 137.474C45.0099 137.421 44.9539 137.377 44.8917 137.347C44.8294 137.316 44.7622 137.3 44.6938 137.297C44.6254 137.295 44.5573 137.307 44.4934 137.333C44.4294 137.359 44.3709 137.398 44.3213 137.449C44.2716 137.499 44.2318 137.56 44.204 137.627C44.1763 137.694 44.1613 137.766 44.1598 137.84C44.1583 137.913 44.1703 137.986 44.1953 138.054C45.5528 141.908 43.9103 145.641 41.8253 150.371C40.7162 152.78 39.7395 155.257 38.9003 157.789C37.3178 162.841 39.1178 169.542 40.5653 174.916C41.4203 178.134 42.3053 181.352 41.6978 182.157C41.6495 182.212 41.6126 182.278 41.5894 182.35C41.5661 182.421 41.557 182.498 41.5626 182.573C41.5683 182.649 41.5885 182.722 41.6221 182.789C41.6557 182.856 41.7019 182.915 41.7578 182.961C41.8536 183.035 41.9706 183.069 42.0878 183.058Z" fill="#E6E6E6"/>
<path d="M147.5 300.642C227.812 300.642 292.918 296.565 292.918 291.536C292.918 286.506 227.812 282.429 147.5 282.429C67.1883 282.429 2.08264 286.506 2.08264 291.536C2.08264 296.565 67.1883 300.642 147.5 300.642Z" fill="#F5F5F5"/>
<path d="M147.47 247.136H40.97L35.1425 63.4131H141.642L147.47 247.136Z" fill="#2A5F73"/>
<path d="M152.788 241.432H46.2875L40.4525 57.709H146.953L152.788 241.432Z" fill="#2A5F73"/>
<path opacity="0.3" d="M152.788 241.432H46.2875L40.4525 57.709H146.953L152.788 241.432Z" fill="white"/>
<path d="M117.105 133.31C128.508 120.867 128.023 100.521 116.021 87.8661C104.019 75.2108 85.0461 75.0385 73.6429 87.4812C62.2398 99.9239 62.7249 120.27 74.7265 132.925C86.7281 145.58 105.701 145.753 117.105 133.31Z" fill="#2A5F73"/>
<path d="M120.103 110.403C120.256 114.781 119.365 119.129 117.515 123.034C115.518 127.243 112.467 130.772 108.705 133.224C104.943 135.677 100.618 136.957 96.215 136.92C91.7091 136.894 87.2887 135.597 83.3975 133.16C79.5062 130.723 76.2809 127.231 74.045 123.034C71.9603 119.189 70.7956 114.849 70.655 110.403C70.5167 106.956 71.0331 103.515 72.173 100.288C73.3129 97.062 75.0525 94.1177 77.286 91.6347C79.5194 89.1517 82.2002 87.1816 85.1655 85.8442C88.1307 84.5069 91.3184 83.8302 94.535 83.8552C101.161 83.9055 107.515 86.6919 112.276 91.6358C117.038 96.5797 119.84 103.301 120.103 110.403Z" fill="white"/>
<path opacity="0.6" d="M117.5 123.034C115.503 127.243 112.452 130.771 108.69 133.224C104.927 135.677 100.602 136.956 96.1998 136.919C91.6938 136.893 87.2735 135.597 83.3822 133.159C79.491 130.722 76.2656 127.23 74.0298 123.034C80.3727 118.395 87.8781 115.929 95.5548 115.962C103.355 115.98 110.981 118.438 117.5 123.034Z" fill="#2A5F73"/>
<path opacity="0.6" d="M103.079 109.741C107.272 105.166 107.093 97.6844 102.68 93.031C98.267 88.3775 91.2904 88.3142 87.0973 92.8895C82.9043 97.4648 83.0826 104.946 87.4957 109.6C91.9088 114.253 98.8855 114.316 103.079 109.741Z" fill="#2A5F73"/>
<path d="M131.39 174.9H63.4549L62.9974 160.419H130.932L131.39 174.9Z" fill="white"/>
<path d="M132.215 200.781H64.2726L63.8151 186.3H131.758L132.215 200.781Z" fill="white"/>
<path d="M105.995 188.295L89.6224 190.708C89.4662 190.727 89.3153 190.781 89.1793 190.865C89.0433 190.95 88.9251 191.064 88.8321 191.2C88.7392 191.336 88.6734 191.491 88.639 191.656C88.6047 191.82 88.6024 191.991 88.6324 192.156L90.7849 203.926C90.8553 204.271 91.0437 204.576 91.3129 204.78C91.5822 204.984 91.9128 205.072 92.2399 205.028L108.612 202.615C108.768 202.593 108.918 202.538 109.054 202.452C109.189 202.366 109.306 202.252 109.398 202.115C109.49 201.979 109.555 201.823 109.589 201.659C109.623 201.494 109.625 201.324 109.595 201.158L107.45 189.389C107.379 189.044 107.191 188.74 106.921 188.537C106.652 188.335 106.321 188.248 105.995 188.295ZM101.292 200.217L98.2924 200.644L97.9999 196.846C97.6907 196.703 97.4183 196.482 97.2055 196.202C96.9928 195.922 96.8459 195.591 96.7774 195.237C96.7222 194.963 96.7214 194.68 96.7748 194.406C96.8282 194.131 96.9346 193.872 97.0873 193.644C97.24 193.417 97.4355 193.226 97.6612 193.085C97.8868 192.944 98.1376 192.855 98.3974 192.824C98.9301 192.75 99.4691 192.894 99.9079 193.226C100.347 193.558 100.653 194.055 100.767 194.618C100.832 194.958 100.812 195.31 100.71 195.639C100.607 195.969 100.425 196.263 100.182 196.492L101.292 200.217Z" fill="#2A5F73"/>
<path d="M104.375 187.658C104.085 187.698 103.792 187.62 103.554 187.44C103.315 187.26 103.148 186.99 103.085 186.685L102.875 185.534C102.575 183.964 101.755 182.564 100.566 181.594C99.3769 180.623 97.9003 180.148 96.4097 180.257C95.6576 180.303 94.9234 180.522 94.2572 180.899C93.591 181.276 93.0083 181.803 92.5486 182.443C92.089 183.084 91.7632 183.823 91.5935 184.61C91.4237 185.397 91.4139 186.215 91.5647 187.006L91.8047 188.334C91.8327 188.481 91.8317 188.633 91.8018 188.779C91.7719 188.926 91.7138 189.064 91.6312 189.186C91.5486 189.307 91.4433 189.408 91.3221 189.483C91.2009 189.558 91.0664 189.605 90.9272 189.621C90.6372 189.664 90.3427 189.588 90.1032 189.407C89.8637 189.227 89.6972 188.955 89.6372 188.648L89.4347 187.529C89.2288 186.484 89.222 185.405 89.4146 184.357C89.6073 183.309 89.9956 182.314 90.556 181.431C91.1165 180.548 91.8376 179.796 92.6759 179.219C93.5143 178.643 94.4527 178.254 95.4347 178.077C97.5639 177.693 99.749 178.204 101.537 179.502C103.324 180.801 104.577 182.788 105.035 185.052L105.275 186.371C105.303 186.52 105.301 186.673 105.27 186.822C105.239 186.97 105.179 187.109 105.094 187.231C105.009 187.352 104.901 187.453 104.777 187.527C104.653 187.601 104.516 187.645 104.375 187.658Z" fill="#2A5F73"/>
<path d="M121.003 221.061H76.7752L76.4827 211.633H120.703L121.003 221.061Z" fill="#2A5F73"/>
<path d="M99.665 167.659C99.6782 168.002 99.6261 168.346 99.512 168.667C99.3979 168.989 99.2241 169.283 99.0011 169.53C98.7781 169.778 98.5105 169.974 98.2147 170.107C97.9188 170.24 97.6008 170.308 97.28 170.305C96.6187 170.3 95.9846 170.022 95.5086 169.53C95.0327 169.037 94.7513 168.367 94.7225 167.659C94.7093 167.315 94.7613 166.971 94.8754 166.65C94.9895 166.328 95.1634 166.035 95.3864 165.787C95.6094 165.54 95.8769 165.343 96.1728 165.21C96.4686 165.077 96.7866 165.009 97.1075 165.012C97.7693 165.015 98.4044 165.292 98.8808 165.785C99.3571 166.278 99.638 166.949 99.665 167.659Z" fill="#263238"/>
<path d="M88.9999 167.659C89.0142 168.003 88.9629 168.346 88.8492 168.669C88.7354 168.991 88.5616 169.285 88.3384 169.533C88.1152 169.78 87.8472 169.977 87.5509 170.109C87.2545 170.242 86.9361 170.309 86.6149 170.305C85.9543 170.3 85.3211 170.022 84.8464 169.529C84.3716 169.036 84.0918 168.367 84.0649 167.659C84.0517 167.315 84.1037 166.971 84.2178 166.65C84.3319 166.328 84.5058 166.035 84.7288 165.787C84.9518 165.54 85.2193 165.343 85.5152 165.21C85.811 165.077 86.129 165.009 86.4499 165.012C87.111 165.015 87.7453 165.293 88.2204 165.786C88.6955 166.279 88.9748 166.95 88.9999 167.659Z" fill="#263238"/>
<path d="M78.4023 167.659C78.4156 168.002 78.3635 168.346 78.2494 168.667C78.1353 168.989 77.9615 169.283 77.7384 169.53C77.5154 169.778 77.2479 169.974 76.9521 170.107C76.6562 170.24 76.3382 170.308 76.0173 170.305C75.3562 170.302 74.7219 170.024 74.2468 169.531C73.7717 169.038 73.4925 168.367 73.4673 167.659C73.4541 167.315 73.5062 166.971 73.6203 166.65C73.7344 166.328 73.9082 166.035 74.1312 165.787C74.3543 165.54 74.6218 165.343 74.9176 165.21C75.2135 165.077 75.5315 165.009 75.8523 165.012C76.5135 165.015 77.1477 165.293 77.6229 165.786C78.098 166.279 78.3772 166.95 78.4023 167.659Z" fill="#263238"/>
<path d="M110.292 167.659C110.306 168.003 110.254 168.346 110.139 168.668C110.025 168.989 109.852 169.283 109.629 169.53C109.405 169.778 109.138 169.974 108.842 170.108C108.546 170.241 108.228 170.308 107.907 170.306C107.246 170.302 106.612 170.025 106.137 169.532C105.662 169.039 105.383 168.368 105.357 167.659C105.346 167.316 105.4 166.974 105.516 166.654C105.631 166.335 105.806 166.043 106.03 165.798C106.254 165.553 106.521 165.359 106.817 165.228C107.113 165.097 107.43 165.032 107.75 165.036C108.406 165.042 109.035 165.317 109.508 165.804C109.981 166.292 110.262 166.956 110.292 167.659Z" fill="#263238"/>
<path d="M120.92 167.659C120.934 168.003 120.883 168.346 120.769 168.669C120.655 168.991 120.481 169.285 120.258 169.533C120.035 169.78 119.767 169.977 119.471 170.109C119.174 170.242 118.856 170.309 118.535 170.305C117.874 170.3 117.241 170.022 116.766 169.529C116.291 169.036 116.012 168.367 115.985 167.659C115.971 167.315 116.024 166.971 116.138 166.65C116.252 166.328 116.426 166.035 116.649 165.787C116.872 165.54 117.139 165.343 117.435 165.21C117.731 165.077 118.049 165.009 118.37 165.012C119.031 165.015 119.665 165.293 120.14 165.786C120.615 166.279 120.895 166.95 120.92 167.659Z" fill="#263238"/>
<path d="M210.432 96.8799C211.43 98.6015 212.262 100.243 213.117 101.956C213.972 103.67 214.745 105.391 215.502 107.153C217.048 110.721 218.327 114.414 219.327 118.199C219.462 118.674 219.56 119.18 219.672 119.671L219.837 120.419L219.92 120.789L220.017 121.401C220.187 122.788 220.108 124.197 219.785 125.552C219.267 127.656 218.48 129.673 217.445 131.546C215.594 134.948 213.357 138.09 210.785 140.902L207.627 138.344C209.212 135.218 210.622 131.995 211.85 128.69C212.397 127.233 212.782 125.713 212.997 124.16C213.066 123.686 213.046 123.202 212.937 122.736L212.637 121.755C212.517 121.353 212.405 120.95 212.262 120.54C211.122 117.221 209.802 113.976 208.31 110.822C206.81 107.604 205.197 104.386 203.585 101.313L210.432 96.8799Z" fill="#FF8B7B"/>
<path d="M208.43 137.226L204.98 139.181L208.94 144.152C208.94 144.152 211.415 142.358 211.527 139.623L208.43 137.226Z" fill="#FF8B7B"/>
<path d="M200.353 142.246L204.59 145.858L208.94 144.152L204.98 139.181L200.353 142.246Z" fill="#FF8B7B"/>
<path d="M185.862 70.5569C185.78 71.0074 185.487 71.3211 185.217 71.2648C184.947 71.2085 184.79 70.7902 184.872 70.3477C184.955 69.9052 185.247 69.5432 185.525 69.6397C185.802 69.7363 185.945 70.1063 185.862 70.5569Z" fill="#263238"/>
<path d="M185.525 71.3291C184.77 72.5892 183.856 73.7316 182.81 74.7241C183.057 74.9987 183.356 75.2128 183.688 75.3517C184.019 75.4905 184.375 75.5509 184.73 75.5286L185.525 71.3291Z" fill="#FF5652"/>
<path d="M184.175 87.1134V81.8359L190.685 82.6404C190.685 82.6404 190.58 87.1778 186.935 88.5132L184.175 87.1134Z" fill="#FF8B7B"/>
<path d="M186.05 78.0391L190.633 79.455L190.715 82.681L184.205 81.8363L186.05 78.0391Z" fill="#FF8B7B"/>
<path opacity="0.2" d="M190.632 79.455L186.05 78.0391L185.157 79.8733C185.206 81.3186 185.627 82.7212 186.374 83.9254C187.121 85.1296 188.164 86.0884 189.387 86.6954C190.175 85.5157 190.635 84.1212 190.715 82.6729L190.632 79.455Z" fill="black"/>
<path d="M187.857 68.4093C187.905 68.4079 187.952 68.392 187.992 68.3634C188.032 68.3347 188.064 68.2945 188.083 68.2474C188.103 68.2003 188.11 68.1482 188.103 68.0971C188.096 68.0461 188.076 67.9981 188.045 67.9588C187.781 67.6397 187.451 67.3928 187.08 67.2389C186.71 67.0849 186.31 67.0284 185.915 67.0739C185.85 67.0857 185.793 67.1245 185.755 67.1818C185.717 67.2391 185.702 67.3102 185.712 67.3796C185.723 67.4494 185.759 67.5119 185.813 67.5539C185.866 67.5959 185.932 67.6142 185.997 67.6048C186.31 67.5719 186.626 67.6197 186.918 67.7442C187.211 67.8688 187.471 68.0665 187.677 68.3208C187.7 68.3477 187.728 68.3694 187.759 68.3846C187.79 68.3998 187.823 68.4082 187.857 68.4093Z" fill="#263238"/>
<path d="M197.442 78.6982C196.692 82.8414 196.227 88.5774 198.942 91.3369C198.942 91.3369 197.892 95.5363 190.692 95.5363C182.81 95.5363 186.905 91.8517 186.905 91.8517C190.182 90.7576 190.152 86.7593 189.402 83.5413L197.442 78.6982Z" fill="#FF8B7B"/>
<path d="M200.405 94.1046C201.11 93.0426 201.08 89.6718 200.33 89.0765C199.122 88.1191 193.94 87.8939 186.972 89.6155C187.722 92.8817 186.11 94.5873 186.11 94.5873L200.405 94.1046Z" fill="#2A5F73"/>
<path d="M223.85 285.1C223.636 285.181 223.409 285.216 223.183 285.202C222.956 285.188 222.734 285.126 222.53 285.02C222.453 284.943 222.4 284.842 222.378 284.731C222.357 284.62 222.368 284.504 222.41 284.4C222.434 284.313 222.475 284.233 222.53 284.165C222.586 284.097 222.655 284.043 222.733 284.006C223.445 283.636 225.08 284.352 225.155 284.384C225.177 284.394 225.197 284.411 225.21 284.432C225.223 284.454 225.23 284.479 225.23 284.505C225.23 284.531 225.224 284.556 225.212 284.579C225.2 284.601 225.183 284.62 225.163 284.634C224.74 284.833 224.3 284.989 223.85 285.1ZM222.988 284.191C222.938 284.204 222.89 284.223 222.845 284.248C222.798 284.266 222.756 284.296 222.722 284.335C222.688 284.374 222.664 284.421 222.65 284.473C222.583 284.714 222.65 284.795 222.695 284.819C222.98 285.076 224.03 284.819 224.773 284.521C224.208 284.27 223.598 284.158 222.988 284.191Z" fill="#2A5F73"/>
<path d="M225.132 284.641H225.072C224.472 284.456 223.197 283.483 223.182 282.847C223.182 282.746 223.214 282.648 223.272 282.569C223.331 282.49 223.413 282.435 223.505 282.413C223.594 282.377 223.689 282.363 223.784 282.371C223.878 282.38 223.97 282.41 224.052 282.461C224.757 282.847 225.207 284.408 225.222 284.481C225.233 284.5 225.238 284.522 225.238 284.545C225.238 284.567 225.233 284.59 225.222 284.609C225.211 284.622 225.197 284.631 225.181 284.637C225.165 284.642 225.149 284.644 225.132 284.641ZM223.632 282.638H223.572C223.422 282.695 223.422 282.775 223.422 282.815C223.422 283.193 224.277 283.958 224.922 284.263C224.765 283.813 224.42 282.92 223.962 282.654C223.861 282.605 223.745 282.599 223.64 282.638H223.632Z" fill="#2A5F73"/>
<path d="M184.895 286.049C184.22 286.049 183.568 285.945 183.35 285.623C183.293 285.537 183.263 285.434 183.263 285.329C183.263 285.224 183.293 285.121 183.35 285.036C183.393 284.957 183.45 284.889 183.519 284.835C183.587 284.781 183.665 284.742 183.748 284.722C184.625 284.464 186.47 285.591 186.545 285.639C186.568 285.651 186.587 285.671 186.598 285.696C186.608 285.721 186.611 285.749 186.605 285.776C186.602 285.803 186.591 285.829 186.574 285.849C186.556 285.87 186.533 285.883 186.508 285.888C185.976 285.993 185.436 286.047 184.895 286.049ZM184.063 284.947C183.983 284.933 183.902 284.933 183.823 284.947C183.772 284.958 183.724 284.98 183.681 285.012C183.639 285.044 183.602 285.085 183.575 285.132C183.485 285.301 183.523 285.381 183.575 285.43C183.823 285.8 185.15 285.808 186.133 285.655C185.491 285.279 184.788 285.039 184.063 284.947Z" fill="#2A5F73"/>
<path d="M186.5 285.889H186.447C185.81 285.583 184.55 284.36 184.647 283.716C184.647 283.564 184.767 283.379 185.112 283.346C185.235 283.331 185.36 283.343 185.479 283.382C185.598 283.42 185.708 283.485 185.802 283.572C186.283 284.188 186.571 284.951 186.627 285.752C186.627 285.775 186.622 285.797 186.613 285.818C186.604 285.839 186.591 285.858 186.575 285.873C186.552 285.885 186.526 285.891 186.5 285.889ZM185.21 283.596H185.135C184.91 283.596 184.895 283.708 184.895 283.741C184.835 284.127 185.69 285.092 186.342 285.511C186.285 284.865 186.041 284.255 185.645 283.765C185.521 283.652 185.364 283.592 185.202 283.596H185.21Z" fill="#2A5F73"/>
<path d="M192.29 285.76H187.017L186.492 272.654H191.765L192.29 285.76Z" fill="#FF8B7B"/>
<path d="M231.012 283.137L225.86 284.336L220.677 272.131L225.837 270.933L231.012 283.137Z" fill="#FF8B7B"/>
<path d="M225.358 283.78L231.155 282.436C231.256 282.413 231.362 282.428 231.455 282.478C231.547 282.527 231.622 282.609 231.665 282.71L233.675 287.392C233.729 287.506 233.756 287.631 233.756 287.758C233.756 287.885 233.727 288.01 233.673 288.123C233.619 288.236 233.541 288.334 233.444 288.408C233.348 288.482 233.237 288.531 233.12 288.551C231.095 288.977 230.083 289.082 227.54 289.669C225.973 290.039 222.433 290.964 220.265 291.463C218.098 291.962 217.355 289.733 218.203 289.323C221.99 287.465 223.565 285.831 224.593 284.311C224.778 284.039 225.051 283.851 225.358 283.78Z" fill="#263238"/>
<path d="M187.055 285.1H192.815C192.919 285.1 193.021 285.139 193.102 285.209C193.184 285.279 193.241 285.377 193.265 285.486L194.307 290.514C194.338 290.635 194.341 290.763 194.318 290.886C194.294 291.009 194.244 291.125 194.171 291.224C194.098 291.322 194.004 291.401 193.898 291.454C193.791 291.507 193.674 291.532 193.557 291.528C191.48 291.487 188.48 291.359 185.87 291.359C182.81 291.359 180.177 291.536 176.592 291.536C174.425 291.536 173.825 289.186 174.732 288.969C178.857 288.004 182.232 287.899 185.795 285.542C186.169 285.273 186.605 285.12 187.055 285.1Z" fill="#263238"/>
<path d="M208.377 92.6328C213.32 93.8475 217.377 107.387 217.377 107.387L207.5 115.488C204.936 112.548 203.127 108.945 202.25 105.03C200.502 97.9344 203.322 91.3777 208.377 92.6328Z" fill="#2A5F73"/>
<path opacity="0.4" d="M208.377 92.6328C213.32 93.8475 217.377 107.387 217.377 107.387L207.5 115.488C204.936 112.548 203.127 108.945 202.25 105.03C200.502 97.9344 203.322 91.3777 208.377 92.6328Z" fill="black"/>
<path d="M182.375 108.779C181.145 110.202 179.915 111.474 178.625 112.801C177.987 113.445 177.342 114.088 176.682 114.708L175.685 115.649L175.437 115.882L175.01 116.252C174.57 116.629 174.083 116.938 173.562 117.169C172.984 117.433 172.361 117.57 171.732 117.572C171.195 117.574 170.662 117.473 170.157 117.274C169.598 117.045 169.088 116.698 168.657 116.252C168.108 115.676 167.705 114.959 167.487 114.169C167.374 113.779 167.301 113.377 167.27 112.97C167.231 112.494 167.231 112.014 167.27 111.538C167.307 111.152 167.352 110.814 167.412 110.5C167.618 109.403 167.909 108.327 168.282 107.282C168.62 106.289 169.008 105.317 169.445 104.37C169.925 103.348 170.382 102.6 170.84 101.747C172.698 98.482 174.819 95.3971 177.177 92.5277C179.512 89.6753 182.086 87.0578 184.865 84.708L187.625 87.7571C185.69 90.5406 183.785 93.5253 182.022 96.4617C180.268 99.3814 178.666 102.403 177.222 105.512C176.9 106.268 176.472 107.121 176.27 107.733C176.002 108.443 175.769 109.168 175.572 109.905C175.383 110.568 175.241 111.246 175.145 111.932C175.14 112.039 175.14 112.147 175.145 112.254C175.145 112.318 175.145 112.35 175.145 112.182C175.133 112.001 175.1 111.823 175.047 111.651C174.885 111.08 174.588 110.565 174.185 110.154C173.826 109.801 173.406 109.527 172.947 109.35C172.545 109.186 172.118 109.102 171.687 109.1C171.273 109.095 170.863 109.18 170.48 109.35C170.35 109.406 170.225 109.474 170.105 109.551L170.39 109.269L171.297 108.384L173.09 106.582C174.275 105.384 175.467 104.104 176.592 102.914L182.375 108.779Z" fill="#FF8B7B"/>
<path opacity="0.2" d="M204.14 102.576C206.825 105.424 207.702 110.621 207.89 115.126L207.455 115.488C204.891 112.548 203.082 108.944 202.205 105.03C202.107 104.612 202.017 104.225 201.95 103.767L204.14 102.576Z" fill="black"/>
<path d="M177.133 98.2641C176.053 104.378 175.378 116.936 178.505 141.795H206.75C206.945 137.153 204.223 114.483 208.4 92.5924C205.279 91.9496 202.122 91.5223 198.95 91.3133C194.953 91.0674 190.947 91.0674 186.95 91.3133C185.63 91.442 184.325 91.6512 183.2 91.8684C181.704 92.15 180.323 92.9122 179.239 94.0543C178.156 95.1963 177.421 96.6644 177.133 98.2641Z" fill="#2A5F73"/>
<path opacity="0.4" d="M177.133 98.2641C176.053 104.378 175.378 116.936 178.505 141.795H206.75C206.945 137.153 204.223 114.483 208.4 92.5924C205.279 91.9496 202.122 91.5223 198.95 91.3133C194.953 91.0674 190.947 91.0674 186.95 91.3133C185.63 91.442 184.325 91.6512 183.2 91.8684C181.704 92.15 180.323 92.9122 179.239 94.0543C178.156 95.1963 177.421 96.6644 177.133 98.2641Z" fill="black"/>
<path opacity="0.2" d="M181.453 107.331L176.353 106.02C176.195 109.334 176.18 113.437 176.405 118.513C178.753 115.649 181.753 111.176 181.453 107.331Z" fill="black"/>
<path opacity="0.2" d="M186.492 272.654L186.762 279.412H192.042L191.772 272.654H186.492Z" fill="black"/>
<path opacity="0.2" d="M225.837 270.933L220.677 272.131L223.347 278.422L228.507 277.224L225.837 270.933Z" fill="black"/>
<path d="M199.947 72.6483C198.597 78.0706 198.057 81.3207 194.937 83.5733C190.25 87.0005 184.4 83.0745 184.25 77.3465C184.085 72.1736 186.327 64.1689 191.75 63.0748C192.942 62.8349 194.17 62.9244 195.321 63.335C196.471 63.7455 197.505 64.4635 198.325 65.4213C199.146 66.3791 199.725 67.5452 200.009 68.8096C200.292 70.074 200.271 71.395 199.947 72.6483Z" fill="#FF8B7B"/>
<path d="M188.113 72.8502C187.858 72.1262 186.695 66.5188 187.79 65.0627C188.885 63.6066 201.373 64.6605 203.218 66.6073C206.285 69.8253 204.155 72.7215 200.803 76.4463C198.283 79.246 198.185 82.3996 196.91 82.8823C194.66 83.6868 191.225 82.9305 190.535 80.3803C189.845 77.83 188.113 72.8502 188.113 72.8502Z" fill="#263238"/>
<path d="M201.703 60.2274C197.293 58.2162 189.02 60.4446 184.55 59.2861C184.493 61.069 185.04 62.8138 186.089 64.1979C187.138 65.5821 188.619 66.5122 190.258 66.8162C193.966 67.5742 197.733 67.9487 201.508 67.9345C206.413 67.6931 205.453 61.941 201.703 60.2274Z" fill="#263238"/>
<path d="M202.392 66.7757C204.003 66.9457 205.626 66.6133 207.065 65.8184C207.89 67.9583 203.352 68.5456 202.392 66.7757Z" fill="#263238"/>
<path d="M190.513 73.0754C190.411 74.4706 189.884 75.7911 189.013 76.8324C187.858 78.192 186.658 77.3392 186.455 75.69C186.275 74.1937 186.65 71.6675 188.06 70.9435C189.47 70.2195 190.61 71.394 190.513 73.0754Z" fill="#FF8B7B"/>
<path d="M188.517 141.819C188.517 141.819 194.517 185.06 197.795 201.263C201.387 219.002 220.692 277.69 220.692 277.69L230.135 275.494C230.135 275.494 216.635 227.658 213.635 202.856C211.31 183.805 206.742 141.803 206.742 141.803L188.517 141.819Z" fill="#2A5F73"/>
<path d="M218.428 274.319C218.39 274.319 220.19 277.988 220.19 277.988L230.81 275.518L229.918 272.091L218.428 274.319Z" fill="#263238"/>
<path opacity="0.3" d="M192.305 157.226C199.228 158.682 198.493 186.373 197.66 200.62C195.665 190.548 192.74 171.176 190.745 157.427C191.228 157.171 191.779 157.1 192.305 157.226Z" fill="black"/>
<path d="M178.505 141.819C178.505 141.819 177.755 184.128 178.355 201.352C178.955 219.3 184.797 278.069 184.797 278.069H193.737C193.737 278.069 194.06 220.346 194.487 202.72C194.922 183.508 197.082 141.787 197.082 141.787L178.505 141.819Z" fill="#2A5F73"/>
<path d="M183.08 274.287C183.035 274.287 183.582 278.261 183.582 278.261H194.45L194.75 274.713L183.08 274.287Z" fill="#263238"/>
<path d="M188.187 100.146C190.715 107.459 175.857 116.075 175.857 116.075L169.422 107.226C169.422 107.226 173.75 98.0387 179 93.9036C185.487 88.8031 186.26 94.5794 188.187 100.146Z" fill="#2A5F73"/>
<path opacity="0.4" d="M188.187 100.146C190.715 107.459 175.857 116.075 175.857 116.075L169.422 107.226C169.422 107.226 173.75 98.0387 179 93.9036C185.487 88.8031 186.26 94.5794 188.187 100.146Z" fill="black"/>
<path d="M246.402 44.6279C261.351 44.6279 273.47 36.3436 273.47 26.1245C273.47 15.9053 261.351 7.62109 246.402 7.62109C231.453 7.62109 219.335 15.9053 219.335 26.1245C219.335 36.3436 231.453 44.6279 246.402 44.6279Z" fill="#2A5F73"/>
<path d="M236.638 35.4406C234.854 35.4344 233.13 34.7544 231.768 33.5199C230.406 32.2855 229.493 30.5757 229.19 28.6909C228.892 26.6493 229.321 24.562 230.393 22.8447C231.464 21.1273 233.099 19.9057 234.973 19.4231C236.51 19.0431 238.119 19.1896 239.575 19.8418C241.031 20.4941 242.259 21.6194 243.088 23.0594L260.465 19.2139C261.133 19.057 261.831 19.1762 262.421 19.5475C263.01 19.9189 263.447 20.5151 263.645 21.2171C263.736 21.5862 263.756 21.9713 263.703 22.3489C263.651 22.7265 263.527 23.0886 263.34 23.4131C263.152 23.7377 262.905 24.0178 262.613 24.2364C262.321 24.455 261.991 24.6075 261.643 24.6845L261.193 24.781C261.126 24.7939 261.063 24.8231 261.008 24.8663C260.953 24.9096 260.909 24.9657 260.878 25.0304C260.85 25.0961 260.835 25.1675 260.835 25.2396C260.835 25.3117 260.85 25.383 260.878 25.4488L261.185 26.3015C261.288 26.5779 261.298 26.8842 261.213 27.1677C261.128 27.4511 260.954 27.6939 260.72 27.8542C260.536 27.9764 260.38 28.1421 260.264 28.3386C260.148 28.5352 260.076 28.7575 260.053 28.9885C260.03 29.2537 259.931 29.5047 259.768 29.7055C259.605 29.9063 259.387 30.0468 259.145 30.1068L258.793 30.1872C258.548 30.2357 258.296 30.1994 258.072 30.0837C257.848 29.968 257.664 29.7788 257.548 29.5436C257.392 29.263 257.158 29.0415 256.88 28.91C256.601 28.7785 256.291 28.7435 255.993 28.8099C255.695 28.8763 255.424 29.0409 255.217 29.2805C255.01 29.5202 254.879 29.8231 254.84 30.147C254.819 30.4105 254.721 30.6601 254.559 30.8597C254.397 31.0592 254.18 31.1984 253.94 31.2572L253.588 31.3377C253.343 31.3848 253.091 31.348 252.868 31.2324C252.644 31.1168 252.46 30.9284 252.343 30.6941C252.23 30.4945 252.079 30.3236 251.899 30.193C251.719 30.0624 251.514 29.9754 251.3 29.9378C251.012 29.9006 250.746 29.7517 250.552 29.5192C250.359 29.2866 250.252 28.9864 250.25 28.6748V27.7577C250.247 27.6859 250.23 27.6157 250.199 27.5519C250.168 27.488 250.125 27.432 250.072 27.3877C250.02 27.3434 249.959 27.3119 249.894 27.2952C249.828 27.2785 249.761 27.2771 249.695 27.2911L244.153 28.5139C243.926 30.161 243.233 31.6934 242.166 32.9025C241.099 34.1117 239.711 34.9389 238.19 35.2716C237.679 35.3837 237.159 35.4403 236.638 35.4406ZM235.138 20.1552C233.436 20.5814 231.949 21.6832 230.975 23.2386C230.001 24.794 229.612 26.6876 229.888 28.538C230.182 30.2595 231.042 31.811 232.311 32.9117C233.58 34.0124 235.174 34.5897 236.805 34.5392C238.436 34.4886 239.996 33.8136 241.204 32.6361C242.411 31.4587 243.186 29.8566 243.388 28.1197V27.8301L249.5 26.5027C249.675 26.4571 249.858 26.4541 250.035 26.4937C250.211 26.5334 250.377 26.6147 250.521 26.7318C250.664 26.8489 250.782 26.9988 250.865 27.1707C250.948 27.3426 250.994 27.5321 251 27.7255V28.6426C251.002 28.7518 251.038 28.857 251.104 28.9406C251.17 29.0241 251.26 29.0808 251.36 29.1012C251.688 29.1515 252.001 29.2813 252.275 29.4806C252.549 29.68 252.777 29.9436 252.943 30.2516C252.982 30.3384 253.046 30.4098 253.126 30.4559C253.205 30.5021 253.295 30.5206 253.385 30.509L253.73 30.4286C253.817 30.4044 253.895 30.3507 253.952 30.2754C254.009 30.2 254.041 30.107 254.045 30.0102C254.092 29.5094 254.287 29.0377 254.6 28.6633C254.914 28.2888 255.33 28.031 255.79 27.9271C256.249 27.8232 256.727 27.8787 257.155 28.0854C257.583 28.2921 257.938 28.6394 258.17 29.077C258.208 29.1632 258.271 29.2343 258.349 29.2805C258.427 29.3266 258.517 29.3455 258.605 29.3345L258.965 29.254C259.051 29.2284 259.127 29.1741 259.183 29.0988C259.238 29.0236 259.269 28.9314 259.273 28.8357C259.31 28.4825 259.421 28.143 259.6 27.8432C259.778 27.5435 260.017 27.2913 260.3 27.106C260.383 27.0421 260.443 26.9504 260.472 26.8454C260.5 26.7405 260.495 26.6284 260.457 26.5268L260.15 25.674C260.086 25.4982 260.059 25.3096 260.071 25.1215C260.082 24.9333 260.132 24.7501 260.216 24.5846C260.3 24.4191 260.417 24.2753 260.559 24.1634C260.7 24.0514 260.863 23.9739 261.035 23.9363L261.493 23.8317C261.74 23.7751 261.974 23.6655 262.182 23.5094C262.389 23.3534 262.565 23.1541 262.698 22.9235C262.832 22.693 262.921 22.4358 262.96 22.1675C262.999 21.8992 262.987 21.6252 262.925 21.3619C262.779 20.8556 262.459 20.4275 262.031 20.1634C261.602 19.8992 261.097 19.8187 260.615 19.938L242.75 23.9202L242.615 23.6708C241.897 22.3002 240.783 21.2174 239.441 20.586C238.099 19.9547 236.601 19.8091 235.175 20.1713L235.138 20.1552ZM236.638 32.4479C235.706 32.459 234.791 32.1795 234.005 31.6434C233.075 30.9884 232.386 30.0078 232.054 28.8685C231.723 27.7293 231.77 26.5021 232.188 25.396C232.606 24.29 233.368 23.3736 234.345 22.8031C235.322 22.2326 236.454 22.0434 237.547 22.2676C238.639 22.4917 239.626 23.1155 240.338 24.0326C241.05 24.9496 241.443 26.1031 241.451 27.2965C241.459 28.4899 241.08 29.6492 240.38 30.5768C239.68 31.5044 238.702 32.1429 237.613 32.3835C237.293 32.4455 236.969 32.4724 236.645 32.464L236.638 32.4479ZM236.638 22.9468C236.358 22.9485 236.079 22.9781 235.805 23.0353C235.283 23.1547 234.787 23.3833 234.347 23.708C233.907 24.0328 233.531 24.4474 233.24 24.9281C232.949 25.4088 232.749 25.9463 232.652 26.5098C232.555 27.0732 232.562 27.6517 232.674 28.2122C232.785 28.7727 232.998 29.3041 233.301 29.7762C233.604 30.2483 233.99 30.6519 234.438 30.9638C234.887 31.2756 235.388 31.4898 235.913 31.594C236.438 31.6982 236.978 31.6903 237.5 31.571C238.284 31.3958 239.003 30.9755 239.565 30.363C240.127 29.7505 240.507 28.9732 240.658 28.1292C240.809 27.2851 240.723 26.4121 240.412 25.6201C240.101 24.8281 239.578 24.1527 238.91 23.6789C238.246 23.2052 237.465 22.9558 236.668 22.9629L236.638 22.9468Z" fill="white"/>
<path opacity="0.6" d="M224.375 55.4804C229.288 55.4804 233.27 52.7574 233.27 49.3984C233.27 46.0394 229.288 43.3164 224.375 43.3164C219.463 43.3164 215.48 46.0394 215.48 49.3984C215.48 52.7574 219.463 55.4804 224.375 55.4804Z" fill="#2A5F73"/>
<path opacity="0.3" d="M210.223 57.9742C212.24 57.9742 213.875 56.8576 213.875 55.4803C213.875 54.1029 212.24 52.9863 210.223 52.9863C208.205 52.9863 206.57 54.1029 206.57 55.4803C206.57 56.8576 208.205 57.9742 210.223 57.9742Z" fill="#2A5F73"/>
</svg>
