<svg width="375" height="300" viewBox="0 0 375 300" fill="none" xmlns="http://www.w3.org/2000/svg">
<path d="M375 263.675H0V263.876H375V263.675Z" fill="#E6E6E6"/>
<path d="M93.6149 275.847H68.7749V276.048H93.6149V275.847Z" fill="#E6E6E6"/>
<path d="M60.915 275.847H46.5225V276.048H60.915V275.847Z" fill="#E6E6E6"/>
<path d="M157.913 278.808H143.52V279.009H157.913V278.808Z" fill="#E6E6E6"/>
<path d="M232.957 283.297H200.565V283.498H232.957V283.297Z" fill="#E6E6E6"/>
<path d="M193.89 283.297H189.143V283.498H193.89V283.297Z" fill="#E6E6E6"/>
<path d="M340.013 278.808H269.753V279.009H340.013V278.808Z" fill="#E6E6E6"/>
<path d="M177.75 227.794H32.9325C31.798 227.792 30.7106 227.307 29.9091 226.446C29.1076 225.585 28.6575 224.418 28.6575 223.201V4.83665C28.6673 3.6267 29.1219 2.4698 29.9223 1.61723C30.7227 0.76466 31.8044 0.285276 32.9325 0.283203H177.75C178.886 0.283203 179.975 0.767178 180.778 1.62866C181.581 2.49014 182.032 3.65855 182.032 4.87687V223.201C182.032 224.419 181.581 225.587 180.778 226.449C179.975 227.31 178.886 227.794 177.75 227.794ZM32.9325 0.444103C31.8477 0.446234 30.8081 0.909957 30.0417 1.73349C29.2754 2.55702 28.845 3.67306 28.845 4.83665V223.201C28.845 224.364 29.2754 225.48 30.0417 226.304C30.8081 227.127 31.8477 227.591 32.9325 227.593H177.75C178.835 227.591 179.876 227.128 180.643 226.304C181.411 225.481 181.843 224.365 181.845 223.201V4.83665C181.843 3.67232 181.411 2.5563 180.643 1.733C179.876 0.909696 178.835 0.446229 177.75 0.444103H32.9325Z" fill="#E6E6E6"/>
<path d="M339.982 227.794H195.157C194.022 227.792 192.934 227.308 192.132 226.447C191.329 225.586 190.877 224.418 190.875 223.201V4.83665C190.887 3.62597 191.343 2.46908 192.145 1.61673C192.946 0.764379 194.029 0.285253 195.157 0.283203H339.982C341.109 0.28739 342.189 0.76771 342.988 1.62006C343.787 2.4724 344.24 3.62809 344.25 4.83665V223.201C344.25 224.416 343.801 225.582 343.001 226.443C342.201 227.304 341.116 227.79 339.982 227.794ZM195.157 0.444103C194.072 0.446229 193.032 0.909696 192.264 1.733C191.497 2.5563 191.064 3.67232 191.062 4.83665V223.201C191.064 224.365 191.497 225.481 192.264 226.304C193.032 227.128 194.072 227.591 195.157 227.593H339.982C341.068 227.591 342.108 227.128 342.876 226.304C343.643 225.481 344.076 224.365 344.077 223.201V4.83665C344.076 3.67232 343.643 2.5563 342.876 1.733C342.108 0.909696 341.068 0.446229 339.982 0.444103H195.157Z" fill="#E6E6E6"/>
<path d="M200.55 194.955H184.057V265.131H200.55V194.955Z" fill="#E0E0E0"/>
<path d="M197.415 265.131H200.55V255.573H194.13L197.415 265.131Z" fill="#FAFAFA"/>
<path d="M128.28 194.955H111.788V265.131H128.28V194.955Z" fill="#E0E0E0"/>
<path d="M200.55 194.955H125.55V259.266H200.55V194.955Z" fill="#FAFAFA"/>
<path d="M197.827 198.116V215.132H128.25V198.116H197.805M198.097 197.803H127.98V215.437H198.12V197.803H198.097Z" fill="#E0E0E0"/>
<path d="M128.677 265.131H125.55V255.573H131.962L128.677 265.131Z" fill="#FAFAFA"/>
<path d="M161.393 206.62C161.393 206.971 161.49 207.315 161.672 207.608C161.854 207.9 162.113 208.128 162.416 208.262C162.719 208.397 163.052 208.432 163.373 208.364C163.695 208.295 163.99 208.126 164.222 207.877C164.454 207.628 164.612 207.311 164.676 206.967C164.74 206.622 164.707 206.264 164.581 205.939C164.456 205.614 164.244 205.337 163.971 205.141C163.698 204.946 163.378 204.842 163.05 204.842C162.61 204.842 162.189 205.029 161.878 205.363C161.567 205.696 161.393 206.148 161.393 206.62Z" fill="#E6E6E6"/>
<path d="M197.827 218.599V235.614H128.25V218.599H197.805M198.097 218.293H127.98V235.928H198.12V218.301L198.097 218.293Z" fill="#E0E0E0"/>
<path d="M161.393 227.151C161.393 227.503 161.49 227.846 161.672 228.139C161.854 228.431 162.113 228.659 162.416 228.794C162.719 228.928 163.052 228.963 163.373 228.895C163.695 228.826 163.99 228.657 164.222 228.408C164.454 228.16 164.612 227.843 164.676 227.498C164.74 227.153 164.707 226.795 164.581 226.471C164.456 226.146 164.244 225.868 163.971 225.673C163.698 225.477 163.378 225.373 163.05 225.373C162.61 225.373 162.189 225.56 161.878 225.894C161.567 226.227 161.393 226.679 161.393 227.151Z" fill="#E6E6E6"/>
<path d="M197.827 239.089V256.112H128.25V239.089H197.805M198.097 238.775H127.98V256.418H198.12V238.775H198.097Z" fill="#E0E0E0"/>
<path d="M161.393 247.601C161.394 247.953 161.493 248.296 161.676 248.587C161.859 248.878 162.118 249.105 162.421 249.238C162.724 249.372 163.057 249.406 163.378 249.336C163.699 249.267 163.994 249.097 164.225 248.848C164.456 248.599 164.613 248.282 164.676 247.937C164.74 247.593 164.706 247.236 164.581 246.911C164.455 246.587 164.243 246.31 163.97 246.115C163.698 245.92 163.378 245.815 163.05 245.815C162.832 245.815 162.616 245.862 162.414 245.952C162.212 246.041 162.029 246.173 161.875 246.339C161.721 246.505 161.599 246.702 161.517 246.919C161.434 247.135 161.392 247.367 161.393 247.601Z" fill="#E6E6E6"/>
<path d="M118.208 154.199H101.715V265.139H118.208V154.199Z" fill="#E0E0E0"/>
<path d="M115.072 265.131H118.207V255.573H111.795L115.072 265.131Z" fill="#FAFAFA"/>
<path d="M56.5726 154.199H40.0801V265.139H56.5726V154.199Z" fill="#E0E0E0"/>
<path d="M118.207 154.199H53.835V259.274H118.207V154.199Z" fill="#FAFAFA"/>
<path d="M115.433 157.16V180.949H56.6101V157.16H115.433ZM115.778 156.798H56.2501V181.295H115.763V156.806L115.778 156.798Z" fill="#E0E0E0"/>
<path d="M115.432 183.852V246.949H87.4125V183.852H115.432ZM115.777 183.482H87.075V247.319H115.777V183.482Z" fill="#E0E0E0"/>
<path d="M84.6301 183.852V246.949H56.6101V183.852H84.6301ZM84.9676 183.482H56.2501V247.319H84.9526V183.482H84.9676Z" fill="#E0E0E0"/>
<path d="M56.97 265.131H53.835V255.573H60.255L56.97 265.131Z" fill="#FAFAFA"/>
<path d="M84.36 169.066C84.3585 169.42 84.4549 169.766 84.6369 170.06C84.819 170.355 85.0785 170.585 85.3826 170.722C85.6867 170.858 86.0217 170.895 86.3452 170.827C86.6687 170.759 86.966 170.589 87.1997 170.34C87.4333 170.09 87.5926 169.772 87.6574 169.425C87.7223 169.079 87.6898 168.719 87.564 168.392C87.4382 168.066 87.2248 167.786 86.9508 167.59C86.6768 167.393 86.3546 167.288 86.025 167.288C85.5847 167.288 85.1623 167.475 84.8503 167.808C84.5383 168.142 84.362 168.594 84.36 169.066Z" fill="#E6E6E6"/>
<path d="M90.2999 213.9C90.2999 214.254 90.3978 214.599 90.5811 214.893C90.7644 215.187 91.0248 215.416 91.3295 215.551C91.6342 215.686 91.9694 215.721 92.2925 215.651C92.6157 215.582 92.9124 215.411 93.1449 215.16C93.3775 214.91 93.5355 214.591 93.5989 214.244C93.6623 213.897 93.6282 213.537 93.501 213.211C93.3739 212.885 93.1593 212.607 92.8845 212.411C92.6097 212.216 92.2871 212.113 91.9574 212.114C91.7391 212.114 91.523 212.161 91.3214 212.25C91.1198 212.34 90.9368 212.472 90.7828 212.638C90.6287 212.804 90.5068 213.001 90.424 213.217C90.3411 213.434 90.299 213.666 90.2999 213.9Z" fill="#E6E6E6"/>
<path d="M78.4276 213.9C78.4291 214.252 78.5276 214.594 78.7106 214.886C78.8936 215.177 79.153 215.404 79.456 215.537C79.759 215.67 80.092 215.704 80.4131 215.635C80.7341 215.565 81.0287 215.395 81.2598 215.147C81.4908 214.898 81.648 214.581 81.7113 214.236C81.7747 213.891 81.7414 213.534 81.6157 213.21C81.4901 212.886 81.2776 212.608 81.0052 212.413C80.7328 212.218 80.4126 212.114 80.0851 212.114C79.8668 212.114 79.6507 212.161 79.4491 212.25C79.2475 212.34 79.0644 212.472 78.9104 212.638C78.7564 212.804 78.6345 213.001 78.5516 213.217C78.4688 213.434 78.4266 213.666 78.4276 213.9Z" fill="#E6E6E6"/>
<path d="M76.5524 123.267H69.5999C70.2406 126.884 70.6441 130.546 70.8074 134.224C70.8074 138.246 65.5124 154.199 73.0574 154.199C80.6024 154.199 75.3074 138.287 75.3074 134.224C75.4831 130.545 75.8991 126.883 76.5524 123.267Z" fill="#E0E0E0"/>
<path d="M50.1001 139.581V144.408C50.108 146.996 51.0698 149.475 52.7756 151.305C54.4814 153.134 56.7927 154.166 59.2051 154.175H63.7051C66.1175 154.166 68.4288 153.134 70.1346 151.305C71.8404 149.475 72.8022 146.996 72.8101 144.408V139.581H50.1001Z" fill="#F5F5F5"/>
<path d="M146.752 184.722C146.752 190.353 152.625 194.955 159.802 194.955H166.282C173.46 194.955 179.332 190.353 179.332 184.722H146.752Z" fill="#E0E0E0"/>
<path d="M318.458 176.468C314.528 179.911 309.098 186.21 304.133 195.076C300.818 200.981 298.823 207.143 297.945 215.333C297.945 206.081 297.998 196.146 298.028 186.765C299.025 184.352 301.305 178.785 302.94 174.392C308.393 159.726 310.44 156.114 315.338 143.467C321.885 126.573 328.59 106.573 326.67 108.174C322.755 111.432 307.755 141.561 306.135 145.873C301.719 157.381 298.99 169.552 298.043 181.954C298.043 173.105 298.103 165.06 298.133 158.817C298.238 138.455 298.56 131.883 298.718 129.855C299.325 128.826 300.038 127.627 300.458 126.983C303.983 121.513 305.34 116.863 308.655 108.705C313.365 97.1607 317.415 76.6541 316.23 77.6838C311.295 81.9959 307.41 91.2476 302.295 103.05C297.18 114.852 298.643 121.633 297.63 131.706C297.42 133.685 297.255 141.15 297.135 151.488C295.815 140.467 293.325 133.21 288.788 126.613C283.208 118.496 277.808 113.017 273.848 110.153C269.888 107.289 280.688 127.225 285.848 135.897C290.445 143.652 294.683 150.483 297.098 157.216C296.97 171.239 296.91 188.986 296.91 205.486C295.725 197.972 293.79 189.871 291.21 183.604C288.105 176.074 283.335 164.521 279.533 160.603C278.625 159.662 283.508 182.131 286.643 188.101C289.778 194.07 292.08 199.71 294.053 203.097C294.51 203.901 296.04 206.934 296.91 208.688C296.91 228.856 297.015 246.652 297.18 252.71H297.99C297.938 251.149 297.923 240.884 297.945 227.304C299.903 219.935 304.373 211.52 308.063 203.845C312.083 195.534 322.388 173.049 318.458 176.468Z" fill="#E0E0E0"/>
<path d="M309.33 265.131H285.825L284.047 240.417H311.107L309.33 265.131Z" fill="#F0F0F0"/>
<path d="M312.855 243.297H282.293L281.423 234.954H313.733L312.855 243.297Z" fill="#F5F5F5"/>
<path d="M93.195 16.7754H51.1575V66.2921H93.195V16.7754Z" fill="#E0E0E0"/>
<path d="M97.7474 16.7754H54.3224V66.2921H97.7474V16.7754Z" fill="#F5F5F5"/>
<path d="M94.1101 62.3908V20.6777L57.9601 20.6777V62.3908H94.1101Z" fill="white"/>
<path d="M85.3425 52.2693V30.7812H66.72V52.2693H85.3425Z" fill="#F5F5F5"/>
<path d="M307.537 22.543H268.485V68.544H307.537V22.543Z" fill="#E0E0E0"/>
<path d="M311.767 22.543H271.432V68.544H311.767V22.543Z" fill="#F5F5F5"/>
<path d="M308.392 64.9164V26.1719L274.815 26.1719V64.9164H308.392Z" fill="white"/>
<path d="M291.6 56.7833C297.387 56.7833 302.077 51.7515 302.077 45.5445C302.077 39.3374 297.387 34.3057 291.6 34.3057C285.813 34.3057 281.122 39.3374 281.122 45.5445C281.122 51.7515 285.813 56.7833 291.6 56.7833Z" fill="#F5F5F5"/>
<path d="M136.867 46.2998H105.682V83.0331H136.867V46.2998Z" fill="#E0E0E0"/>
<path d="M140.243 46.2998H108.03V83.0331H140.243V46.2998Z" fill="#F5F5F5"/>
<path d="M137.542 80.1372V49.1963H110.73V80.1372H137.542Z" fill="white"/>
<path d="M124.14 56.8389L116.805 70.467H131.475L124.14 56.8389Z" fill="#F5F5F5"/>
<path d="M187.5 300.006C267.812 300.006 332.917 295.928 332.917 290.899C332.917 285.869 267.812 281.792 187.5 281.792C107.188 281.792 42.0824 285.869 42.0824 290.899C42.0824 295.928 107.188 300.006 187.5 300.006Z" fill="#F5F5F5"/>
<path d="M261.938 87.5149L254.498 84.2969C254.498 84.2969 244.68 103.5 241.868 104.474C238.043 105.793 230.123 109.461 225.428 110.105C224.79 110.91 223.748 113.412 223.845 114.321C230.153 116.581 244.013 113.581 246.983 111.215C253.74 105.849 261.938 87.5149 261.938 87.5149Z" fill="#E58A7B"/>
<path d="M264.225 83.1467C265.612 88.6414 258.098 99.6952 258.098 99.6952L248.25 93.7741C248.25 93.7741 250.095 89.2287 252.345 84.6029C255.952 77.1291 262.642 76.8797 264.225 83.1467Z" fill="#2A5F73"/>
<path opacity="0.2" d="M264.225 83.1467C265.612 88.6414 258.098 99.6952 258.098 99.6952L248.25 93.7741C248.25 93.7741 250.095 89.2287 252.345 84.6029C255.952 77.1291 262.642 76.8797 264.225 83.1467Z" fill="black"/>
<path opacity="0.2" d="M252.158 96.1394L256.035 98.4724L256.718 85.7051C254.46 87.5635 252.87 93.1627 252.158 96.1394Z" fill="black"/>
<path d="M257.745 79.0115C257.745 79.0115 250.08 97.3057 254.55 131.368H284.753C285.233 126.396 283.643 102.133 289.395 78.7058C286.082 78.0112 282.73 77.5517 279.36 77.3301C275.086 77.0644 270.801 77.0644 266.528 77.3301C263.565 77.6528 260.629 78.2149 257.745 79.0115Z" fill="#2A5F73"/>
<path opacity="0.2" d="M257.745 79.0115C257.745 79.0115 250.08 97.3057 254.55 131.368H284.753C285.233 126.396 283.643 102.133 289.395 78.7058C286.082 78.0112 282.73 77.5517 279.36 77.3301C275.086 77.0644 270.801 77.0644 266.528 77.3301C263.565 77.6528 260.629 78.2149 257.745 79.0115Z" fill="black"/>
<g style="mix-blend-mode:multiply">
<path d="M250.74 291.623C250.695 292.492 262.148 293.192 276.315 293.192C290.483 293.192 302.018 292.492 302.063 291.623C302.108 290.754 290.663 290.062 276.488 290.062C262.313 290.062 250.793 290.762 250.74 291.623Z" fill="#E8ECF1"/>
</g>
<path d="M270.9 268.794L265.544 271.019L270.158 283.805L275.515 281.581L270.9 268.794Z" fill="#E58A7B"/>
<path d="M294.788 285.436H289.14L287.07 271.414H292.718L294.788 285.436Z" fill="#E58A7B"/>
<path d="M288.75 284.736H295.095C295.205 284.737 295.312 284.779 295.395 284.856C295.479 284.932 295.535 285.038 295.553 285.155L296.37 290.537C296.387 290.672 296.377 290.809 296.341 290.94C296.304 291.07 296.241 291.191 296.157 291.293C296.074 291.395 295.97 291.477 295.854 291.532C295.738 291.588 295.612 291.616 295.485 291.615C293.273 291.575 292.208 291.43 289.418 291.43C287.7 291.43 284.168 291.623 281.783 291.623C279.398 291.623 279.24 289.113 280.223 288.879C284.633 287.858 286.343 286.466 287.813 285.114C288.072 284.87 288.405 284.736 288.75 284.736Z" fill="#263238"/>
<path d="M270 282.661L276 280.778C276.107 280.746 276.221 280.754 276.324 280.801C276.426 280.848 276.51 280.931 276.563 281.036L278.813 285.863C278.865 285.985 278.892 286.118 278.891 286.253C278.89 286.388 278.862 286.521 278.808 286.643C278.755 286.764 278.677 286.872 278.581 286.958C278.484 287.045 278.371 287.107 278.25 287.142C276.068 287.786 274.605 288.18 271.875 289.033C269.993 289.62 268.073 290.577 266.213 291.213C264.923 291.655 261.893 291.671 260.325 291.671C258.008 291.671 257.49 289.049 258.488 288.928C261 288.63 261.338 288.767 262.725 288.019C264.995 286.954 267.053 285.43 268.785 283.53C269.112 283.13 269.531 282.831 270 282.661Z" fill="#263238"/>
<path d="M226.373 110.073L220.163 107.281L217.605 114.667C220.15 115.082 222.74 115.082 225.285 114.667L226.373 110.073Z" fill="#E58A7B"/>
<path d="M215.543 107.088L215.378 111.995L217.605 114.65L220.163 107.265L215.543 107.088Z" fill="#E58A7B"/>
<path d="M271.635 269.879L266.262 272.104L268.642 278.716L274.015 276.491L271.635 269.879Z" fill="#CF6F64"/>
<path d="M292.718 271.414H287.07L288.143 278.646H293.79L292.718 271.414Z" fill="#CF6F64"/>
<path opacity="0.2" d="M253.59 122.156C253.702 123.613 253.83 125.101 253.995 126.629L276.45 118.81C279.957 117.695 283.004 115.331 285.09 112.108C285.18 109.96 285.292 107.7 285.465 105.342C285.54 104.2 285.63 103.025 285.727 101.835C285.825 100.644 285.96 99.3248 286.102 98.0537L253.59 122.156Z" fill="black"/>
<path d="M260.925 95.7684L260.175 95.6718C260.618 91.6494 263.415 88.4796 266.363 88.5601V89.3646C263.783 89.3083 261.323 92.1642 260.925 95.7684Z" fill="white"/>
<path d="M264.922 103.194H264.795V102.389C267.375 102.494 269.797 99.6059 270.195 96.0098L270.945 96.1063C270.547 100.04 267.84 103.194 264.922 103.194Z" fill="white"/>
<path d="M278.94 61.8271C277.883 66.2599 276.638 74.3773 279.36 77.3298C279.36 77.3298 277.455 81.8269 269.783 81.8269C262.77 81.8269 266.528 77.3298 266.528 77.3298C271.193 76.1552 271.275 72.5028 270.66 69.0435L278.94 61.8271Z" fill="#E58A7B"/>
<path d="M275.565 64.7715L270.667 69.0434C270.819 69.8383 270.907 70.6458 270.93 71.4568C272.362 72.9854 275.235 69.1158 275.527 67.1367C275.676 66.3576 275.689 65.5556 275.565 64.7715Z" fill="#CF6F64"/>
<path d="M262.245 61.7711C262.586 62.4047 263.045 62.956 263.593 63.3907C264.142 63.8253 264.768 64.1339 265.433 64.2972C267.233 64.7236 268.133 62.9457 267.638 61.1597C267.195 59.5507 265.718 57.3866 263.888 57.7567C263.496 57.8433 263.129 58.0294 262.817 58.2994C262.506 58.5694 262.26 58.9155 262.099 59.3086C261.938 59.7017 261.868 60.1304 261.893 60.5589C261.918 60.9873 262.039 61.403 262.245 61.7711Z" fill="#CF6F64"/>
<path d="M265.223 47.5876C262.418 48.9633 261.428 60.9181 264.953 62.6879C268.478 64.4578 270.533 44.973 265.223 47.5876Z" fill="#263238"/>
<path d="M279.795 55.158C279.12 61.1595 279.045 64.6913 276.045 67.7645C275.115 68.7843 273.941 69.5087 272.652 69.8577C271.363 70.2068 270.009 70.1668 268.739 69.7423C267.47 69.3179 266.334 68.5253 265.458 67.4523C264.582 66.3792 264 65.0673 263.775 63.6615C262.868 58.2714 264.12 49.3657 269.73 46.9763C270.909 46.4186 272.205 46.2093 273.485 46.3699C274.764 46.5306 275.98 47.0555 277.007 47.8901C278.034 48.7247 278.834 49.8388 279.324 51.1167C279.814 52.3946 279.977 53.79 279.795 55.158Z" fill="#E58A7B"/>
<path d="M270.577 50.6928C274.732 49.5585 277.785 48.7862 276.69 52.4949C275.242 57.4506 273.502 62.2454 275.835 62.4626C277.26 62.5993 283.56 59.7353 282.757 56.8311C282.06 54.305 285.007 53.6131 285.532 52.334C287.475 47.7001 281.917 48.3115 282.907 45.4958C283.897 42.68 278.407 38.1427 275.407 40.4033C270.525 44.0557 262.147 43.9994 266.55 37.9898C269.707 33.7019 264.075 34.5788 264.075 34.5788C264.075 34.5788 267.48 36.7429 261.75 40.0896C255.69 43.6615 261.247 53.2592 270.577 50.6928Z" fill="#263238"/>
<path d="M282 61.7711C281.18 63.0442 279.947 63.9446 278.543 64.2972C276.69 64.7236 275.978 62.9457 276.675 61.1597C277.298 59.5507 279.008 57.3866 280.778 57.7567C282.548 58.1267 282.953 60.1943 282 61.7711Z" fill="#E58A7B"/>
<path d="M254.55 131.367C254.55 131.367 249.48 180.039 249.082 198.51C248.677 217.722 266.265 277.665 266.265 277.665L275.265 273.642C275.265 273.642 264.765 218.872 266.265 200.007C267.855 179.436 274.425 131.399 274.425 131.399L254.55 131.367Z" fill="#2A5F73"/>
<path opacity="0.2" d="M267.15 144.73C263.108 153.724 265.83 171.512 268.02 182.051C268.853 174.609 269.843 166.532 270.78 159.058C270.69 147.57 269.858 138.696 267.15 144.73Z" fill="black"/>
<path d="M274.868 270.457C274.913 270.457 275.933 273.53 275.933 273.53L265.553 278.212L263.918 274.946L274.868 270.457Z" fill="#2A5F73"/>
<path d="M265.268 131.367C265.268 131.367 269.145 177.658 271.71 194.995C274.53 213.989 285.585 277.246 285.585 277.246H295.928C295.928 277.246 289.733 215.525 288.563 196.716C287.288 176.314 284.753 131.367 284.753 131.367H265.268Z" fill="#2A5F73"/>
<path d="M296.085 274.359C296.13 274.359 296.43 277.456 296.43 277.456H285.06L284.25 273.9L296.085 274.359Z" fill="#2A5F73"/>
<path opacity="0.2" d="M292.125 270.69C292.102 270.691 292.079 270.682 292.061 270.666C292.043 270.649 292.031 270.627 292.028 270.602C291.968 270.039 286.38 214.287 285.33 197.393C284.19 179.066 281.895 138.415 281.873 138.005C281.872 137.992 281.873 137.978 281.877 137.966C281.881 137.953 281.888 137.941 281.896 137.931C281.905 137.922 281.915 137.914 281.926 137.908C281.938 137.903 281.95 137.9 281.963 137.9C281.987 137.9 282.011 137.91 282.029 137.928C282.047 137.946 282.058 137.971 282.06 137.997C282.06 138.407 284.378 179.026 285.518 197.385C286.568 214.279 292.155 269.99 292.208 270.594C292.21 270.607 292.209 270.621 292.206 270.634C292.203 270.647 292.198 270.659 292.19 270.67C292.182 270.68 292.172 270.689 292.161 270.695C292.15 270.702 292.138 270.706 292.125 270.706V270.69Z" fill="black"/>
<path d="M271.215 56.8312C271.215 57.322 270.93 57.7162 270.63 57.7162C270.33 57.7162 270.113 57.322 270.143 56.8312C270.173 56.3405 270.428 55.9463 270.728 55.9463C271.028 55.9463 271.245 56.3485 271.215 56.8312Z" fill="#263238"/>
<path d="M266.07 56.8312C266.07 57.322 265.778 57.7162 265.485 57.7162C265.193 57.7162 264.968 57.322 264.99 56.8312C265.013 56.3405 265.283 55.9463 265.583 55.9463C265.883 55.9463 266.1 56.3485 266.07 56.8312Z" fill="#263238"/>
<path d="M267.69 57.0811C267.064 58.5796 266.257 59.9834 265.29 61.2564C266.04 62.0609 267.443 61.6908 267.443 61.6908L267.69 57.0811Z" fill="#DF5753"/>
<path d="M267.825 63.7422C267.808 63.7422 267.791 63.7384 267.775 63.731C267.759 63.7237 267.744 63.7129 267.732 63.6993C267.72 63.6857 267.711 63.6697 267.705 63.6521C267.699 63.6346 267.697 63.616 267.698 63.5973C267.7 63.5582 267.715 63.5214 267.742 63.4944C267.768 63.4675 267.804 63.4525 267.84 63.4525C268.414 63.4568 268.981 63.3231 269.5 63.0614C270.019 62.7997 270.477 62.4165 270.84 61.9401C270.866 61.9157 270.899 61.9023 270.934 61.9023C270.968 61.9023 271.002 61.9157 271.028 61.9401C271.052 61.9671 271.065 62.0031 271.065 62.0406C271.065 62.0782 271.052 62.1142 271.028 62.1412C270.639 62.6476 270.15 63.0542 269.596 63.3312C269.041 63.6083 268.436 63.7487 267.825 63.7422Z" fill="#263238"/>
<path d="M272.13 55.3509C272.094 55.3707 272.054 55.381 272.014 55.381C271.973 55.381 271.934 55.3707 271.898 55.3509C271.617 55.1563 271.298 55.0353 270.966 54.9976C270.633 54.9598 270.298 55.0065 269.985 55.1337C269.955 55.15 269.922 55.1596 269.888 55.162C269.854 55.1643 269.82 55.1594 269.787 55.1474C269.755 55.1354 269.726 55.1166 269.7 55.0921C269.675 55.0677 269.655 55.038 269.64 55.005C269.612 54.9334 269.612 54.8529 269.638 54.7808C269.665 54.7087 269.717 54.6506 269.783 54.6188C270.175 54.447 270.6 54.3793 271.021 54.4213C271.443 54.4633 271.849 54.6138 272.205 54.8601C272.234 54.8811 272.258 54.908 272.277 54.9392C272.296 54.9705 272.309 55.0054 272.316 55.0421C272.322 55.0788 272.321 55.1164 272.314 55.1529C272.307 55.1893 272.293 55.2238 272.273 55.2544C272.235 55.3005 272.185 55.334 272.13 55.3509Z" fill="#263238"/>
<path d="M264.082 53.7427C264.042 53.7323 264.006 53.71 263.977 53.6783C263.953 53.6521 263.933 53.6208 263.919 53.5863C263.906 53.5517 263.899 53.5147 263.899 53.4772C263.899 53.4397 263.906 53.4026 263.919 53.3681C263.933 53.3336 263.953 53.3023 263.977 53.2761C264.265 52.9302 264.623 52.6603 265.024 52.4872C265.424 52.3142 265.857 52.2428 266.287 52.2785C266.322 52.2842 266.355 52.2974 266.385 52.3174C266.414 52.3374 266.439 52.3636 266.459 52.3946C266.479 52.4255 266.492 52.4604 266.499 52.4972C266.506 52.534 266.505 52.5718 266.497 52.6083C266.481 52.6828 266.441 52.7485 266.383 52.7929C266.325 52.8373 266.253 52.8575 266.182 52.8497C265.842 52.8266 265.5 52.8871 265.185 53.0265C264.869 53.1659 264.587 53.3805 264.36 53.6542C264.326 53.6949 264.282 53.7247 264.233 53.7403C264.184 53.7559 264.132 53.7567 264.082 53.7427Z" fill="#263238"/>
<path d="M292.298 86.622L284.498 84.3936C284.498 84.3936 276.848 104.594 274.14 105.906C270.465 107.708 261.158 113.951 257.198 116.903C256.98 117.909 257.153 120.572 257.648 121.304C264.398 119.984 277.32 114.651 280.02 111.939C286.178 105.753 292.298 86.622 292.298 86.622Z" fill="#E58A7B"/>
<path d="M286.853 285.798C286.472 285.831 286.093 285.72 285.78 285.485C285.684 285.391 285.611 285.272 285.57 285.139C285.53 285.007 285.522 284.865 285.548 284.728C285.552 284.643 285.579 284.56 285.623 284.489C285.668 284.419 285.73 284.362 285.803 284.326C286.433 283.98 288.195 285.179 288.398 285.316C288.42 285.33 288.437 285.352 288.447 285.379C288.456 285.405 288.457 285.433 288.45 285.46C288.444 285.488 288.431 285.514 288.412 285.535C288.394 285.557 288.371 285.572 288.345 285.581C287.856 285.71 287.356 285.783 286.853 285.798ZM286.103 284.543C286.046 284.53 285.987 284.53 285.93 284.543C285.901 284.559 285.878 284.583 285.862 284.613C285.846 284.643 285.838 284.678 285.84 284.712C285.82 284.806 285.823 284.903 285.85 284.995C285.876 285.087 285.925 285.17 285.99 285.235C286.283 285.517 287.018 285.549 287.985 285.348C287.409 284.941 286.76 284.667 286.08 284.543H286.103Z" fill="#2A5F73"/>
<path d="M288.308 285.581C288.288 285.588 288.267 285.588 288.248 285.581C287.685 285.243 286.628 283.916 286.785 283.24C286.809 283.133 286.865 283.038 286.945 282.969C287.026 282.9 287.125 282.863 287.228 282.862C287.328 282.848 287.431 282.857 287.528 282.889C287.625 282.921 287.714 282.975 287.79 283.047C288.413 283.618 288.45 285.372 288.45 285.461C288.454 285.487 288.449 285.514 288.437 285.537C288.425 285.561 288.405 285.579 288.383 285.589C288.357 285.595 288.331 285.592 288.308 285.581ZM287.303 283.128H287.25C287.078 283.128 287.055 283.232 287.048 283.272C286.958 283.667 287.625 284.672 288.18 285.147C288.178 284.467 287.981 283.805 287.618 283.248C287.53 283.167 287.418 283.124 287.303 283.128Z" fill="#2A5F73"/>
<path d="M266.94 284.793C266.481 284.965 265.982 284.965 265.523 284.793C265.418 284.733 265.33 284.645 265.266 284.538C265.202 284.431 265.164 284.309 265.155 284.182C265.146 284.102 265.155 284.021 265.183 283.947C265.21 283.872 265.255 283.806 265.313 283.755C265.913 283.176 268.365 283.755 268.643 283.868C268.669 283.875 268.692 283.892 268.709 283.915C268.725 283.939 268.733 283.968 268.733 283.997C268.734 284.027 268.727 284.057 268.712 284.083C268.697 284.108 268.676 284.129 268.65 284.142C268.098 284.409 267.526 284.627 266.94 284.793ZM265.718 283.836C265.632 283.854 265.552 283.896 265.485 283.957C265.461 283.976 265.443 284.002 265.432 284.032C265.422 284.062 265.419 284.094 265.425 284.125C265.43 284.21 265.455 284.292 265.496 284.363C265.538 284.435 265.596 284.494 265.665 284.536C266.063 284.761 266.985 284.584 268.178 284.045C267.374 283.828 266.543 283.757 265.718 283.836Z" fill="#2A5F73"/>
<path d="M268.627 284.141H268.567C267.817 283.996 266.317 283.071 266.272 282.379C266.272 282.218 266.34 281.993 266.7 281.864C266.822 281.818 266.951 281.798 267.08 281.807C267.208 281.815 267.334 281.851 267.45 281.913C268.26 282.339 268.687 283.884 268.71 283.956C268.715 283.98 268.715 284.006 268.708 284.03C268.701 284.054 268.689 284.075 268.672 284.093C268.661 284.113 268.646 284.129 268.627 284.141ZM266.85 282.106H266.775C266.542 282.194 266.542 282.299 266.542 282.331C266.542 282.749 267.63 283.514 268.387 283.771C268.213 283.125 267.844 282.559 267.337 282.162C267.187 282.08 267.013 282.06 266.85 282.106Z" fill="#2A5F73"/>
<path d="M257.835 116.428L250.013 120.289L249.105 122.703L251.993 124.786C251.993 124.786 257.393 124.159 258.93 120.434L257.835 116.428Z" fill="#E58A7B"/>
<path d="M258.165 121.441C257.99 119.828 257.494 118.275 256.71 116.887L257.948 115.89C258.878 117.489 259.472 119.288 259.688 121.159L258.165 121.441Z" fill="#263238"/>
<path d="M259.5 117.57C259.665 117.849 259.747 118.176 259.733 118.506C259.719 118.837 259.61 119.154 259.422 119.416C259.234 119.678 258.975 119.871 258.681 119.97C258.387 120.068 258.071 120.067 257.778 119.966C257.484 119.866 257.226 119.67 257.04 119.407C256.854 119.144 256.747 118.825 256.735 118.495C256.724 118.165 256.807 117.838 256.974 117.561C257.142 117.283 257.385 117.067 257.67 116.943C257.991 116.768 258.363 116.735 258.705 116.853C259.048 116.97 259.334 117.228 259.5 117.57Z" fill="#263238"/>
<path d="M244.725 123.411L245.767 124.538L252.787 121.32L250.012 120.29L244.725 123.411Z" fill="#E58A7B"/>
<path opacity="0.2" d="M274.868 270.457C274.913 270.457 275.933 273.53 275.933 273.53L265.553 278.212L263.918 274.946L274.868 270.457Z" fill="black"/>
<path opacity="0.2" d="M296.085 274.359C296.13 274.359 296.43 277.456 296.43 277.456H285.06L284.25 273.9L296.085 274.359Z" fill="black"/>
<path d="M294.33 84.3052C296.392 91.4411 288.33 101.2 288.33 101.2L277.192 96.3244C278.513 92.1999 280.035 88.153 281.752 84.2006C285.172 76.2924 292.245 77.105 294.33 84.3052Z" fill="#2A5F73"/>
<path opacity="0.2" d="M294.33 84.3052C296.392 91.4411 288.33 101.2 288.33 101.2L277.192 96.3244C278.513 92.1999 280.035 88.153 281.752 84.2006C285.172 76.2924 292.245 77.105 294.33 84.3052Z" fill="black"/>
<path d="M183.66 12.8096H178.868V13.6382H183.66V12.8096Z" fill="#2A5F73"/>
<path d="M245.699 45.6059L245.119 59.4131L245.89 59.4504L246.47 45.6432L245.699 45.6059Z" fill="#2A5F73"/>
<path d="M244.208 16.5264H155.708L147.473 214.207H235.973L244.208 16.5264Z" fill="#2A5F73"/>
<path opacity="0.56" d="M241.568 19.2451H153.068L144.833 216.926H233.333L241.568 19.2451Z" fill="#FAFAFA"/>
<path opacity="0.07" d="M238.928 21.957H150.428L142.185 219.638H230.685L238.928 21.957Z" fill="#2A5F73"/>
<path d="M228.855 108.175H153.315L152.685 123.299H228.225L228.855 108.175Z" fill="white"/>
<path d="M194.857 97.1367H153.772L153.495 103.903H194.58L194.857 97.1367Z" fill="#2A5F73"/>
<path d="M227.152 148.994H151.612L150.982 164.119H226.522L227.152 148.994Z" fill="white"/>
<path opacity="0.47" d="M213.3 184.545H162.502L161.745 202.67H212.543L213.3 184.545Z" fill="#2A5F73"/>
<path d="M209.903 205.486H159.105C159.083 205.492 159.06 205.492 159.038 205.486C159.03 205.463 159.03 205.437 159.038 205.414L159.788 187.281C159.788 187.268 159.79 187.256 159.794 187.245C159.799 187.233 159.806 187.223 159.814 187.215C159.823 187.207 159.833 187.2 159.844 187.196C159.855 187.192 159.866 187.191 159.878 187.192H210.675C210.684 187.187 210.695 187.185 210.705 187.185C210.715 187.185 210.726 187.187 210.735 187.192C210.74 187.202 210.743 187.213 210.743 187.224C210.743 187.236 210.74 187.247 210.735 187.256L210 205.43C209.991 205.449 209.977 205.464 209.959 205.474C209.942 205.485 209.922 205.489 209.903 205.486ZM159.195 205.293H209.813L210.563 187.353H159.945L159.195 205.293Z" fill="white"/>
<path d="M185.985 137.957H152.07L151.793 144.731H185.7L185.985 137.957Z" fill="#2A5F73"/>
<path d="M212.333 59.3171C212.139 63.7188 210.68 67.9482 208.155 71.4247C206.287 74.0507 203.882 76.1826 201.126 77.6566C198.369 79.1307 195.335 79.9078 192.255 79.9283C189.766 79.9486 187.3 79.4222 185.008 78.3814C182.716 77.3407 180.647 75.8076 178.929 73.8767C177.21 71.9457 175.878 69.6578 175.015 67.1539C174.152 64.6499 173.776 61.9829 173.91 59.3171C174.174 53.7854 176.398 48.5707 180.127 44.7395C183.856 40.9083 188.809 38.75 193.973 38.7059C196.463 38.681 198.932 39.2042 201.227 40.2432C203.522 41.2821 205.593 42.8148 207.314 44.7465C209.035 46.6781 210.368 48.9678 211.231 51.4739C212.094 53.98 212.469 56.6494 212.333 59.3171Z" fill="white"/>
<path d="M214.14 43.0186C214.091 44.189 213.703 45.3139 213.03 46.2366C212.532 46.9341 211.892 47.5003 211.159 47.8921C210.426 48.2839 209.619 48.4909 208.8 48.4972C208.006 48.5024 207.224 48.2991 206.52 47.905C205.817 47.511 205.214 46.9381 204.765 46.2366C204.17 45.2886 203.875 44.1603 203.925 43.0186C203.997 41.55 204.589 40.1663 205.58 39.1497C206.571 38.1332 207.886 37.5603 209.257 37.5481C209.919 37.5416 210.575 37.6805 211.184 37.9561C211.794 38.2318 212.344 38.6384 212.801 39.151C213.259 39.6635 213.614 40.271 213.844 40.9362C214.074 41.6014 214.175 42.3101 214.14 43.0186Z" fill="#2A5F73"/>
<path d="M161.452 115.737C161.416 116.385 161.153 116.995 160.714 117.442C160.276 117.89 159.695 118.143 159.09 118.15C158.798 118.154 158.508 118.093 158.238 117.972C157.969 117.851 157.725 117.672 157.523 117.445C157.32 117.219 157.163 116.951 157.061 116.657C156.959 116.363 156.915 116.05 156.93 115.737C156.962 115.087 157.225 114.475 157.664 114.027C158.104 113.578 158.686 113.326 159.292 113.323C159.584 113.321 159.874 113.382 160.143 113.504C160.412 113.625 160.655 113.805 160.857 114.031C161.06 114.257 161.217 114.525 161.319 114.818C161.421 115.111 161.467 115.424 161.452 115.737Z" fill="#263238"/>
<path d="M171.563 115.737C171.528 116.386 171.265 116.996 170.826 117.445C170.387 117.893 169.806 118.145 169.2 118.15C168.908 118.153 168.619 118.092 168.351 117.97C168.082 117.848 167.839 117.669 167.638 117.443C167.436 117.217 167.28 116.949 167.178 116.655C167.077 116.362 167.032 116.049 167.048 115.737C167.08 115.089 167.342 114.478 167.779 114.03C168.217 113.581 168.797 113.329 169.403 113.323C169.695 113.32 169.985 113.38 170.254 113.502C170.524 113.623 170.768 113.802 170.97 114.028C171.172 114.254 171.329 114.523 171.431 114.817C171.533 115.111 171.578 115.424 171.563 115.737Z" fill="#263238"/>
<path d="M181.68 115.737C181.646 116.386 181.383 116.996 180.944 117.445C180.505 117.893 179.924 118.145 179.318 118.15C179.026 118.153 178.736 118.092 178.467 117.97C178.198 117.848 177.955 117.669 177.753 117.443C177.55 117.217 177.393 116.949 177.291 116.656C177.189 116.362 177.143 116.05 177.158 115.737C177.192 115.088 177.455 114.477 177.894 114.029C178.333 113.581 178.914 113.328 179.52 113.323C179.812 113.32 180.102 113.38 180.372 113.502C180.642 113.623 180.885 113.802 181.088 114.028C181.29 114.254 181.447 114.523 181.549 114.817C181.651 115.111 181.696 115.424 181.68 115.737Z" fill="#263238"/>
<path d="M159.75 156.557C159.714 157.205 159.45 157.815 159.012 158.263C158.573 158.711 157.993 158.964 157.388 158.971C157.096 158.973 156.806 158.912 156.537 158.79C156.268 158.668 156.025 158.489 155.823 158.263C155.62 158.037 155.463 157.769 155.361 157.476C155.259 157.183 155.213 156.87 155.228 156.557C155.262 155.908 155.525 155.298 155.964 154.849C156.403 154.401 156.984 154.149 157.59 154.144C157.882 154.141 158.171 154.202 158.441 154.324C158.71 154.446 158.953 154.625 159.155 154.851C159.357 155.077 159.514 155.345 159.617 155.638C159.719 155.932 159.764 156.244 159.75 156.557Z" fill="#263238"/>
<path d="M169.86 156.557C169.826 157.205 169.564 157.814 169.126 158.262C168.689 158.71 168.11 158.963 167.505 158.971C167.213 158.974 166.923 158.914 166.653 158.792C166.384 158.671 166.14 158.492 165.938 158.266C165.735 158.04 165.578 157.771 165.476 157.477C165.374 157.183 165.33 156.87 165.345 156.557C165.379 155.908 165.643 155.298 166.081 154.849C166.52 154.401 167.102 154.149 167.708 154.144C167.999 154.141 168.288 154.202 168.557 154.324C168.826 154.446 169.068 154.625 169.27 154.851C169.472 155.077 169.628 155.345 169.729 155.639C169.831 155.932 169.875 156.245 169.86 156.557Z" fill="#263238"/>
<path d="M180 156.557C179.966 157.206 179.702 157.817 179.264 158.265C178.825 158.713 178.243 158.966 177.637 158.971C177.346 158.972 177.057 158.91 176.788 158.788C176.52 158.666 176.277 158.487 176.075 158.261C175.873 158.035 175.716 157.768 175.613 157.475C175.51 157.182 175.464 156.87 175.477 156.557C175.513 155.909 175.777 155.299 176.216 154.852C176.654 154.404 177.235 154.151 177.84 154.144C178.132 154.14 178.422 154.201 178.692 154.322C178.961 154.443 179.205 154.622 179.407 154.849C179.61 155.075 179.767 155.343 179.869 155.637C179.971 155.931 180.015 156.244 180 156.557Z" fill="#263238"/>
<path d="M190.095 156.557C190.059 157.205 189.795 157.815 189.357 158.263C188.919 158.711 188.338 158.964 187.733 158.971C187.441 158.972 187.152 158.91 186.884 158.788C186.615 158.666 186.372 158.486 186.17 158.261C185.968 158.035 185.811 157.768 185.708 157.475C185.606 157.182 185.56 156.87 185.573 156.557C185.609 155.909 185.873 155.299 186.311 154.851C186.749 154.404 187.33 154.151 187.935 154.144C188.227 154.141 188.517 154.202 188.786 154.324C189.055 154.446 189.298 154.625 189.5 154.851C189.702 155.077 189.86 155.345 189.962 155.638C190.064 155.932 190.11 156.244 190.095 156.557Z" fill="#263238"/>
<path d="M200.25 156.557C200.214 157.205 199.95 157.815 199.512 158.263C199.073 158.711 198.493 158.964 197.888 158.971C197.595 158.974 197.305 158.914 197.036 158.792C196.766 158.671 196.523 158.492 196.32 158.266C196.118 158.04 195.961 157.771 195.859 157.477C195.757 157.183 195.712 156.87 195.728 156.557C195.762 155.908 196.025 155.298 196.464 154.849C196.903 154.401 197.484 154.149 198.09 154.144C198.382 154.141 198.671 154.202 198.941 154.324C199.21 154.446 199.453 154.625 199.655 154.851C199.857 155.077 200.014 155.345 200.117 155.638C200.219 155.932 200.264 156.244 200.25 156.557Z" fill="#263238"/>
<path d="M198.715 58.2437C201.854 54.9509 202.021 49.6728 199.087 46.4549C196.153 43.2369 191.23 43.2977 188.091 46.5905C184.952 49.8834 184.786 55.1614 187.719 58.3793C190.653 61.5973 195.576 61.5366 198.715 58.2437Z" fill="#2A5F73"/>
<path d="M208.155 71.4252C206.286 74.0512 203.882 76.183 201.125 77.6571C198.369 79.1312 195.335 79.9083 192.255 79.9287C189.269 79.9559 186.322 79.1944 183.674 77.7115C181.027 76.2285 178.761 74.0696 177.075 71.4252C180.72 67.5315 186.487 64.9893 192.877 64.9893C199.267 64.9893 204.832 67.5315 208.155 71.4252Z" fill="#2A5F73"/>
<path opacity="0.1" d="M198.715 58.2437C201.854 54.9509 202.021 49.6728 199.087 46.4549C196.153 43.2369 191.23 43.2977 188.091 46.5905C184.952 49.8834 184.786 55.1614 187.719 58.3793C190.653 61.5973 195.576 61.5366 198.715 58.2437Z" fill="white"/>
<path opacity="0.1" d="M208.155 71.4252C206.286 74.0512 203.882 76.183 201.125 77.6571C198.369 79.1312 195.335 79.9083 192.255 79.9287C189.269 79.9559 186.322 79.1944 183.674 77.7115C181.027 76.2285 178.761 74.0696 177.075 71.4252C180.72 67.5315 186.487 64.9893 192.877 64.9893C199.267 64.9893 204.832 67.5315 208.155 71.4252Z" fill="white"/>
<path d="M97.8074 126.944C97.0949 128.617 96.3449 130.459 95.6924 132.245C95.0399 134.031 94.3724 135.874 93.7949 137.708C92.6158 141.323 91.7177 145.036 91.1099 148.81L90.9449 149.993C90.9292 150.195 90.947 150.4 90.9974 150.596C91.1744 151.263 91.4532 151.893 91.8224 152.462C92.7856 153.935 93.9029 155.285 95.1524 156.485C96.4699 157.799 97.8518 159.037 99.2924 160.194C100.732 161.384 102.247 162.543 103.74 163.637L102.337 166.461C98.7736 164.795 95.3908 162.715 92.2499 160.258C90.5742 158.947 89.0619 157.411 87.7499 155.688C86.9722 154.663 86.3658 153.501 85.9574 152.253C85.72 151.474 85.5985 150.66 85.5974 149.84C85.5974 149.647 85.5974 149.365 85.5974 149.228V148.834L85.6724 148.03C86.1024 143.838 86.924 139.704 88.1249 135.689C88.7099 133.71 89.3324 131.739 90.0449 129.816C90.7574 127.893 91.4924 126.011 92.3999 124.056L97.8074 126.944Z" fill="#E58A7B"/>
<path d="M102.682 163.138L107.985 160.258L106.612 166.501C106.612 166.501 102.975 167.595 101.287 165.696L102.682 163.138Z" fill="#E58A7B"/>
<path d="M112.837 161.28L111.427 166.444L106.612 166.501L107.985 160.258L112.837 161.28Z" fill="#E58A7B"/>
<path d="M120.322 96.8232C120.606 97.9381 121.001 99.017 121.5 100.041C121.354 100.219 121.166 100.35 120.956 100.423C120.746 100.495 120.522 100.505 120.307 100.452L120.322 96.8232Z" fill="#DF5753"/>
<path d="M120.165 96.8708C120.476 96.8708 120.727 96.4566 120.727 95.9457C120.727 95.4347 120.476 95.0205 120.165 95.0205C119.854 95.0205 119.602 95.4347 119.602 95.9457C119.602 96.4566 119.854 96.8708 120.165 96.8708Z" fill="#263238"/>
<path d="M120 95.053L121.14 94.707C121.14 94.707 120.585 95.6563 120 95.053Z" fill="#263238"/>
<path d="M105.675 102.728C106.357 106.468 107.04 113.331 104.595 115.833C104.595 115.833 105.555 119.63 112.042 119.63C119.175 119.63 115.447 115.833 115.447 115.833C111.555 114.835 111.652 111.738 112.335 108.826L105.675 102.728Z" fill="#E58A7B"/>
<path d="M103.777 94.2008C104.137 100.452 104.167 103.107 107.107 106.317C111.54 111.143 118.62 109.309 120.007 103.099C121.26 97.4671 120.465 88.1993 114.757 85.7134C113.504 85.1598 112.141 84.9582 110.795 85.1276C109.449 85.297 108.166 85.8319 107.067 86.6816C105.967 87.5313 105.088 88.6678 104.513 89.9836C103.937 91.2993 103.684 92.7508 103.777 94.2008Z" fill="#E58A7B"/>
<path d="M104.355 87.169C101.43 88.3114 97.5298 87.4587 99.0598 97.1367C100.68 107.386 98.1898 110.757 98.1898 110.757C98.1898 110.757 109.282 113.291 120.607 110.604C120.607 110.604 117.15 104.12 118.117 99.3411C119.355 93.3073 118.38 91.0789 118.38 91.0789C118.38 91.0789 108.465 85.56 104.355 87.169Z" fill="#263238"/>
<path d="M116.73 97.458C116.733 98.6466 117.05 99.8099 117.645 100.813C118.44 102.116 119.377 101.617 119.61 100.234C119.82 99.0188 119.662 96.8708 118.65 96.0341C117.637 95.1974 116.745 96.018 116.73 97.458Z" fill="#E58A7B"/>
<path d="M101.812 88.2229C100.972 85.6887 104.977 81.7869 113.452 83.3959C121.927 85.0049 122.295 92.5752 122.295 92.5752L120.585 90.387L120.66 92.6878L111.952 94.4818L101.812 88.2229Z" fill="#263238"/>
<path d="M102.532 116.26C102.482 115.893 102.568 115.519 102.771 115.218C102.974 114.918 103.279 114.714 103.62 114.651C106.26 114.184 112.26 113.235 115.275 113.686C117.525 114.024 118.11 115.423 118.207 116.574C118.223 116.775 118.197 116.978 118.134 117.168C118.07 117.358 117.969 117.531 117.837 117.676C117.706 117.821 117.547 117.934 117.372 118.007C117.196 118.081 117.008 118.113 116.82 118.102L103.785 117.475C103.477 117.458 103.185 117.328 102.957 117.107C102.728 116.885 102.579 116.586 102.532 116.26Z" fill="#2A5F73"/>
<path opacity="0.6" d="M102.532 116.26C102.482 115.893 102.568 115.519 102.771 115.218C102.974 114.918 103.279 114.714 103.62 114.651C106.26 114.184 112.26 113.235 115.275 113.686C117.525 114.024 118.11 115.423 118.207 116.574C118.223 116.775 118.197 116.978 118.134 117.168C118.07 117.358 117.969 117.531 117.837 117.676C117.706 117.821 117.547 117.934 117.372 118.007C117.196 118.081 117.008 118.113 116.82 118.102L103.785 117.475C103.477 117.458 103.185 117.328 102.957 117.107C102.728 116.885 102.579 116.586 102.532 116.26Z" fill="black"/>
<path d="M110.07 256.805L114.907 260.409L123 248.639L118.162 245.043L110.07 256.805Z" fill="#E58A7B"/>
<path d="M98.7898 256.572L103.897 259.693L111.06 247.247L105.952 244.126L98.7898 256.572Z" fill="#E58A7B"/>
<path d="M122.992 248.639L118.822 254.705L113.985 251.109L118.155 245.043L122.992 248.639Z" fill="#CF6F64"/>
<path d="M105.945 244.126L111.06 247.255L107.37 253.667L102.255 250.538L105.945 244.126Z" fill="#CF6F64"/>
<path d="M114.15 155.551C114.15 155.551 133.035 181.077 129.487 205.494C126.63 225.212 110.055 251.913 110.055 251.913L102.262 247.762C107.755 235.956 112.442 223.739 116.287 211.206C117.473 207.315 117.819 203.185 117.3 199.13C116.78 195.074 115.408 191.199 113.287 187.795C103.717 172.807 88.3874 181.729 98.6999 155.551H114.15Z" fill="#2A5F73"/>
<path opacity="0.6" d="M114.15 155.551C114.15 155.551 133.035 181.077 129.487 205.494C126.63 225.212 110.055 251.913 110.055 251.913L102.262 247.762C107.755 235.956 112.442 223.739 116.287 211.206C117.473 207.315 117.819 203.185 117.3 199.13C116.78 195.074 115.408 191.199 113.287 187.795C103.717 172.807 88.3874 181.729 98.6999 155.551H114.15Z" fill="black"/>
<path opacity="0.4" d="M123.412 171.947L120.667 169.019C120.667 169.252 125.985 204.465 127.477 214.36C128.358 211.469 129.032 208.511 129.495 205.51C131.25 193.532 127.582 181.295 123.412 171.947Z" fill="black"/>
<path d="M122.58 155.551C122.58 155.551 145.32 187.634 145.965 206.87C146.497 222.959 121.215 254.134 121.215 254.134L113.865 249.033C113.865 249.033 128.662 226.893 132.39 208.808C130.95 190.884 100.5 155.551 100.5 155.551H122.58Z" fill="#2A5F73"/>
<path opacity="0.6" d="M122.58 155.551C122.58 155.551 145.32 187.634 145.965 206.87C146.497 222.959 121.215 254.134 121.215 254.134L113.865 249.033C113.865 249.033 128.662 226.893 132.39 208.808C130.95 190.884 100.5 155.551 100.5 155.551H122.58Z" fill="black"/>
<path d="M94.4474 117.265C92.0174 117.884 89.6849 127.361 89.6849 127.361L99.1874 134.167C99.1874 134.167 102.352 126.67 101.242 123.387C100.095 119.968 97.4999 116.485 94.4474 117.265Z" fill="#2A5F73"/>
<path opacity="0.2" d="M96.3073 123.371L95.6473 131.633L99.1798 134.175C100.155 131.82 100.877 129.353 101.332 126.822L96.3073 123.371Z" fill="black"/>
<path d="M125.392 117.45C125.392 117.45 128.197 118.504 122.58 155.543H98.6846C99.0896 145.085 99.0971 138.649 94.4471 117.265C97.793 116.526 101.184 116.047 104.595 115.833C108.208 115.556 111.834 115.556 115.447 115.833C120.112 116.292 125.392 117.45 125.392 117.45Z" fill="#2A5F73"/>
<path d="M127.822 123.371C128.362 124.98 128.932 126.71 129.532 128.375C130.132 130.04 130.702 131.754 131.31 133.443L133.147 138.495L133.612 139.759L133.852 140.386L133.965 140.7C133.965 140.756 133.965 140.756 133.965 140.748C133.828 140.541 133.648 140.37 133.44 140.249C133.143 140.062 132.809 139.954 132.465 139.936C132.179 139.926 131.895 139.984 131.632 140.104C131.287 140.273 131.287 140.346 131.295 140.338C131.357 140.284 131.413 140.222 131.46 140.153C131.875 139.568 132.234 138.94 132.532 138.278C132.885 137.538 133.222 136.75 133.56 135.953C134.22 134.344 134.827 132.679 135.435 130.998C136.042 129.316 136.62 127.619 137.182 125.905L138.892 120.772L141.78 121.577C141.21 125.245 140.475 128.817 139.59 132.454C139.162 134.264 138.66 136.058 138.09 137.868C137.805 138.777 137.49 139.678 137.13 140.603C136.755 141.607 136.293 142.572 135.75 143.483C135.55 143.79 135.33 144.081 135.09 144.352C134.707 144.796 134.242 145.149 133.725 145.39C133.266 145.601 132.769 145.7 132.27 145.68C131.711 145.657 131.166 145.483 130.687 145.173C130.122 144.795 129.653 144.272 129.322 143.652C129.21 143.443 129.112 143.234 129.045 143.081L128.902 142.775L128.617 142.148L128.047 140.901C127.297 139.228 126.547 137.538 125.895 135.841C125.242 134.143 124.552 132.422 123.907 130.692C123.262 128.962 122.685 127.233 122.137 125.366L127.822 123.371Z" fill="#E58A7B"/>
<path d="M125.392 117.45C128.265 118.182 131.497 127.289 131.497 127.289L122.955 135.085C122.955 135.085 117.427 125.157 118.545 121.883C119.707 118.472 121.642 116.493 125.392 117.45Z" fill="#2A5F73"/>
<path d="M140.25 117.893L143.25 115.206L145.335 118.69L143.797 121.594C143.797 121.594 141.352 124.007 139.192 122.776C138.85 121.95 138.767 121.026 138.958 120.145C139.149 119.263 139.602 118.473 140.25 117.893Z" fill="#E58A7B"/>
<path d="M148.665 115.214L148.44 116.091L143.692 116.944L143.227 115.206L148.665 115.214Z" fill="#E58A7B"/>
<path d="M121.8 254.544L113.235 248.607L114.772 245.743L124.395 252.091L121.8 254.544Z" fill="#2A5F73"/>
<path d="M107.25 259.274C106.498 259.176 105.776 258.901 105.135 258.47C105.108 258.46 105.085 258.441 105.069 258.417C105.053 258.392 105.044 258.363 105.044 258.333C105.044 258.303 105.053 258.273 105.069 258.249C105.085 258.224 105.108 258.206 105.135 258.196C105.367 258.116 107.385 257.448 107.97 257.963C108.035 258.021 108.085 258.098 108.114 258.184C108.143 258.27 108.15 258.363 108.135 258.454C108.124 258.598 108.08 258.738 108.005 258.859C107.93 258.98 107.827 259.079 107.707 259.145C107.567 259.228 107.41 259.272 107.25 259.274ZM105.562 258.389C106.5 258.904 107.25 259.089 107.61 258.896C107.688 258.849 107.754 258.782 107.801 258.7C107.849 258.619 107.876 258.525 107.88 258.429C107.88 258.301 107.88 258.244 107.812 258.212C107.497 257.939 106.372 258.148 105.547 258.389H105.562Z" fill="#263238"/>
<path d="M105.187 258.527C105.148 258.526 105.11 258.509 105.082 258.479C105.071 258.456 105.065 258.431 105.065 258.406C105.065 258.381 105.071 258.356 105.082 258.334C105.082 258.261 105.57 256.516 106.335 256.121C106.433 256.074 106.539 256.049 106.646 256.049C106.753 256.049 106.86 256.074 106.957 256.121C107.063 256.157 107.154 256.229 107.216 256.327C107.279 256.425 107.309 256.542 107.302 256.66C107.25 257.384 105.877 258.382 105.247 258.551L105.187 258.527ZM106.642 256.331C106.569 256.333 106.498 256.352 106.432 256.387C105.967 256.628 105.585 257.569 105.397 258.141C106.057 257.843 106.965 257.055 106.995 256.612C106.995 256.54 106.995 256.451 106.822 256.371C106.766 256.338 106.705 256.317 106.642 256.306V256.331Z" fill="#263238"/>
<path d="M117.952 262.75C117.105 262.75 115.927 261.584 115.282 260.868C115.266 260.843 115.257 260.814 115.257 260.783C115.257 260.753 115.266 260.723 115.282 260.699C115.297 260.673 115.318 260.652 115.343 260.638C115.368 260.623 115.397 260.617 115.425 260.618C115.725 260.618 118.327 261.037 118.695 261.825C118.734 261.896 118.754 261.976 118.754 262.058C118.754 262.141 118.734 262.221 118.695 262.292C118.64 262.415 118.557 262.52 118.453 262.599C118.349 262.678 118.229 262.727 118.102 262.742L117.952 262.75ZM115.777 260.98C116.722 261.962 117.555 262.509 118.027 262.445C118.11 262.433 118.189 262.4 118.257 262.348C118.325 262.296 118.38 262.227 118.417 262.147C118.434 262.119 118.443 262.087 118.443 262.054C118.443 262.022 118.434 261.989 118.417 261.962C118.222 261.527 116.835 261.157 115.777 260.98Z" fill="#263238"/>
<path d="M115.86 260.94C115.691 260.945 115.523 260.932 115.357 260.9C115.334 260.896 115.312 260.886 115.294 260.871C115.275 260.855 115.261 260.835 115.252 260.812C115.241 260.788 115.235 260.762 115.235 260.735C115.235 260.709 115.241 260.682 115.252 260.659C115.297 260.602 116.31 259.291 117.27 259.203C117.542 259.18 117.811 259.272 118.02 259.46C118.312 259.734 118.297 259.975 118.222 260.128C118.035 260.675 116.737 260.94 115.86 260.94ZM115.665 260.643C116.505 260.691 117.847 260.393 118.02 259.999C118.02 259.999 118.08 259.87 117.885 259.693C117.807 259.621 117.717 259.566 117.618 259.533C117.52 259.5 117.417 259.489 117.315 259.5C116.668 259.694 116.092 260.095 115.665 260.651V260.643Z" fill="#263238"/>
<path d="M105.39 257.657L99.0298 255.726C98.9202 255.691 98.8021 255.7 98.6983 255.752C98.5945 255.804 98.5122 255.895 98.4673 256.008L96.3223 261.181C96.2719 261.313 96.2483 261.456 96.2529 261.599C96.2575 261.742 96.2903 261.882 96.3491 262.011C96.4079 262.139 96.4914 262.253 96.594 262.344C96.6967 262.435 96.8162 262.502 96.9448 262.541C99.1948 263.168 100.275 263.345 103.072 264.206C104.797 264.721 107.257 265.678 109.635 266.402C112.012 267.126 112.807 264.64 111.885 264.109C107.715 261.744 107.385 260.087 106.245 258.317C106.041 257.996 105.738 257.763 105.39 257.657Z" fill="#2A5F73"/>
<path d="M115.455 259.927L110.025 255.904C109.933 255.832 109.819 255.799 109.706 255.811C109.593 255.823 109.487 255.879 109.41 255.969L105.81 260.12C105.722 260.227 105.657 260.353 105.618 260.49C105.579 260.626 105.568 260.77 105.585 260.912C105.602 261.053 105.647 261.189 105.717 261.311C105.786 261.432 105.88 261.536 105.99 261.616C107.902 262.992 108.892 263.547 111.285 265.325C112.785 266.419 115.687 268.849 117.712 270.361C119.737 271.873 121.245 269.798 120.525 268.977C117.3 265.285 116.595 262.968 116.062 260.868C115.97 260.487 115.755 260.154 115.455 259.927Z" fill="#2A5F73"/>
<path d="M111.052 252.444L101.265 247.223L102.277 244.375L112.732 249.878L111.052 252.444Z" fill="#2A5F73"/>
<path d="M98.3248 154.038L97.4998 156.355C97.4173 156.532 97.6123 156.717 97.8898 156.717H122.7C122.917 156.717 123.097 156.605 123.112 156.46L123.322 154.159C123.322 154.006 123.15 153.869 122.917 153.869H98.7148C98.6419 153.862 98.5685 153.873 98.5006 153.903C98.4328 153.932 98.3725 153.979 98.3248 154.038Z" fill="#2A5F73"/>
<path opacity="0.4" d="M98.3248 154.038L97.4998 156.355C97.4173 156.532 97.6123 156.717 97.8898 156.717H122.7C122.917 156.717 123.097 156.605 123.112 156.46L123.322 154.159C123.322 154.006 123.15 153.869 122.917 153.869H98.7148C98.6419 153.862 98.5685 153.873 98.5006 153.903C98.4328 153.932 98.3725 153.979 98.3248 154.038Z" fill="white"/>
<path d="M102.232 156.943H101.58C101.452 156.943 101.355 156.871 101.362 156.782L101.67 153.797C101.67 153.717 101.79 153.645 101.917 153.645H102.57C102.697 153.645 102.795 153.717 102.787 153.797L102.48 156.782C102.472 156.871 102.36 156.943 102.232 156.943Z" fill="#2A5F73"/>
<path d="M117.532 156.943H116.887C116.76 156.943 116.662 156.871 116.67 156.782L116.97 153.797C116.97 153.717 117.097 153.645 117.225 153.645H117.87C117.997 153.645 118.102 153.717 118.087 153.797L117.787 156.782C117.75 156.871 117.667 156.943 117.532 156.943Z" fill="#2A5F73"/>
<g style="mix-blend-mode:multiply">
<path d="M101.662 293.184C112.759 293.184 121.755 292.485 121.755 291.623C121.755 290.761 112.759 290.062 101.662 290.062C90.5655 290.062 81.5698 290.761 81.5698 291.623C81.5698 292.485 90.5655 293.184 101.662 293.184Z" fill="#F5F5F5"/>
</g>
<path d="M113.902 289.419C110.347 288.309 106.402 286.885 104.017 285.397C103.95 285.349 103.875 285.325 103.807 285.284V268.02H111C111.546 267.985 112.059 267.728 112.434 267.301C112.809 266.874 113.018 266.31 113.018 265.723C113.018 265.136 112.809 264.572 112.434 264.145C112.059 263.718 111.546 263.461 111 263.426H103.845V184.73H99.5248V263.426H92.3773C92.0855 263.408 91.7932 263.453 91.5184 263.56C91.2436 263.667 90.9921 263.834 90.7793 264.049C90.5665 264.264 90.397 264.523 90.2812 264.811C90.1653 265.099 90.1055 265.409 90.1055 265.723C90.1055 266.037 90.1653 266.347 90.2812 266.635C90.397 266.923 90.5665 267.182 90.7793 267.397C90.9921 267.612 91.2436 267.779 91.5184 267.886C91.7932 267.993 92.0855 268.038 92.3773 268.02H99.5248V285.26C99.4573 285.26 99.3898 285.325 99.3223 285.373C96.8998 286.885 92.9848 288.309 89.4298 289.395C89.1897 289.473 88.9835 289.641 88.8485 289.868C88.7136 290.094 88.6588 290.366 88.6942 290.632C88.7295 290.899 88.8527 291.143 89.0413 291.32C89.2299 291.498 89.4715 291.597 89.7223 291.6H113.61C113.85 291.582 114.076 291.477 114.253 291.302C114.429 291.126 114.543 290.891 114.578 290.636C114.612 290.381 114.564 290.121 114.441 289.9C114.318 289.678 114.128 289.509 113.902 289.419Z" fill="#E0E0E0"/>
<path d="M115.005 176.718H88.3348C86.1892 176.718 84.4498 178.584 84.4498 180.885V189.389C84.4498 191.69 86.1892 193.556 88.3348 193.556H115.005C117.15 193.556 118.89 191.69 118.89 189.389V180.885C118.89 178.584 117.15 176.718 115.005 176.718Z" fill="#2A5F73"/>
<path d="M88.0872 193.563V195.028C88.0872 196.234 89.3097 197.216 90.8097 197.216H112.56C114.06 197.216 115.282 196.234 115.282 195.028V193.563H88.0872Z" fill="#2A5F73"/>
<path opacity="0.3" d="M88.0872 193.563V195.028C88.0872 196.234 89.3097 197.216 90.8097 197.216H112.56C114.06 197.216 115.282 196.234 115.282 195.028V193.563H88.0872Z" fill="white"/>
</svg>
