<svg width="375" height="269" viewBox="0 0 375 269" fill="none" xmlns="http://www.w3.org/2000/svg">
<path d="M375 234.55H0V234.737H375V234.55Z" fill="#E6E6E6"/>
<path d="M93.615 245.897H68.775V246.085H93.615V245.897Z" fill="#E6E6E6"/>
<path d="M60.915 245.897H46.5225V246.085H60.915V245.897Z" fill="#E6E6E6"/>
<path d="M157.913 248.657H143.52V248.845H157.913V248.657Z" fill="#E6E6E6"/>
<path d="M232.957 252.843H200.565V253.03H232.957V252.843Z" fill="#E6E6E6"/>
<path d="M193.89 252.843H189.142V253.03H193.89V252.843Z" fill="#E6E6E6"/>
<path d="M340.013 248.657H269.753V248.845H340.013V248.657Z" fill="#E6E6E6"/>
<path d="M200.55 170.485H184.057V235.907H200.55V170.485Z" fill="#E0E0E0"/>
<path d="M197.415 235.908H200.55V226.998H194.13L197.415 235.908Z" fill="#FAFAFA"/>
<path d="M128.28 170.485H111.787V235.907H128.28V170.485Z" fill="#E0E0E0"/>
<path d="M200.55 170.485H125.55V230.44H200.55V170.485Z" fill="#FAFAFA"/>
<path d="M197.827 173.433V189.295H128.25V173.433H197.805M198.097 173.14H127.98V189.58H198.12V173.14H198.097Z" fill="#E0E0E0"/>
<path d="M128.678 235.908H125.55V226.998H131.963L128.678 235.908Z" fill="#FAFAFA"/>
<path d="M161.392 181.36C161.392 181.688 161.49 182.008 161.672 182.281C161.854 182.554 162.113 182.766 162.416 182.891C162.719 183.017 163.052 183.05 163.373 182.986C163.695 182.922 163.99 182.764 164.222 182.532C164.454 182.3 164.612 182.005 164.676 181.684C164.74 181.362 164.707 181.029 164.581 180.726C164.456 180.423 164.243 180.164 163.971 179.982C163.698 179.8 163.378 179.703 163.05 179.703C162.61 179.703 162.189 179.877 161.878 180.188C161.567 180.499 161.392 180.921 161.392 181.36Z" fill="#E6E6E6"/>
<path d="M197.827 192.527V208.39H128.25V192.527H197.805M198.097 192.242H127.98V208.682H198.12V192.25L198.097 192.242Z" fill="#E0E0E0"/>
<path d="M161.392 200.5C161.392 200.828 161.49 201.148 161.672 201.421C161.854 201.693 162.113 201.906 162.416 202.031C162.719 202.157 163.052 202.189 163.373 202.125C163.695 202.061 163.99 201.904 164.222 201.672C164.454 201.44 164.612 201.145 164.676 200.823C164.74 200.502 164.707 200.168 164.581 199.865C164.456 199.563 164.243 199.304 163.971 199.122C163.698 198.939 163.378 198.842 163.05 198.842C162.61 198.842 162.189 199.017 161.878 199.328C161.567 199.639 161.392 200.06 161.392 200.5Z" fill="#E6E6E6"/>
<path d="M197.827 211.63V227.5H128.25V211.63H197.805M198.097 211.337H127.98V227.785H198.12V211.337H198.097Z" fill="#E0E0E0"/>
<path d="M161.392 219.565C161.394 219.892 161.492 220.212 161.675 220.484C161.858 220.755 162.118 220.967 162.421 221.091C162.724 221.215 163.057 221.247 163.378 221.182C163.699 221.117 163.994 220.959 164.225 220.727C164.456 220.495 164.613 220.199 164.676 219.878C164.739 219.557 164.706 219.224 164.581 218.921C164.455 218.619 164.242 218.361 163.97 218.179C163.698 217.997 163.377 217.9 163.05 217.9C162.832 217.9 162.616 217.943 162.414 218.027C162.212 218.111 162.029 218.233 161.875 218.388C161.721 218.543 161.599 218.726 161.516 218.928C161.434 219.13 161.391 219.347 161.392 219.565Z" fill="#E6E6E6"/>
<path d="M118.207 132.49H101.715V235.915H118.207V132.49Z" fill="#E0E0E0"/>
<path d="M115.073 235.908H118.208V226.998H111.795L115.073 235.908Z" fill="#FAFAFA"/>
<path d="M56.5725 132.49H40.08V235.915H56.5725V132.49Z" fill="#E0E0E0"/>
<path d="M118.207 132.49H53.835V230.448H118.207V132.49Z" fill="#FAFAFA"/>
<path d="M115.432 135.25V157.428H56.61V135.25H115.432ZM115.777 134.913H56.25V157.75H115.763V134.92L115.777 134.913Z" fill="#E0E0E0"/>
<path d="M115.432 160.135V218.958H87.4125V160.135H115.432ZM115.777 159.79H87.075V219.303H115.777V159.79Z" fill="#E0E0E0"/>
<path d="M84.63 160.135V218.958H56.61V160.135H84.63ZM84.9675 159.79H56.25V219.303H84.9525V159.79H84.9675Z" fill="#E0E0E0"/>
<path d="M56.97 235.908H53.835V226.998H60.255L56.97 235.908Z" fill="#FAFAFA"/>
<path d="M84.36 146.35C84.3585 146.679 84.4549 147.002 84.6369 147.277C84.819 147.552 85.0785 147.766 85.3826 147.893C85.6867 148.021 86.0217 148.055 86.3452 147.991C86.6687 147.928 86.966 147.77 87.1997 147.537C87.4333 147.305 87.5926 147.008 87.6574 146.685C87.7223 146.362 87.6898 146.027 87.564 145.722C87.4382 145.417 87.2248 145.157 86.9508 144.974C86.6768 144.79 86.3546 144.692 86.025 144.692C85.5847 144.692 85.1623 144.867 84.8503 145.177C84.5383 145.488 84.362 145.91 84.36 146.35Z" fill="#E6E6E6"/>
<path d="M90.2999 188.147C90.2999 188.477 90.3978 188.799 90.5811 189.073C90.7644 189.347 91.0248 189.561 91.3295 189.686C91.6342 189.812 91.9694 189.845 92.2925 189.78C92.6157 189.715 92.9124 189.556 93.1449 189.322C93.3775 189.089 93.5355 188.791 93.5989 188.468C93.6623 188.144 93.6282 187.809 93.501 187.505C93.3739 187.201 93.1593 186.941 92.8845 186.759C92.6097 186.577 92.2871 186.481 91.9574 186.482C91.7391 186.482 91.523 186.526 91.3214 186.609C91.1198 186.693 90.9368 186.816 90.7828 186.971C90.6287 187.125 90.5068 187.309 90.424 187.511C90.3411 187.713 90.299 187.929 90.2999 188.147Z" fill="#E6E6E6"/>
<path d="M78.4275 188.147C78.429 188.475 78.5275 188.795 78.7105 189.066C78.8935 189.338 79.1529 189.549 79.4559 189.673C79.7589 189.798 80.0919 189.829 80.4129 189.765C80.734 189.7 81.0286 189.541 81.2597 189.309C81.4907 189.077 81.6478 188.782 81.7112 188.461C81.7745 188.139 81.7413 187.806 81.6156 187.504C81.4899 187.201 81.2775 186.943 81.0051 186.761C80.7327 186.579 80.4125 186.482 80.085 186.482C79.8667 186.482 79.6506 186.526 79.449 186.609C79.2474 186.693 79.0643 186.816 78.9103 186.971C78.7563 187.125 78.6344 187.309 78.5515 187.511C78.4687 187.713 78.4265 187.929 78.4275 188.147Z" fill="#E6E6E6"/>
<path d="M76.5526 103.652H69.6001C70.2408 107.025 70.6443 110.438 70.8076 113.867C70.8076 117.617 65.5126 132.49 73.0576 132.49C80.6026 132.49 75.3076 117.655 75.3076 113.867C75.4832 110.437 75.8993 107.024 76.5526 103.652Z" fill="#E0E0E0"/>
<path d="M50.1 118.862V123.362C50.1079 125.775 51.0697 128.086 52.7755 129.792C54.4813 131.498 56.7926 132.459 59.205 132.467H63.705C66.1173 132.459 68.4286 131.498 70.1344 129.792C71.8403 128.086 72.8021 125.775 72.81 123.362V118.862H50.1Z" fill="#F5F5F5"/>
<path d="M146.752 160.945C146.752 166.195 152.625 170.485 159.802 170.485H166.282C173.46 170.485 179.332 166.195 179.332 160.945H146.752Z" fill="#E0E0E0"/>
<path d="M318.457 153.25C314.527 156.46 309.097 162.332 304.132 170.597C300.817 176.102 298.822 181.847 297.945 189.482C297.945 180.857 297.997 171.595 298.027 162.85C299.025 160.6 301.305 155.41 302.94 151.315C308.392 137.642 310.44 134.275 315.337 122.485C321.885 106.735 328.59 88.0899 326.67 89.5824C322.755 92.6199 307.755 120.707 306.135 124.727C301.719 135.456 298.989 146.802 298.042 158.365C298.042 150.115 298.102 142.615 298.132 136.795C298.237 117.812 298.56 111.685 298.717 109.795C299.325 108.835 300.037 107.717 300.457 107.117C303.982 102.017 305.34 97.6824 308.655 90.0774C313.365 79.3149 317.415 60.1974 316.23 61.1574C311.295 65.1774 307.41 73.8024 302.295 84.8049C297.18 95.8074 298.642 102.13 297.63 111.52C297.42 113.365 297.255 120.325 297.135 129.962C295.815 119.687 293.325 112.922 288.787 106.772C283.207 99.2049 277.807 94.0974 273.847 91.4274C269.887 88.7574 280.687 107.342 285.847 115.427C290.445 122.657 294.682 129.025 297.097 135.302C296.97 148.375 296.91 164.92 296.91 180.302C295.725 173.297 293.79 165.745 291.21 159.902C288.105 152.882 283.335 142.112 279.532 138.46C278.625 137.582 283.507 158.53 286.642 164.095C289.777 169.66 292.08 174.917 294.052 178.075C294.51 178.825 296.04 181.652 296.91 183.287C296.91 202.09 297.015 218.68 297.18 224.327H297.99C297.937 222.872 297.922 213.302 297.945 200.642C299.902 193.772 304.372 185.927 308.062 178.772C312.082 171.025 322.387 150.062 318.457 153.25Z" fill="#E0E0E0"/>
<path d="M309.33 235.907H285.825L284.047 212.867H311.107L309.33 235.907Z" fill="#F0F0F0"/>
<path d="M312.855 215.552H282.292L281.422 207.775H313.732L312.855 215.552Z" fill="#F5F5F5"/>
<path d="M93.195 4.375H51.1575V50.5375H93.195V4.375Z" fill="#E0E0E0"/>
<path d="M97.7475 4.375H54.3225V50.5375H97.7475V4.375Z" fill="#F5F5F5"/>
<path d="M94.11 46.9002V8.0127L57.96 8.0127V46.9002H94.11Z" fill="white"/>
<path d="M85.3425 37.4651V17.4326H66.72V37.4651H85.3425Z" fill="#F5F5F5"/>
<path d="M307.537 9.75244H268.485V52.6374H307.537V9.75244Z" fill="#E0E0E0"/>
<path d="M311.767 9.75244H271.432V52.6374H311.767V9.75244Z" fill="#F5F5F5"/>
<path d="M308.392 49.2548V13.1348L274.815 13.1348V49.2548H308.392Z" fill="white"/>
<path d="M291.6 41.6723C297.387 41.6723 302.077 36.9813 302.077 31.1948C302.077 25.4082 297.387 20.7173 291.6 20.7173C285.813 20.7173 281.122 25.4082 281.122 31.1948C281.122 36.9813 285.813 41.6723 291.6 41.6723Z" fill="#F5F5F5"/>
<path d="M136.867 31.8999H105.682V66.1449H136.867V31.8999Z" fill="#E0E0E0"/>
<path d="M140.243 31.8999H108.03V66.1449H140.243V31.8999Z" fill="#F5F5F5"/>
<path d="M137.542 63.4451V34.6001H110.73V63.4451H137.542Z" fill="white"/>
<path d="M124.14 41.7251L116.805 54.4301H131.475L124.14 41.7251Z" fill="#F5F5F5"/>
<path d="M187.5 268.42C267.812 268.42 332.918 264.619 332.918 259.93C332.918 255.241 267.812 251.44 187.5 251.44C107.188 251.44 42.0825 255.241 42.0825 259.93C42.0825 264.619 107.188 268.42 187.5 268.42Z" fill="#F5F5F5"/>
<path d="M261.938 70.3223L254.498 67.3223C254.498 67.3223 244.68 85.2248 241.868 86.1323C238.043 87.3623 230.123 90.7823 225.428 91.3823C224.79 92.1323 223.748 94.4648 223.845 95.3123C230.153 97.4198 244.013 94.6223 246.983 92.4173C253.74 87.4148 261.938 70.3223 261.938 70.3223Z" fill="#E58A7B"/>
<path d="M264.225 66.2495C265.612 71.372 258.098 81.677 258.098 81.677L248.25 76.157C248.25 76.157 250.095 71.9195 252.345 67.607C255.952 60.6395 262.642 60.407 264.225 66.2495Z" fill="#2A5F73"/>
<path opacity="0.2" d="M264.225 66.2495C265.612 71.372 258.098 81.677 258.098 81.677L248.25 76.157C248.25 76.157 250.095 71.9195 252.345 67.607C255.952 60.6395 262.642 60.407 264.225 66.2495Z" fill="black"/>
<path opacity="0.2" d="M252.158 78.3623L256.035 80.5373L256.718 68.6348C254.46 70.3673 252.87 75.5873 252.158 78.3623Z" fill="black"/>
<path d="M257.745 62.3944C257.745 62.3944 250.08 79.4494 254.55 111.204H284.753C285.233 106.569 283.643 83.9494 289.395 62.1094C286.082 61.4619 282.73 61.0334 279.36 60.8269C275.086 60.5792 270.801 60.5792 266.528 60.8269C263.565 61.1277 260.629 61.6517 257.745 62.3944Z" fill="#2A5F73"/>
<path opacity="0.2" d="M257.745 62.3944C257.745 62.3944 250.08 79.4494 254.55 111.204H284.753C285.233 106.569 283.643 83.9494 289.395 62.1094C286.082 61.4619 282.73 61.0334 279.36 60.8269C275.086 60.5792 270.801 60.5792 266.528 60.8269C263.565 61.1277 260.629 61.6517 257.745 62.3944Z" fill="black"/>
<g style="mix-blend-mode:multiply">
<path d="M250.74 260.605C250.695 261.415 262.148 262.067 276.315 262.067C290.483 262.067 302.017 261.415 302.062 260.605C302.107 259.795 290.662 259.15 276.487 259.15C262.312 259.15 250.793 259.802 250.74 260.605Z" fill="#E8ECF1"/>
</g>
<path d="M270.9 239.322L265.544 241.396L270.158 253.316L275.515 251.242L270.9 239.322Z" fill="#E58A7B"/>
<path d="M294.788 254.837H289.14L287.07 241.765H292.718L294.788 254.837Z" fill="#E58A7B"/>
<path d="M288.75 254.185H295.095C295.205 254.185 295.311 254.224 295.395 254.296C295.479 254.367 295.535 254.466 295.552 254.575L296.37 259.592C296.387 259.718 296.377 259.846 296.34 259.968C296.304 260.089 296.241 260.202 296.157 260.297C296.073 260.392 295.97 260.468 295.854 260.52C295.738 260.572 295.612 260.598 295.485 260.597C293.273 260.56 292.208 260.425 289.418 260.425C287.7 260.425 284.167 260.605 281.782 260.605C279.397 260.605 279.24 258.265 280.222 258.047C284.632 257.095 286.342 255.797 287.812 254.537C288.072 254.309 288.405 254.184 288.75 254.185Z" fill="#263238"/>
<path d="M270 252.25L276 250.495C276.107 250.465 276.221 250.472 276.324 250.516C276.426 250.559 276.51 250.637 276.562 250.735L278.812 255.235C278.865 255.349 278.891 255.473 278.891 255.599C278.89 255.724 278.862 255.848 278.808 255.962C278.755 256.075 278.677 256.176 278.581 256.256C278.484 256.337 278.371 256.395 278.25 256.427C276.067 257.027 274.605 257.395 271.875 258.19C269.992 258.737 268.073 259.63 266.213 260.222C264.923 260.635 261.892 260.65 260.325 260.65C258.007 260.65 257.49 258.205 258.487 258.092C261 257.815 261.337 257.942 262.725 257.245C264.995 256.252 267.053 254.831 268.785 253.06C269.112 252.688 269.531 252.408 270 252.25Z" fill="#263238"/>
<path d="M226.373 91.352L220.163 88.7495L217.605 95.6345C220.15 96.0222 222.74 96.0222 225.285 95.6345L226.373 91.352Z" fill="#E58A7B"/>
<path d="M215.543 88.5698L215.378 93.1448L217.605 95.6198L220.163 88.7348L215.543 88.5698Z" fill="#E58A7B"/>
<path d="M271.635 240.334L266.262 242.408L268.642 248.572L274.015 246.498L271.635 240.334Z" fill="#CF6F64"/>
<path d="M292.718 241.765H287.07L288.143 248.507H293.79L292.718 241.765Z" fill="#CF6F64"/>
<path opacity="0.2" d="M253.59 102.617C253.703 103.974 253.83 105.362 253.995 106.787L276.45 99.497C279.957 98.4577 283.004 96.254 285.09 93.2495C285.18 91.247 285.293 89.1395 285.465 86.942C285.54 85.877 285.63 84.782 285.728 83.672C285.825 82.562 285.96 81.332 286.103 80.147L253.59 102.617Z" fill="black"/>
<path d="M260.925 78.0173L260.175 77.9273C260.618 74.1773 263.415 71.2223 266.363 71.2973V72.0473C263.783 71.9948 261.323 74.6573 260.925 78.0173Z" fill="white"/>
<path d="M264.923 84.9397H264.795V84.1897C267.375 84.2872 269.798 81.5947 270.195 78.2422L270.945 78.3322C270.548 81.9997 267.84 84.9397 264.923 84.9397Z" fill="white"/>
<path d="M278.94 46.3745C277.883 50.507 276.638 58.0745 279.36 60.827C279.36 60.827 277.455 65.0195 269.783 65.0195C262.77 65.0195 266.528 60.827 266.528 60.827C271.193 59.732 271.275 56.327 270.66 53.102L278.94 46.3745Z" fill="#E58A7B"/>
<path d="M275.565 49.1196L270.668 53.1021C270.819 53.8432 270.907 54.596 270.93 55.3521C272.363 56.7771 275.235 53.1696 275.528 51.3246C275.676 50.5983 275.689 49.8506 275.565 49.1196Z" fill="#CF6F64"/>
<path d="M262.245 46.322C262.586 46.9127 263.045 47.4267 263.593 47.8319C264.142 48.2371 264.768 48.5248 265.433 48.677C267.233 49.0745 268.133 47.417 267.638 45.752C267.195 44.252 265.718 42.2345 263.888 42.5795C263.496 42.6603 263.129 42.8338 262.817 43.0855C262.506 43.3372 262.26 43.6598 262.099 44.0263C261.938 44.3928 261.868 44.7925 261.893 45.1919C261.918 45.5913 262.039 45.9788 262.245 46.322Z" fill="#CF6F64"/>
<path d="M265.223 33.0995C262.418 34.382 261.428 45.527 264.953 47.177C268.478 48.827 270.533 30.662 265.223 33.0995Z" fill="#263238"/>
<path d="M279.795 40.1568C279.12 45.7518 279.045 49.0443 276.045 51.9093C275.115 52.8601 273.941 53.5354 272.652 53.8608C271.363 54.1862 270.008 54.149 268.739 53.7532C267.47 53.3575 266.334 52.6187 265.458 51.6183C264.582 50.6179 264 49.3949 263.775 48.0843C262.868 43.0593 264.12 34.7568 269.73 32.5293C270.909 32.0094 272.205 31.8142 273.485 31.964C274.764 32.1138 275.98 32.6031 277.007 33.3812C278.034 34.1593 278.834 35.1979 279.324 36.3893C279.814 37.5806 279.977 38.8814 279.795 40.1568Z" fill="#E58A7B"/>
<path d="M270.578 35.9947C274.733 34.9372 277.785 34.2172 276.69 37.6747C275.243 42.2947 273.503 46.7647 275.835 46.9672C277.26 47.0947 283.56 44.4247 282.758 41.7172C282.06 39.3622 285.008 38.7172 285.533 37.5247C287.475 33.2047 281.918 33.7747 282.908 31.1497C283.898 28.5247 278.408 24.2947 275.408 26.4022C270.525 29.8072 262.148 29.7547 266.55 24.1522C269.708 20.1547 264.075 20.9722 264.075 20.9722C264.075 20.9722 267.48 22.9897 261.75 26.1097C255.69 29.4397 261.248 38.3872 270.578 35.9947Z" fill="#263238"/>
<path d="M282 46.322C281.18 47.5089 279.947 48.3483 278.543 48.677C276.69 49.0745 275.978 47.417 276.675 45.752C277.298 44.252 279.008 42.2345 280.778 42.5795C282.548 42.9245 282.953 44.852 282 46.322Z" fill="#E58A7B"/>
<path d="M254.55 111.205C254.55 111.205 249.48 156.58 249.083 173.8C248.678 191.71 266.265 247.592 266.265 247.592L275.265 243.842C275.265 243.842 264.765 192.782 266.265 175.195C267.855 156.017 274.425 111.235 274.425 111.235L254.55 111.205Z" fill="#2A5F73"/>
<path opacity="0.2" d="M267.15 123.662C263.108 132.047 265.83 148.63 268.02 158.455C268.853 151.517 269.843 143.987 270.78 137.02C270.69 126.31 269.858 118.037 267.15 123.662Z" fill="black"/>
<path d="M274.868 240.872C274.913 240.872 275.933 243.737 275.933 243.737L265.553 248.102L263.918 245.057L274.868 240.872Z" fill="#2A5F73"/>
<path d="M265.268 111.205C265.268 111.205 269.145 154.36 271.71 170.522C274.53 188.23 285.585 247.202 285.585 247.202H295.928C295.928 247.202 289.733 189.662 288.563 172.127C287.288 153.107 284.753 111.205 284.753 111.205H265.268Z" fill="#2A5F73"/>
<path d="M296.085 244.51C296.13 244.51 296.43 247.397 296.43 247.397H285.06L284.25 244.082L296.085 244.51Z" fill="#2A5F73"/>
<path opacity="0.2" d="M292.125 241.089C292.102 241.09 292.079 241.082 292.061 241.066C292.043 241.051 292.031 241.03 292.028 241.007C291.968 240.482 286.38 188.507 285.33 172.757C284.19 155.672 281.895 117.774 281.873 117.392C281.871 117.38 281.873 117.367 281.877 117.355C281.881 117.343 281.888 117.333 281.896 117.323C281.905 117.314 281.915 117.307 281.926 117.302C281.938 117.297 281.95 117.294 281.963 117.294C281.987 117.294 282.011 117.304 282.029 117.32C282.047 117.337 282.058 117.36 282.06 117.384C282.06 117.767 284.378 155.634 285.518 172.749C286.568 188.499 292.155 240.437 292.208 240.999C292.21 241.012 292.209 241.025 292.206 241.037C292.203 241.049 292.197 241.06 292.19 241.07C292.182 241.08 292.172 241.088 292.161 241.094C292.15 241.1 292.138 241.104 292.125 241.104V241.089Z" fill="black"/>
<path d="M271.215 41.7171C271.215 42.1746 270.93 42.5421 270.63 42.5421C270.33 42.5421 270.113 42.1746 270.143 41.7171C270.173 41.2596 270.428 40.8921 270.728 40.8921C271.028 40.8921 271.245 41.2671 271.215 41.7171Z" fill="#263238"/>
<path d="M266.07 41.7171C266.07 42.1746 265.778 42.5421 265.485 42.5421C265.193 42.5421 264.968 42.1746 264.99 41.7171C265.013 41.2596 265.283 40.8921 265.583 40.8921C265.883 40.8921 266.1 41.2671 266.07 41.7171Z" fill="#263238"/>
<path d="M267.69 41.9497C267.064 43.3467 266.257 44.6554 265.29 45.8422C266.04 46.5922 267.443 46.2472 267.443 46.2472L267.69 41.9497Z" fill="#DF5753"/>
<path d="M267.825 48.1595C267.808 48.1595 267.791 48.156 267.775 48.1492C267.759 48.1423 267.744 48.1322 267.732 48.1196C267.72 48.1069 267.711 48.092 267.705 48.0756C267.699 48.0593 267.697 48.0419 267.698 48.0245C267.7 47.988 267.715 47.9537 267.742 47.9286C267.768 47.9034 267.804 47.8895 267.84 47.8895C268.414 47.8935 268.981 47.7689 269.5 47.5249C270.019 47.2809 270.477 46.9237 270.84 46.4795C270.866 46.4568 270.899 46.4443 270.934 46.4443C270.968 46.4443 271.002 46.4568 271.028 46.4795C271.052 46.5047 271.065 46.5383 271.065 46.5733C271.065 46.6082 271.052 46.6418 271.028 46.667C270.639 47.1391 270.15 47.5182 269.596 47.7764C269.041 48.0347 268.436 48.1656 267.825 48.1595Z" fill="#263238"/>
<path d="M272.13 40.3369C272.094 40.3553 272.054 40.3649 272.014 40.3649C271.973 40.3649 271.934 40.3553 271.898 40.3369C271.617 40.1555 271.298 40.0427 270.965 40.0075C270.633 39.9723 270.297 40.0158 269.985 40.1344C269.955 40.1496 269.921 40.1586 269.887 40.1608C269.853 40.163 269.819 40.1584 269.787 40.1472C269.755 40.136 269.725 40.1185 269.7 40.0957C269.675 40.0729 269.654 40.0452 269.64 40.0144C269.612 39.9477 269.612 39.8727 269.638 39.8054C269.665 39.7382 269.717 39.684 269.783 39.6544C270.175 39.4943 270.6 39.4311 271.021 39.4703C271.443 39.5094 271.849 39.6498 272.205 39.8794C272.234 39.899 272.258 39.924 272.277 39.9531C272.296 39.9823 272.309 40.0149 272.316 40.049C272.322 40.0832 272.321 40.1183 272.314 40.1523C272.307 40.1863 272.292 40.2184 272.273 40.2469C272.235 40.2899 272.185 40.3211 272.13 40.3369Z" fill="#263238"/>
<path d="M264.083 38.8372C264.043 38.8275 264.006 38.8067 263.978 38.7772C263.953 38.7528 263.933 38.7236 263.919 38.6914C263.906 38.6592 263.899 38.6246 263.899 38.5897C263.899 38.5548 263.906 38.5202 263.919 38.488C263.933 38.4558 263.953 38.4267 263.978 38.4022C264.265 38.0798 264.623 37.8281 265.024 37.6668C265.424 37.5055 265.857 37.4389 266.288 37.4722C266.322 37.4775 266.355 37.4899 266.385 37.5085C266.414 37.5271 266.44 37.5516 266.459 37.5804C266.479 37.6093 266.493 37.6418 266.499 37.6761C266.506 37.7104 266.505 37.7456 266.498 37.7797C266.482 37.8492 266.441 37.9104 266.383 37.9518C266.325 37.9932 266.253 38.012 266.183 38.0047C265.842 37.9832 265.501 38.0396 265.185 38.1696C264.869 38.2995 264.587 38.4996 264.36 38.7547C264.326 38.7927 264.282 38.8205 264.233 38.835C264.184 38.8496 264.132 38.8503 264.083 38.8372Z" fill="#263238"/>
<path d="M292.298 69.4896L284.498 67.4121C284.498 67.4121 276.848 86.2446 274.14 87.4671C270.465 89.1471 261.158 94.9671 257.198 97.7196C256.98 98.6571 257.153 101.14 257.648 101.822C264.398 100.592 277.32 95.6196 280.02 93.0921C286.178 87.3246 292.298 69.4896 292.298 69.4896Z" fill="#E58A7B"/>
<path d="M286.853 255.174C286.472 255.204 286.093 255.101 285.78 254.882C285.683 254.795 285.611 254.684 285.57 254.56C285.53 254.437 285.522 254.304 285.548 254.177C285.552 254.097 285.578 254.02 285.623 253.954C285.668 253.888 285.73 253.836 285.803 253.802C286.433 253.479 288.195 254.597 288.398 254.724C288.42 254.738 288.437 254.759 288.446 254.783C288.456 254.807 288.457 254.834 288.45 254.859C288.444 254.886 288.431 254.91 288.412 254.929C288.394 254.949 288.371 254.964 288.345 254.972C287.856 255.092 287.356 255.16 286.853 255.174ZM286.103 254.004C286.046 253.992 285.987 253.992 285.93 254.004C285.901 254.019 285.877 254.042 285.861 254.07C285.845 254.098 285.838 254.13 285.84 254.162C285.82 254.249 285.823 254.34 285.85 254.426C285.876 254.511 285.924 254.588 285.99 254.649C286.283 254.912 287.018 254.942 287.985 254.754C287.409 254.375 286.76 254.119 286.08 254.004H286.103Z" fill="#2A5F73"/>
<path d="M288.307 254.972C288.288 254.978 288.267 254.978 288.247 254.972C287.685 254.657 286.627 253.419 286.785 252.789C286.809 252.69 286.865 252.6 286.945 252.537C287.025 252.473 287.125 252.438 287.227 252.437C287.328 252.423 287.431 252.432 287.528 252.462C287.625 252.491 287.714 252.542 287.79 252.609C288.412 253.142 288.45 254.777 288.45 254.859C288.454 254.884 288.449 254.909 288.437 254.931C288.425 254.953 288.405 254.97 288.382 254.979C288.357 254.985 288.331 254.982 288.307 254.972ZM287.302 252.684H287.25C287.077 252.684 287.055 252.782 287.047 252.819C286.957 253.187 287.625 254.124 288.18 254.567C288.177 253.933 287.981 253.316 287.617 252.797C287.53 252.721 287.418 252.681 287.302 252.684Z" fill="#2A5F73"/>
<path d="M266.94 254.237C266.481 254.397 265.981 254.397 265.523 254.237C265.418 254.181 265.33 254.099 265.266 253.999C265.202 253.899 265.163 253.785 265.155 253.667C265.146 253.593 265.155 253.517 265.183 253.448C265.21 253.378 265.255 253.317 265.313 253.269C265.913 252.729 268.365 253.269 268.643 253.374C268.669 253.381 268.692 253.397 268.709 253.419C268.725 253.441 268.733 253.467 268.733 253.495C268.734 253.523 268.726 253.55 268.712 253.574C268.697 253.599 268.676 253.618 268.65 253.629C268.098 253.879 267.526 254.082 266.94 254.237ZM265.718 253.344C265.632 253.362 265.552 253.4 265.485 253.457C265.461 253.475 265.443 253.499 265.432 253.527C265.422 253.555 265.419 253.585 265.425 253.615C265.43 253.693 265.454 253.769 265.496 253.836C265.538 253.903 265.596 253.958 265.665 253.997C266.063 254.207 266.985 254.042 268.178 253.539C267.374 253.337 266.543 253.271 265.718 253.344Z" fill="#2A5F73"/>
<path d="M268.628 253.629H268.568C267.818 253.494 266.318 252.632 266.273 251.987C266.273 251.837 266.34 251.627 266.7 251.507C266.822 251.464 266.951 251.445 267.08 251.453C267.209 251.461 267.335 251.494 267.45 251.552C268.26 251.949 268.688 253.389 268.71 253.457C268.715 253.479 268.715 253.503 268.708 253.525C268.702 253.548 268.689 253.568 268.673 253.584C268.661 253.603 268.646 253.618 268.628 253.629ZM266.85 251.732H266.775C266.543 251.814 266.543 251.912 266.543 251.942C266.543 252.332 267.63 253.044 268.388 253.284C268.213 252.682 267.844 252.154 267.338 251.784C267.187 251.708 267.014 251.689 266.85 251.732Z" fill="#2A5F73"/>
<path d="M257.835 97.2769L250.013 100.877L249.105 103.127L251.993 105.069C251.993 105.069 257.393 104.484 258.93 101.012L257.835 97.2769Z" fill="#E58A7B"/>
<path d="M258.165 101.949C257.99 100.446 257.494 98.9986 256.71 97.7044L257.948 96.7744C258.878 98.2656 259.472 99.9422 259.688 101.687L258.165 101.949Z" fill="#263238"/>
<path d="M259.5 98.3422C259.665 98.6023 259.747 98.907 259.733 99.2149C259.719 99.5228 259.61 99.819 259.422 100.063C259.234 100.307 258.975 100.487 258.681 100.579C258.386 100.671 258.071 100.67 257.778 100.576C257.484 100.482 257.226 100.3 257.04 100.055C256.853 99.8091 256.747 99.5122 256.735 99.2042C256.724 98.8962 256.807 98.592 256.974 98.3331C257.142 98.0742 257.384 97.8731 257.67 97.7572C257.991 97.5938 258.363 97.5637 258.705 97.6732C259.048 97.7828 259.334 98.0232 259.5 98.3422Z" fill="#263238"/>
<path d="M244.725 103.787L245.768 104.837L252.788 101.837L250.013 100.877L244.725 103.787Z" fill="#E58A7B"/>
<path opacity="0.2" d="M274.868 240.872C274.913 240.872 275.933 243.737 275.933 243.737L265.553 248.102L263.918 245.057L274.868 240.872Z" fill="black"/>
<path opacity="0.2" d="M296.085 244.51C296.13 244.51 296.43 247.397 296.43 247.397H285.06L284.25 244.082L296.085 244.51Z" fill="black"/>
<path d="M294.33 67.3296C296.393 73.9821 288.33 83.0796 288.33 83.0796L277.193 78.5346C278.513 74.6895 280.035 70.9168 281.753 67.2321C285.173 59.8596 292.245 60.6171 294.33 67.3296Z" fill="#2A5F73"/>
<path opacity="0.2" d="M294.33 67.3296C296.393 73.9821 288.33 83.0796 288.33 83.0796L277.193 78.5346C278.513 74.6895 280.035 70.9168 281.753 67.2321C285.173 59.8596 292.245 60.6171 294.33 67.3296Z" fill="black"/>
<path d="M183.66 0.677246H178.868V1.44975H183.66V0.677246Z" fill="#2A5F73"/>
<path d="M245.699 31.2521L245.119 44.124L245.89 44.1588L246.47 31.2869L245.699 31.2521Z" fill="#2A5F73"/>
<path d="M244.208 4.14209H155.708L147.473 188.432H235.973L244.208 4.14209Z" fill="#2A5F73"/>
<path opacity="0.56" d="M241.568 6.67725H153.068L144.833 190.967H233.333L241.568 6.67725Z" fill="#FAFAFA"/>
<path opacity="0.07" d="M238.928 9.20459H150.428L142.185 193.495H230.685L238.928 9.20459Z" fill="#2A5F73"/>
<path d="M228.855 89.5825H153.315L152.685 103.683H228.225L228.855 89.5825Z" fill="white"/>
<path d="M194.858 79.292H153.773L153.495 85.5995H194.58L194.858 79.292Z" fill="#2A5F73"/>
<path d="M227.153 127.637H151.613L150.983 141.737H226.523L227.153 127.637Z" fill="white"/>
<path opacity="0.47" d="M213.3 160.78H162.503L161.745 177.677H212.543L213.3 160.78Z" fill="#2A5F73"/>
<path d="M209.903 180.302H159.105C159.083 180.308 159.06 180.308 159.038 180.302C159.03 180.28 159.03 180.257 159.038 180.235L159.788 163.33C159.788 163.318 159.79 163.307 159.794 163.296C159.799 163.286 159.806 163.276 159.814 163.269C159.823 163.261 159.833 163.255 159.844 163.251C159.855 163.248 159.866 163.246 159.878 163.247H210.675C210.684 163.243 210.695 163.24 210.705 163.24C210.715 163.24 210.726 163.243 210.735 163.247C210.74 163.256 210.743 163.267 210.743 163.277C210.743 163.288 210.74 163.298 210.735 163.307L210 180.25C209.991 180.267 209.977 180.282 209.959 180.291C209.942 180.301 209.922 180.304 209.903 180.302ZM159.195 180.122H209.813L210.563 163.397H159.945L159.195 180.122Z" fill="white"/>
<path d="M185.985 117.347H152.07L151.793 123.662H185.7L185.985 117.347Z" fill="#2A5F73"/>
<path d="M212.333 44.0346C212.139 48.1382 210.679 52.0811 208.155 55.3221C206.286 57.7702 203.882 59.7577 201.125 61.1319C198.369 62.5061 195.335 63.2305 192.255 63.2496C189.766 63.2686 187.3 62.7779 185.008 61.8076C182.716 60.8373 180.647 59.4081 178.929 57.608C177.21 55.8078 175.878 53.6749 175.015 51.3405C174.152 49.0062 173.776 46.5198 173.91 44.0346C174.174 38.8776 176.398 34.0162 180.127 30.4445C183.856 26.8728 188.809 24.8607 193.973 24.8196C196.463 24.7964 198.932 25.2842 201.227 26.2527C203.521 27.2213 205.593 28.6502 207.314 30.451C209.035 32.2518 210.368 34.3864 211.231 36.7227C212.094 39.0591 212.469 41.5477 212.333 44.0346Z" fill="white"/>
<path d="M214.14 28.84C214.091 29.9311 213.703 30.9798 213.03 31.84C212.532 32.4902 211.892 33.018 211.159 33.3833C210.426 33.7485 209.619 33.9415 208.8 33.9474C208.007 33.9523 207.224 33.7627 206.521 33.3953C205.817 33.028 205.214 32.494 204.765 31.84C204.17 30.9562 203.875 29.9042 203.925 28.84C203.998 27.4708 204.59 26.1808 205.581 25.2331C206.571 24.2854 207.887 23.7514 209.258 23.7399C209.919 23.7339 210.575 23.8634 211.184 24.1204C211.794 24.3774 212.344 24.7564 212.802 25.2343C213.259 25.7121 213.614 26.2785 213.844 26.8986C214.074 27.5187 214.175 28.1794 214.14 28.84Z" fill="#2A5F73"/>
<path d="M161.453 96.6324C161.417 97.2368 161.153 97.805 160.714 98.2225C160.276 98.6401 159.695 98.8759 159.09 98.8824C158.798 98.8859 158.508 98.8294 158.238 98.7164C157.969 98.6033 157.725 98.4362 157.523 98.2253C157.32 98.0144 157.163 97.7643 157.061 97.4903C156.959 97.2163 156.915 96.9243 156.93 96.6324C156.963 96.0268 157.225 95.4565 157.665 95.0382C158.104 94.62 158.686 94.3854 159.293 94.3824C159.585 94.38 159.874 94.4373 160.143 94.5507C160.412 94.6641 160.655 94.8312 160.858 95.0419C161.06 95.2525 161.217 95.5022 161.319 95.7757C161.421 96.0492 161.467 96.3407 161.453 96.6324Z" fill="#263238"/>
<path d="M171.563 96.6325C171.528 97.2375 171.265 97.8067 170.826 98.2246C170.388 98.6425 169.806 98.8777 169.2 98.8825C168.908 98.8849 168.619 98.8277 168.351 98.7142C168.082 98.6007 167.839 98.4334 167.638 98.2227C167.436 98.0119 167.28 97.7621 167.178 97.4886C167.077 97.2151 167.032 96.9238 167.048 96.6325C167.08 96.0281 167.342 95.4589 167.779 95.0409C168.217 94.6228 168.797 94.3873 169.403 94.3825C169.695 94.379 169.985 94.4355 170.254 94.5485C170.524 94.6615 170.768 94.8287 170.97 95.0395C171.173 95.2504 171.33 95.5006 171.431 95.7746C171.533 96.0486 171.578 96.3406 171.563 96.6325Z" fill="#263238"/>
<path d="M181.68 96.6325C181.646 97.2375 181.383 97.8067 180.944 98.2246C180.505 98.6425 179.924 98.8777 179.318 98.8825C179.026 98.8849 178.736 98.8276 178.467 98.7142C178.198 98.6008 177.955 98.4337 177.753 98.223C177.55 98.0124 177.393 97.7627 177.291 97.4892C177.189 97.2157 177.143 96.9241 177.158 96.6325C177.192 96.0275 177.455 95.4582 177.894 95.0403C178.333 94.6224 178.914 94.3872 179.52 94.3825C179.812 94.379 180.102 94.4355 180.372 94.5485C180.642 94.6615 180.885 94.8287 181.088 95.0395C181.29 95.2504 181.447 95.5006 181.549 95.7746C181.651 96.0486 181.696 96.3406 181.68 96.6325Z" fill="#263238"/>
<path d="M159.75 134.687C159.714 135.291 159.45 135.86 159.012 136.277C158.573 136.695 157.993 136.931 157.388 136.937C157.096 136.939 156.806 136.882 156.537 136.769C156.268 136.655 156.025 136.488 155.823 136.278C155.62 136.067 155.463 135.817 155.361 135.544C155.259 135.27 155.213 134.979 155.228 134.687C155.262 134.082 155.525 133.513 155.964 133.095C156.403 132.677 156.984 132.442 157.59 132.437C157.882 132.435 158.171 132.492 158.441 132.605C158.71 132.719 158.953 132.886 159.155 133.097C159.357 133.307 159.514 133.557 159.617 133.83C159.719 134.104 159.764 134.395 159.75 134.687Z" fill="#263238"/>
<path d="M169.86 134.687C169.826 135.291 169.564 135.859 169.126 136.277C168.689 136.694 168.11 136.93 167.505 136.937C167.213 136.941 166.923 136.884 166.653 136.771C166.384 136.658 166.14 136.491 165.938 136.28C165.735 136.069 165.578 135.819 165.476 135.545C165.374 135.271 165.33 134.979 165.345 134.687C165.379 134.082 165.643 133.513 166.081 133.095C166.52 132.677 167.102 132.442 167.708 132.437C167.999 132.435 168.288 132.492 168.557 132.605C168.826 132.719 169.068 132.886 169.27 133.097C169.472 133.308 169.628 133.558 169.729 133.831C169.831 134.104 169.875 134.396 169.86 134.687Z" fill="#263238"/>
<path d="M180 134.687C179.966 135.292 179.703 135.861 179.264 136.279C178.825 136.697 178.243 136.932 177.638 136.937C177.346 136.938 177.057 136.88 176.788 136.767C176.52 136.653 176.277 136.486 176.075 136.275C175.873 136.065 175.716 135.816 175.613 135.543C175.51 135.27 175.464 134.979 175.478 134.687C175.514 134.083 175.777 133.515 176.216 133.097C176.654 132.679 177.235 132.444 177.84 132.437C178.132 132.434 178.422 132.49 178.692 132.603C178.961 132.716 179.205 132.883 179.407 133.094C179.61 133.305 179.767 133.555 179.869 133.829C179.971 134.103 180.015 134.395 180 134.687Z" fill="#263238"/>
<path d="M190.095 134.687C190.059 135.291 189.795 135.86 189.357 136.277C188.918 136.695 188.338 136.931 187.733 136.937C187.441 136.938 187.152 136.88 186.883 136.767C186.615 136.653 186.372 136.486 186.17 136.275C185.968 136.065 185.811 135.816 185.708 135.543C185.605 135.27 185.559 134.978 185.573 134.687C185.609 134.083 185.872 133.514 186.311 133.097C186.749 132.679 187.33 132.444 187.935 132.437C188.227 132.435 188.516 132.492 188.786 132.605C189.055 132.719 189.298 132.886 189.5 133.097C189.702 133.307 189.859 133.557 189.962 133.83C190.064 134.104 190.109 134.395 190.095 134.687Z" fill="#263238"/>
<path d="M200.25 134.687C200.214 135.291 199.95 135.86 199.512 136.277C199.073 136.695 198.493 136.931 197.888 136.937C197.595 136.941 197.305 136.884 197.036 136.771C196.766 136.658 196.523 136.491 196.32 136.28C196.118 136.069 195.961 135.819 195.859 135.545C195.757 135.271 195.712 134.979 195.728 134.687C195.762 134.082 196.025 133.513 196.464 133.095C196.903 132.677 197.484 132.442 198.09 132.437C198.382 132.435 198.672 132.492 198.941 132.605C199.21 132.719 199.453 132.886 199.655 133.097C199.857 133.307 200.014 133.557 200.117 133.83C200.219 134.104 200.264 134.395 200.25 134.687Z" fill="#263238"/>
<path d="M198.715 43.034C201.854 39.9642 202.021 35.0437 199.087 32.0437C196.153 29.0438 191.23 29.1004 188.091 32.1702C184.952 35.24 184.786 40.1605 187.719 43.1604C190.653 46.1604 195.576 46.1038 198.715 43.034Z" fill="#2A5F73"/>
<path d="M208.155 55.3223C206.286 57.7704 203.882 59.7578 201.125 61.132C198.369 62.5062 195.335 63.2307 192.255 63.2498C189.269 63.2751 186.322 62.5652 183.675 61.1827C181.027 59.8002 178.761 57.7876 177.075 55.3223C180.72 51.6923 186.488 49.3223 192.878 49.3223C199.268 49.3223 204.833 51.6923 208.155 55.3223Z" fill="#2A5F73"/>
<path opacity="0.1" d="M198.715 43.034C201.854 39.9642 202.021 35.0437 199.087 32.0437C196.153 29.0438 191.23 29.1004 188.091 32.1702C184.952 35.24 184.786 40.1605 187.719 43.1604C190.653 46.1604 195.576 46.1038 198.715 43.034Z" fill="white"/>
<path opacity="0.1" d="M208.155 55.3223C206.286 57.7704 203.882 59.7578 201.125 61.132C198.369 62.5062 195.335 63.2307 192.255 63.2498C189.269 63.2751 186.322 62.5652 183.675 61.1827C181.027 59.8002 178.761 57.7876 177.075 55.3223C180.72 51.6923 186.488 49.3223 192.878 49.3223C199.268 49.3223 204.833 51.6923 208.155 55.3223Z" fill="white"/>
<path d="M97.8075 107.08C97.095 108.64 96.345 110.357 95.6925 112.022C95.04 113.687 94.3725 115.405 93.795 117.115C92.6159 120.485 91.7178 123.947 91.11 127.465L90.945 128.567C90.9293 128.756 90.9471 128.947 90.9975 129.13C91.1745 129.751 91.4533 130.339 91.8225 130.87C92.7857 132.243 93.903 133.501 95.1525 134.62C96.47 135.845 97.8519 136.999 99.2925 138.077C100.733 139.187 102.248 140.267 103.74 141.287L102.338 143.92C98.7737 142.367 95.391 140.428 92.25 138.137C90.5743 136.915 89.062 135.483 87.75 133.877C86.9723 132.921 86.3659 131.838 85.9575 130.675C85.7201 129.948 85.5986 129.189 85.5975 128.425C85.5975 128.245 85.5975 127.982 85.5975 127.855V127.487L85.6725 126.737C86.1025 122.83 86.9241 118.975 88.125 115.232C88.71 113.387 89.3325 111.55 90.045 109.757C90.7575 107.965 91.4925 106.21 92.4 104.387L97.8075 107.08Z" fill="#E58A7B"/>
<path d="M102.683 140.822L107.985 138.137L106.613 143.957C106.613 143.957 102.975 144.977 101.288 143.207L102.683 140.822Z" fill="#E58A7B"/>
<path d="M112.838 139.09L111.428 143.905L106.613 143.957L107.985 138.137L112.838 139.09Z" fill="#E58A7B"/>
<path d="M120.323 78.9995C120.606 80.0389 121.001 81.0447 121.5 81.9995C121.354 82.1649 121.166 82.2877 120.957 82.3551C120.747 82.4224 120.522 82.4317 120.308 82.382L120.323 78.9995Z" fill="#DF5753"/>
<path d="M120.165 79.0443C120.476 79.0443 120.728 78.6582 120.728 78.1818C120.728 77.7055 120.476 77.3193 120.165 77.3193C119.854 77.3193 119.603 77.7055 119.603 78.1818C119.603 78.6582 119.854 79.0443 120.165 79.0443Z" fill="#263238"/>
<path d="M120 77.3498L121.14 77.0273C121.14 77.0273 120.585 77.9123 120 77.3498Z" fill="#263238"/>
<path d="M105.675 84.5044C106.358 87.9919 107.04 94.3894 104.595 96.7219C104.595 96.7219 105.555 100.262 112.043 100.262C119.175 100.262 115.448 96.7219 115.448 96.7219C111.555 95.7919 111.653 92.9044 112.335 90.1894L105.675 84.5044Z" fill="#E58A7B"/>
<path d="M103.778 76.5544C104.138 82.3819 104.168 84.8569 107.108 87.8494C111.54 92.3494 118.62 90.6394 120.008 84.8494C121.26 79.5994 120.465 70.9594 114.758 68.6419C113.505 68.1258 112.141 67.9379 110.795 68.0958C109.449 68.2538 108.166 68.7524 107.067 69.5446C105.968 70.3367 105.089 71.3962 104.513 72.6229C103.937 73.8495 103.684 75.2027 103.778 76.5544Z" fill="#E58A7B"/>
<path d="M104.355 69.9997C101.43 71.0647 97.5301 70.2697 99.0601 79.2922C100.68 88.8472 98.1901 91.9897 98.1901 91.9897C98.1901 91.9897 109.283 94.3522 120.608 91.8472C120.608 91.8472 117.15 85.8022 118.118 81.3472C119.355 75.7222 118.38 73.6447 118.38 73.6447C118.38 73.6447 108.465 68.4997 104.355 69.9997Z" fill="#263238"/>
<path d="M116.73 79.5923C116.733 80.7003 117.05 81.7848 117.645 82.7198C118.44 83.9348 119.378 83.4698 119.61 82.1798C119.82 81.0473 119.663 79.0448 118.65 78.2648C117.638 77.4848 116.745 78.2498 116.73 79.5923Z" fill="#E58A7B"/>
<path d="M101.813 70.9822C100.973 68.6197 104.978 64.9822 113.453 66.4822C121.928 67.9822 122.295 75.0397 122.295 75.0397L120.585 72.9997L120.66 75.1447L111.953 76.8172L101.813 70.9822Z" fill="#263238"/>
<path d="M102.533 97.1196C102.483 96.7772 102.568 96.4287 102.771 96.1485C102.975 95.8683 103.279 95.6785 103.62 95.6196C106.26 95.1846 112.26 94.2996 115.275 94.7196C117.525 95.0346 118.11 96.3396 118.208 97.4121C118.223 97.5999 118.198 97.7888 118.134 97.9661C118.07 98.1433 117.969 98.3049 117.838 98.4399C117.706 98.5749 117.547 98.6802 117.372 98.7487C117.196 98.8172 117.008 98.8473 116.82 98.8371L103.785 98.2521C103.478 98.2366 103.185 98.1154 102.957 97.909C102.729 97.7027 102.579 97.4238 102.533 97.1196Z" fill="#2A5F73"/>
<path opacity="0.6" d="M102.533 97.1196C102.483 96.7772 102.568 96.4287 102.771 96.1485C102.975 95.8683 103.279 95.6785 103.62 95.6196C106.26 95.1846 112.26 94.2996 115.275 94.7196C117.525 95.0346 118.11 96.3396 118.208 97.4121C118.223 97.5999 118.198 97.7888 118.134 97.9661C118.07 98.1433 117.969 98.3049 117.838 98.4399C117.706 98.5749 117.547 98.6802 117.372 98.7487C117.196 98.8172 117.008 98.8473 116.82 98.8371L103.785 98.2521C103.478 98.2366 103.185 98.1154 102.957 97.909C102.729 97.7027 102.579 97.4238 102.533 97.1196Z" fill="black"/>
<path d="M110.07 228.145L114.908 231.505L123 220.532L118.163 217.18L110.07 228.145Z" fill="#E58A7B"/>
<path d="M98.79 227.927L103.898 230.837L111.06 219.235L105.953 216.325L98.79 227.927Z" fill="#E58A7B"/>
<path d="M122.993 220.532L118.823 226.187L113.985 222.835L118.155 217.18L122.993 220.532Z" fill="#CF6F64"/>
<path d="M105.945 216.325L111.06 219.242L107.37 225.22L102.255 222.302L105.945 216.325Z" fill="#CF6F64"/>
<path d="M114.15 133.75C114.15 133.75 133.035 157.547 129.488 180.31C126.63 198.692 110.055 223.585 110.055 223.585L102.263 219.715C107.755 208.708 112.442 197.319 116.288 185.635C117.473 182.007 117.819 178.158 117.3 174.377C116.78 170.596 115.408 166.983 113.288 163.81C103.718 149.837 88.3875 158.155 98.7 133.75H114.15Z" fill="#2A5F73"/>
<path opacity="0.6" d="M114.15 133.75C114.15 133.75 133.035 157.547 129.488 180.31C126.63 198.692 110.055 223.585 110.055 223.585L102.263 219.715C107.755 208.708 112.442 197.319 116.288 185.635C117.473 182.007 117.819 178.158 117.3 174.377C116.78 170.596 115.408 166.983 113.288 163.81C103.718 149.837 88.3875 158.155 98.7 133.75H114.15Z" fill="black"/>
<path opacity="0.4" d="M123.413 149.035L120.668 146.305C120.668 146.522 125.985 179.35 127.478 188.575C128.358 185.88 129.033 183.122 129.495 180.325C131.25 169.157 127.583 157.75 123.413 149.035Z" fill="black"/>
<path d="M122.58 133.75C122.58 133.75 145.32 163.66 145.965 181.592C146.498 196.592 121.215 225.655 121.215 225.655L113.865 220.9C113.865 220.9 128.663 200.26 132.39 183.4C130.95 166.69 100.5 133.75 100.5 133.75H122.58Z" fill="#2A5F73"/>
<path opacity="0.6" d="M122.58 133.75C122.58 133.75 145.32 163.66 145.965 181.592C146.498 196.592 121.215 225.655 121.215 225.655L113.865 220.9C113.865 220.9 128.663 200.26 132.39 183.4C130.95 166.69 100.5 133.75 100.5 133.75H122.58Z" fill="black"/>
<path d="M94.4476 98.0573C92.0176 98.6348 89.6851 107.47 89.6851 107.47L99.1876 113.815C99.1876 113.815 102.353 106.825 101.243 103.765C100.095 100.577 97.5001 97.3298 94.4476 98.0573Z" fill="#2A5F73"/>
<path opacity="0.2" d="M96.3076 103.75L95.6476 111.452L99.1801 113.822C100.155 111.626 100.878 109.326 101.333 106.967L96.3076 103.75Z" fill="black"/>
<path d="M125.393 98.2296C125.393 98.2296 128.198 99.2121 122.58 133.742H98.685C99.09 123.992 99.0975 117.992 94.4475 98.0571C97.7933 97.3676 101.185 96.9214 104.595 96.7221C108.208 96.4631 111.835 96.4631 115.448 96.7221C120.113 97.1496 125.393 98.2296 125.393 98.2296Z" fill="#2A5F73"/>
<path d="M127.823 103.75C128.363 105.25 128.933 106.862 129.533 108.415C130.133 109.967 130.703 111.565 131.31 113.14L133.148 117.85L133.613 119.027L133.853 119.612L133.965 119.905C133.965 119.957 133.965 119.957 133.965 119.95C133.828 119.756 133.648 119.597 133.44 119.485C133.143 119.31 132.809 119.21 132.465 119.192C132.179 119.183 131.895 119.237 131.633 119.35C131.288 119.507 131.288 119.575 131.295 119.567C131.357 119.517 131.413 119.459 131.46 119.395C131.875 118.85 132.235 118.264 132.533 117.647C132.885 116.957 133.223 116.222 133.56 115.48C134.22 113.98 134.828 112.427 135.435 110.86C136.043 109.292 136.62 107.71 137.183 106.112L138.893 101.327L141.78 102.077C141.21 105.497 140.475 108.827 139.59 112.217C139.163 113.905 138.66 115.577 138.09 117.265C137.805 118.112 137.49 118.952 137.13 119.815C136.755 120.751 136.293 121.65 135.75 122.5C135.551 122.786 135.33 123.056 135.09 123.31C134.707 123.723 134.242 124.053 133.725 124.277C133.266 124.474 132.769 124.566 132.27 124.547C131.711 124.526 131.166 124.364 130.688 124.075C130.123 123.722 129.654 123.235 129.323 122.657C129.21 122.462 129.113 122.267 129.045 122.125L128.903 121.84L128.618 121.255L128.048 120.092C127.298 118.532 126.548 116.957 125.895 115.375C125.243 113.792 124.553 112.187 123.908 110.575C123.263 108.962 122.685 107.35 122.138 105.61L127.823 103.75Z" fill="#E58A7B"/>
<path d="M125.393 98.2296C128.265 98.9121 131.498 107.402 131.498 107.402L122.955 114.67C122.955 114.67 117.428 105.415 118.545 102.362C119.708 99.1821 121.643 97.3371 125.393 98.2296Z" fill="#2A5F73"/>
<path d="M140.25 98.6422L143.25 96.1372L145.335 99.3847L143.798 102.092C143.798 102.092 141.353 104.342 139.193 103.195C138.85 102.424 138.768 101.563 138.958 100.741C139.149 99.9197 139.603 99.1828 140.25 98.6422Z" fill="#E58A7B"/>
<path d="M148.665 96.1447L148.44 96.9622L143.693 97.7572L143.228 96.1372L148.665 96.1447Z" fill="#E58A7B"/>
<path d="M121.8 226.037L113.235 220.502L114.773 217.832L124.395 223.75L121.8 226.037Z" fill="#2A5F73"/>
<path d="M107.25 230.447C106.499 230.355 105.777 230.099 105.135 229.697C105.109 229.688 105.086 229.671 105.069 229.648C105.053 229.625 105.044 229.598 105.044 229.57C105.044 229.542 105.053 229.514 105.069 229.491C105.086 229.469 105.109 229.451 105.135 229.442C105.368 229.367 107.385 228.745 107.97 229.225C108.036 229.279 108.086 229.351 108.115 229.431C108.144 229.511 108.151 229.598 108.135 229.682C108.125 229.817 108.08 229.947 108.005 230.06C107.93 230.173 107.828 230.265 107.708 230.327C107.567 230.404 107.41 230.445 107.25 230.447ZM105.563 229.622C106.5 230.102 107.25 230.275 107.61 230.095C107.688 230.051 107.754 229.988 107.802 229.912C107.849 229.836 107.876 229.749 107.88 229.66C107.88 229.54 107.88 229.487 107.813 229.457C107.498 229.202 106.373 229.397 105.548 229.622H105.563Z" fill="#263238"/>
<path d="M105.188 229.75C105.148 229.749 105.11 229.733 105.083 229.705C105.071 229.684 105.066 229.661 105.066 229.637C105.066 229.614 105.071 229.59 105.083 229.57C105.083 229.502 105.57 227.875 106.335 227.507C106.433 227.463 106.539 227.439 106.646 227.439C106.754 227.439 106.86 227.463 106.958 227.507C107.063 227.54 107.154 227.608 107.217 227.699C107.279 227.79 107.309 227.899 107.303 228.01C107.25 228.685 105.878 229.615 105.248 229.772L105.188 229.75ZM106.643 227.702C106.57 227.704 106.498 227.722 106.433 227.755C105.968 227.98 105.585 228.857 105.398 229.39C106.058 229.112 106.965 228.377 106.995 227.965C106.995 227.897 106.995 227.815 106.823 227.74C106.766 227.709 106.706 227.689 106.643 227.68V227.702Z" fill="#263238"/>
<path d="M117.953 233.687C117.105 233.687 115.928 232.599 115.283 231.932C115.266 231.909 115.257 231.881 115.257 231.853C115.257 231.825 115.266 231.797 115.283 231.774C115.297 231.75 115.318 231.731 115.343 231.717C115.369 231.704 115.397 231.698 115.425 231.699C115.725 231.699 118.328 232.089 118.695 232.824C118.734 232.89 118.755 232.965 118.755 233.042C118.755 233.118 118.734 233.194 118.695 233.259C118.64 233.374 118.557 233.472 118.453 233.546C118.349 233.619 118.229 233.665 118.103 233.679L117.953 233.687ZM115.778 232.037C116.723 232.952 117.555 233.462 118.028 233.402C118.11 233.391 118.189 233.36 118.257 233.312C118.325 233.263 118.38 233.199 118.418 233.124C118.434 233.099 118.443 233.069 118.443 233.038C118.443 233.008 118.434 232.978 118.418 232.952C118.223 232.547 116.835 232.202 115.778 232.037Z" fill="#263238"/>
<path d="M115.86 232C115.692 232.004 115.523 231.992 115.358 231.962C115.334 231.959 115.313 231.949 115.294 231.935C115.276 231.92 115.261 231.901 115.253 231.88C115.241 231.858 115.235 231.833 115.235 231.808C115.235 231.784 115.241 231.759 115.253 231.737C115.298 231.685 116.31 230.462 117.27 230.38C117.542 230.358 117.811 230.445 118.02 230.62C118.313 230.875 118.298 231.1 118.223 231.242C118.035 231.752 116.738 232 115.86 232ZM115.665 231.722C116.505 231.767 117.848 231.49 118.02 231.122C118.02 231.122 118.08 231.002 117.885 230.837C117.807 230.77 117.717 230.719 117.619 230.688C117.521 230.657 117.417 230.646 117.315 230.657C116.668 230.838 116.092 231.212 115.665 231.73V231.722Z" fill="#263238"/>
<path d="M105.39 228.94L99.03 227.14C98.9204 227.106 98.8024 227.115 98.6986 227.163C98.5948 227.212 98.5125 227.297 98.4675 227.402L96.3225 232.225C96.2722 232.348 96.2485 232.481 96.2531 232.614C96.2578 232.748 96.2905 232.878 96.3493 232.998C96.4081 233.118 96.4916 233.224 96.5943 233.309C96.697 233.394 96.8165 233.456 96.945 233.492C99.195 234.077 100.275 234.242 103.073 235.045C104.798 235.525 107.258 236.417 109.635 237.092C112.013 237.767 112.808 235.45 111.885 234.955C107.715 232.75 107.385 231.205 106.245 229.555C106.041 229.256 105.738 229.038 105.39 228.94Z" fill="#2A5F73"/>
<path d="M115.455 231.054L110.025 227.304C109.933 227.237 109.82 227.206 109.706 227.218C109.593 227.229 109.487 227.281 109.41 227.364L105.81 231.234C105.722 231.335 105.657 231.452 105.618 231.579C105.579 231.707 105.568 231.841 105.585 231.973C105.602 232.105 105.647 232.231 105.717 232.345C105.787 232.458 105.88 232.555 105.99 232.629C107.903 233.912 108.893 234.429 111.285 236.087C112.785 237.107 115.688 239.372 117.713 240.782C119.738 242.192 121.245 240.257 120.525 239.492C117.3 236.049 116.595 233.889 116.063 231.932C115.97 231.577 115.755 231.266 115.455 231.054Z" fill="#2A5F73"/>
<path d="M111.053 224.08L101.265 219.212L102.278 216.557L112.733 221.687L111.053 224.08Z" fill="#2A5F73"/>
<path d="M98.3251 132.34L97.5 134.5C97.4175 134.665 97.6126 134.837 97.8901 134.837H122.7C122.918 134.837 123.098 134.732 123.113 134.597L123.323 132.452C123.323 132.31 123.15 132.182 122.918 132.182H98.715C98.6422 132.175 98.5687 132.186 98.5009 132.213C98.433 132.241 98.3727 132.284 98.3251 132.34Z" fill="#2A5F73"/>
<path opacity="0.4" d="M98.3251 132.34L97.5 134.5C97.4175 134.665 97.6126 134.837 97.8901 134.837H122.7C122.918 134.837 123.098 134.732 123.113 134.597L123.323 132.452C123.323 132.31 123.15 132.182 122.918 132.182H98.715C98.6422 132.175 98.5687 132.186 98.5009 132.213C98.433 132.241 98.3727 132.284 98.3251 132.34Z" fill="white"/>
<path d="M102.233 135.047H101.58C101.453 135.047 101.355 134.98 101.363 134.897L101.67 132.115C101.67 132.04 101.79 131.972 101.918 131.972H102.57C102.698 131.972 102.795 132.04 102.788 132.115L102.48 134.897C102.473 134.98 102.36 135.047 102.233 135.047Z" fill="#2A5F73"/>
<path d="M117.533 135.047H116.888C116.76 135.047 116.663 134.98 116.67 134.897L116.97 132.115C116.97 132.04 117.098 131.972 117.225 131.972H117.87C117.998 131.972 118.103 132.04 118.088 132.115L117.788 134.897C117.75 134.98 117.668 135.047 117.533 135.047Z" fill="#2A5F73"/>
<g style="mix-blend-mode:multiply">
<path d="M101.663 262.059C112.759 262.059 121.755 261.408 121.755 260.604C121.755 259.801 112.759 259.149 101.663 259.149C90.5658 259.149 81.5701 259.801 81.5701 260.604C81.5701 261.408 90.5658 262.059 101.663 262.059Z" fill="#F5F5F5"/>
</g>
<path d="M113.903 258.55C110.348 257.515 106.403 256.187 104.018 254.8C103.95 254.755 103.875 254.732 103.808 254.695V238.6H111C111.546 238.567 112.059 238.328 112.434 237.93C112.809 237.532 113.018 237.005 113.018 236.458C113.018 235.911 112.809 235.385 112.434 234.987C112.059 234.589 111.546 234.349 111 234.317H103.845V160.952H99.5251V234.317H92.3776C92.0857 234.3 91.7934 234.342 91.5186 234.442C91.2438 234.542 90.9923 234.697 90.7795 234.897C90.5668 235.098 90.3973 235.34 90.2814 235.608C90.1656 235.877 90.1058 236.166 90.1058 236.458C90.1058 236.751 90.1656 237.04 90.2814 237.308C90.3973 237.577 90.5668 237.819 90.7795 238.019C90.9923 238.22 91.2438 238.375 91.5186 238.475C91.7934 238.574 92.0857 238.617 92.3776 238.6H99.5251V254.672C99.4576 254.672 99.3901 254.732 99.3226 254.777C96.9001 256.187 92.9851 257.515 89.4301 258.527C89.1899 258.6 88.9837 258.756 88.8488 258.967C88.7138 259.179 88.6591 259.432 88.6944 259.68C88.7298 259.929 88.8529 260.156 89.0415 260.322C89.2301 260.487 89.4717 260.579 89.7226 260.582H113.61C113.85 260.566 114.077 260.468 114.253 260.304C114.429 260.141 114.544 259.922 114.578 259.684C114.612 259.446 114.564 259.204 114.441 258.997C114.318 258.791 114.128 258.633 113.903 258.55Z" fill="#E0E0E0"/>
<path d="M115.005 153.482H88.3351C86.1894 153.482 84.4501 155.221 84.4501 157.367V165.294C84.4501 167.44 86.1894 169.179 88.3351 169.179H115.005C117.151 169.179 118.89 167.44 118.89 165.294V157.367C118.89 155.221 117.151 153.482 115.005 153.482Z" fill="#2A5F73"/>
<path d="M88.0875 169.187V170.552C88.0875 171.677 89.31 172.592 90.81 172.592H112.56C114.06 172.592 115.283 171.677 115.283 170.552V169.187H88.0875Z" fill="#2A5F73"/>
<path opacity="0.3" d="M88.0875 169.187V170.552C88.0875 171.677 89.31 172.592 90.81 172.592H112.56C114.06 172.592 115.283 171.677 115.283 170.552V169.187H88.0875Z" fill="white"/>
</svg>
