<svg width="30" height="30" viewBox="0 0 30 30" fill="none" xmlns="http://www.w3.org/2000/svg">
<g filter="url(#filter0_d_500_479)">
<rect x="4.5" y="0.5" width="21" height="21" rx="10.5" fill="#2A5F73" stroke="white"/>
<path d="M16.9702 15.5737H20.9994" stroke="white" stroke-linecap="round" stroke-linejoin="round"/>
<path fill-rule="evenodd" clip-rule="evenodd" d="M16.4332 5.70968C16.8641 5.16043 17.6388 5.0799 18.1644 5.53012C18.1935 5.55454 19.1273 6.32823 19.1273 6.32823C19.7048 6.70056 19.8843 7.49207 19.5273 8.09611C19.5083 8.12846 14.2288 15.1716 14.2288 15.1716C14.0532 15.4053 13.7865 15.5432 13.5016 15.5465L11.4797 15.5736L11.0242 13.5172C10.9604 13.2281 11.0242 12.9244 11.1998 12.6907L16.4332 5.70968Z" stroke="white" stroke-linecap="round" stroke-linejoin="round"/>
<path d="M15.4556 7.0166L18.4845 9.49743" stroke="white" stroke-linecap="round" stroke-linejoin="round"/>
</g>
<defs>
<filter id="filter0_d_500_479" x="0" y="0" width="30" height="30" filterUnits="userSpaceOnUse" color-interpolation-filters="sRGB">
<feFlood flood-opacity="0" result="BackgroundImageFix"/>
<feColorMatrix in="SourceAlpha" type="matrix" values="0 0 0 0 0 0 0 0 0 0 0 0 0 0 0 0 0 0 127 0" result="hardAlpha"/>
<feOffset dy="4"/>
<feGaussianBlur stdDeviation="2"/>
<feComposite in2="hardAlpha" operator="out"/>
<feColorMatrix type="matrix" values="0 0 0 0 0 0 0 0 0 0 0 0 0 0 0 0 0 0 0.25 0"/>
<feBlend mode="normal" in2="BackgroundImageFix" result="effect1_dropShadow_500_479"/>
<feBlend mode="normal" in="SourceGraphic" in2="effect1_dropShadow_500_479" result="shape"/>
</filter>
</defs>
</svg>
