<svg width="50" height="50" viewBox="0 0 50 50" fill="none" xmlns="http://www.w3.org/2000/svg">
<circle opacity="0.1" cx="25" cy="25" r="25" fill="#2A5F73"/>
<path fill-rule="evenodd" clip-rule="evenodd" d="M30.8035 30.3703C28.5114 32.8292 25.1173 33.3605 22.3398 31.9826C21.9298 31.8056 21.5936 31.6624 21.274 31.6624C20.3839 31.6681 19.2759 32.5939 18.7 31.977C18.1242 31.3592 18.9879 30.1698 18.9879 29.2092C18.9879 28.8663 18.8598 28.5122 18.6947 28.0715C17.4096 25.0926 17.9056 21.4507 20.1977 18.9926C23.1237 15.8529 27.8775 15.8529 30.8035 18.9918C33.7348 22.1364 33.7295 27.2314 30.8035 30.3703Z" stroke="#2A5F73" stroke-width="1.5" stroke-linecap="round" stroke-linejoin="round"/>
<path d="M28.4545 25.0146H28.4613" stroke="#2A5F73" stroke-width="2" stroke-linecap="round" stroke-linejoin="round"/>
<path d="M25.4479 25.0146H25.4547" stroke="#2A5F73" stroke-width="2" stroke-linecap="round" stroke-linejoin="round"/>
<path d="M22.441 25.0146H22.4477" stroke="#2A5F73" stroke-width="2" stroke-linecap="round" stroke-linejoin="round"/>
</svg>
