<svg width="143" height="143" viewBox="0 0 143 143" fill="none" xmlns="http://www.w3.org/2000/svg">
<path d="M105.377 76.9748C105.22 61.2555 118.195 53.7162 118.775 53.3353C111.483 42.6733 100.122 41.2103 96.0791 41.0438C86.4185 40.0626 77.2194 46.7343 72.3185 46.7343C67.4276 46.7343 59.8555 41.1876 51.8445 41.3289C41.3061 41.4852 31.5925 47.4582 26.1694 56.8918C15.2249 75.8776 23.3696 104.014 34.0341 119.424C39.2479 126.955 45.4655 135.43 53.6228 135.12C61.485 134.81 64.4513 130.035 73.9555 130.035C83.4597 130.035 86.1284 135.12 94.4446 134.961C102.9 134.807 108.26 127.286 113.43 119.724C119.416 110.974 121.88 102.501 122.027 102.072C121.842 101.986 105.546 95.7437 105.377 76.9748Z" fill="white"/>
<path d="M89.7505 30.8458C94.0764 25.5943 97.0074 18.2971 96.2103 11.0327C89.9675 11.285 82.4105 15.182 77.9282 20.4285C73.9127 25.0848 70.4015 32.498 71.3424 39.6312C78.3066 40.171 85.4096 36.0873 89.7505 30.8458Z" fill="white"/>
</svg>
