<svg width="124" height="126" viewBox="0 0 124 126" fill="none" xmlns="http://www.w3.org/2000/svg">
<path d="M63 53.9962V75.6H98.7315C97.2877 84.8662 87.9375 102.763 63 102.763C41.5013 102.763 23.9453 84.9712 23.9453 63C23.9453 41.0288 41.5065 23.2365 63 23.2365C75.2325 23.2365 83.4277 28.4288 88.1212 32.9438L105.205 16.4693C94.2322 6.2265 80.0048 0 63 0C28.1662 0 0 28.1662 0 63C0 97.8338 28.1662 126 63 126C99.3615 126 123.48 100.438 123.48 64.4385C123.48 60.3015 123.034 57.141 122.488 53.9962H63Z" fill="white"/>
</svg>
